STARTFONT 2.1
COMMENT
COMMENT Converted from OpenType font "SourceSansPro-Bold.ttf" by "otf2bdf 3.0".
COMMENT
FONT -FreeType-Source Sans Pro-Bold-R-Normal--19-140-100-100-P-99-ISO10646-1
SIZE 14 100 100
FONTBOUNDINGBOX 50 26 -9 -6
STARTPROPERTIES 19
FOUNDRY "FreeType"
FAMILY_NAME "Source Sans Pro"
WEIGHT_NAME "Bold"
SLANT "R"
SETWIDTH_NAME "Normal"
ADD_STYLE_NAME ""
PIXEL_SIZE 19
POINT_SIZE 140
RESOLUTION_X 100
RESOLUTION_Y 100
SPACING "P"
AVERAGE_WIDTH 99
CHARSET_REGISTRY "ISO10646"
CHARSET_ENCODING "1"
FONT_ASCENT 18
FONT_DESCENT 5
COPYRIGHT "Copyright 2010, 2012, 2014 Adobe Systems Incorporated (http://www.adobe.com/), with Reserved Font Name Source."
_OTF_FONTFILE "SourceSansPro-Bold.ttf"
_OTF_PSNAME "SourceSansPro-Bold"
ENDPROPERTIES
CHARS 1296
STARTCHAR 0020
ENCODING 32
SWIDTH 205 0
DWIDTH 4 0
BBX 0 0 0 0
BITMAP
ENDCHAR
STARTCHAR 0021
ENCODING 33
SWIDTH 308 0
DWIDTH 6 0
BBX 3 13 2 0
BITMAP
E0
E0
E0
C0
C0
C0
C0
C0
00
C0
E0
E0
C0
ENDCHAR
STARTCHAR 0022
ENCODING 34
SWIDTH 514 0
DWIDTH 10 0
BBX 8 6 1 7
BITMAP
E7
E7
67
66
66
66
ENDCHAR
STARTCHAR 0023
ENCODING 35
SWIDTH 514 0
DWIDTH 10 0
BBX 8 12 1 0
BITMAP
32
32
26
FF
FF
66
66
FF
FF
64
4C
4C
ENDCHAR
STARTCHAR 0024
ENCODING 36
SWIDTH 514 0
DWIDTH 10 0
BBX 8 16 1 -2
BITMAP
18
18
3E
7F
E2
E0
F0
7C
1E
07
07
47
FE
7C
18
18
ENDCHAR
STARTCHAR 0025
ENCODING 37
SWIDTH 822 0
DWIDTH 16 0
BBX 16 13 0 0
BITMAP
3830
7C30
6C60
4640
C6C0
6C9C
7DBE
3933
0333
0233
0633
043E
0C1C
ENDCHAR
STARTCHAR 0026
ENCODING 38
SWIDTH 668 0
DWIDTH 13 0
BBX 12 12 0 0
BITMAP
1E00
3F00
3300
3300
3E00
3C30
7E70
6F60
E7E0
73E0
7FF0
3E30
ENDCHAR
STARTCHAR 0027
ENCODING 39
SWIDTH 308 0
DWIDTH 6 0
BBX 3 6 1 7
BITMAP
E0
E0
60
60
60
60
ENDCHAR
STARTCHAR 0028
ENCODING 40
SWIDTH 360 0
DWIDTH 7 0
BBX 5 17 1 -3
BITMAP
10
38
30
60
60
60
E0
E0
E0
E0
E0
60
60
60
30
30
18
ENDCHAR
STARTCHAR 0029
ENCODING 41
SWIDTH 360 0
DWIDTH 7 0
BBX 4 17 1 -3
BITMAP
C0
E0
60
60
70
30
30
30
30
30
30
30
70
60
60
E0
C0
ENDCHAR
STARTCHAR 002A
ENCODING 42
SWIDTH 462 0
DWIDTH 9 0
BBX 7 7 1 7
BITMAP
10
30
FE
FC
38
6C
48
ENDCHAR
STARTCHAR 002B
ENCODING 43
SWIDTH 514 0
DWIDTH 10 0
BBX 8 9 1 1
BITMAP
18
18
18
FF
FF
18
18
18
18
ENDCHAR
STARTCHAR 002C
ENCODING 44
SWIDTH 308 0
DWIDTH 6 0
BBX 4 7 1 -4
BITMAP
60
F0
70
30
60
E0
80
ENDCHAR
STARTCHAR 002D
ENCODING 45
SWIDTH 308 0
DWIDTH 6 0
BBX 4 2 1 4
BITMAP
F0
F0
ENDCHAR
STARTCHAR 002E
ENCODING 46
SWIDTH 308 0
DWIDTH 6 0
BBX 4 4 1 0
BITMAP
60
E0
F0
60
ENDCHAR
STARTCHAR 002F
ENCODING 47
SWIDTH 308 0
DWIDTH 6 0
BBX 6 17 0 -3
BITMAP
0C
0C
08
18
18
18
10
30
30
30
30
60
60
60
60
40
C0
ENDCHAR
STARTCHAR 0030
ENCODING 48
SWIDTH 514 0
DWIDTH 10 0
BBX 8 12 1 0
BITMAP
3C
7E
E7
E7
C3
C3
C3
C3
E7
E7
7E
3C
ENDCHAR
STARTCHAR 0031
ENCODING 49
SWIDTH 514 0
DWIDTH 10 0
BBX 8 12 1 0
BITMAP
1C
3C
7C
7C
1C
1C
1C
1C
1C
1C
FF
FF
ENDCHAR
STARTCHAR 0032
ENCODING 50
SWIDTH 514 0
DWIDTH 10 0
BBX 8 12 1 0
BITMAP
7C
FE
CE
07
07
0E
0E
1C
38
70
FF
FF
ENDCHAR
STARTCHAR 0033
ENCODING 51
SWIDTH 514 0
DWIDTH 10 0
BBX 9 12 0 0
BITMAP
3E00
7F00
2380
0380
0700
1E00
1F00
0380
0380
6380
FF00
3E00
ENDCHAR
STARTCHAR 0034
ENCODING 52
SWIDTH 514 0
DWIDTH 10 0
BBX 10 12 0 0
BITMAP
0F00
0F00
1F00
1B00
3B00
7300
6300
FFC0
FFC0
0300
0300
0300
ENDCHAR
STARTCHAR 0035
ENCODING 53
SWIDTH 514 0
DWIDTH 10 0
BBX 9 12 0 0
BITMAP
3F80
3F80
3000
3000
7E00
7F80
2380
0380
0380
6380
FF00
3E00
ENDCHAR
STARTCHAR 0036
ENCODING 54
SWIDTH 514 0
DWIDTH 10 0
BBX 8 12 1 0
BITMAP
1E
7F
62
E0
DE
FF
E7
C3
E3
E7
7F
3C
ENDCHAR
STARTCHAR 0037
ENCODING 55
SWIDTH 514 0
DWIDTH 10 0
BBX 8 12 1 0
BITMAP
FF
FF
06
0E
0C
1C
18
18
38
38
38
38
ENDCHAR
STARTCHAR 0038
ENCODING 56
SWIDTH 514 0
DWIDTH 10 0
BBX 8 12 1 0
BITMAP
3C
7E
E7
E7
76
7C
7E
C7
C3
E7
FF
3C
ENDCHAR
STARTCHAR 0039
ENCODING 57
SWIDTH 514 0
DWIDTH 10 0
BBX 8 12 1 0
BITMAP
3C
FE
E7
C7
C7
FF
7B
07
07
4E
FE
78
ENDCHAR
STARTCHAR 003A
ENCODING 58
SWIDTH 308 0
DWIDTH 6 0
BBX 4 10 1 0
BITMAP
60
E0
F0
60
00
00
60
E0
F0
60
ENDCHAR
STARTCHAR 003B
ENCODING 59
SWIDTH 308 0
DWIDTH 6 0
BBX 4 14 1 -4
BITMAP
60
E0
F0
60
00
00
00
60
F0
70
30
60
E0
80
ENDCHAR
STARTCHAR 003C
ENCODING 60
SWIDTH 514 0
DWIDTH 10 0
BBX 8 9 1 2
BITMAP
01
07
3F
F8
C0
F8
3F
07
01
ENDCHAR
STARTCHAR 003D
ENCODING 61
SWIDTH 514 0
DWIDTH 10 0
BBX 8 6 1 3
BITMAP
FF
FF
00
00
FF
FF
ENDCHAR
STARTCHAR 003E
ENCODING 62
SWIDTH 514 0
DWIDTH 10 0
BBX 8 9 1 2
BITMAP
80
E0
FC
1F
03
1F
FC
E0
80
ENDCHAR
STARTCHAR 003F
ENCODING 63
SWIDTH 462 0
DWIDTH 9 0
BBX 7 13 1 0
BITMAP
7C
FE
4E
0E
0E
1C
38
30
00
30
38
78
30
ENDCHAR
STARTCHAR 0040
ENCODING 64
SWIDTH 874 0
DWIDTH 17 0
BBX 15 16 1 -3
BITMAP
03E0
0FF8
3C1C
300C
63E6
E7E6
CEE6
CC66
CCC6
CCC6
CFFC
C778
6000
7840
3FE0
0FC0
ENDCHAR
STARTCHAR 0041
ENCODING 65
SWIDTH 565 0
DWIDTH 11 0
BBX 11 12 0 0
BITMAP
0E00
1F00
1B00
1B00
3B80
3380
3180
7FC0
7FC0
61C0
E0E0
E0E0
ENDCHAR
STARTCHAR 0042
ENCODING 66
SWIDTH 617 0
DWIDTH 12 0
BBX 10 12 1 0
BITMAP
FF00
FF80
E380
E180
E380
FF00
FF80
E1C0
E1C0
E1C0
FF80
FF00
ENDCHAR
STARTCHAR 0043
ENCODING 67
SWIDTH 565 0
DWIDTH 11 0
BBX 10 12 1 0
BITMAP
1F00
3F80
7100
E000
E000
E000
E000
E000
E000
7180
3FC0
1F00
ENDCHAR
STARTCHAR 0044
ENCODING 68
SWIDTH 617 0
DWIDTH 12 0
BBX 10 12 1 0
BITMAP
FE00
FF80
E380
E1C0
E1C0
E1C0
E1C0
E1C0
E1C0
E380
FF80
FE00
ENDCHAR
STARTCHAR 0045
ENCODING 69
SWIDTH 514 0
DWIDTH 10 0
BBX 8 12 1 0
BITMAP
FF
FF
E0
E0
E0
FE
FE
E0
E0
E0
FF
FF
ENDCHAR
STARTCHAR 0046
ENCODING 70
SWIDTH 514 0
DWIDTH 10 0
BBX 8 12 1 0
BITMAP
FF
FF
E0
E0
E0
FF
FF
E0
E0
E0
E0
E0
ENDCHAR
STARTCHAR 0047
ENCODING 71
SWIDTH 617 0
DWIDTH 12 0
BBX 10 12 1 0
BITMAP
1F00
3FC0
7080
E000
E000
E7C0
E7C0
E0C0
E0C0
70C0
3FC0
1F80
ENDCHAR
STARTCHAR 0048
ENCODING 72
SWIDTH 668 0
DWIDTH 13 0
BBX 10 12 1 0
BITMAP
E0C0
E0C0
E0C0
E0C0
E0C0
FFC0
FFC0
E0C0
E0C0
E0C0
E0C0
E0C0
ENDCHAR
STARTCHAR 0049
ENCODING 73
SWIDTH 308 0
DWIDTH 6 0
BBX 3 12 1 0
BITMAP
E0
E0
E0
E0
E0
E0
E0
E0
E0
E0
E0
E0
ENDCHAR
STARTCHAR 004A
ENCODING 74
SWIDTH 514 0
DWIDTH 10 0
BBX 8 12 0 0
BITMAP
07
07
07
07
07
07
07
07
07
67
FF
3C
ENDCHAR
STARTCHAR 004B
ENCODING 75
SWIDTH 617 0
DWIDTH 12 0
BBX 11 12 1 0
BITMAP
E1C0
E380
E700
EE00
EE00
FE00
FE00
F700
E380
E380
E1C0
E1E0
ENDCHAR
STARTCHAR 004C
ENCODING 76
SWIDTH 514 0
DWIDTH 10 0
BBX 8 12 1 0
BITMAP
E0
E0
E0
E0
E0
E0
E0
E0
E0
E0
FF
FF
ENDCHAR
STARTCHAR 004D
ENCODING 77
SWIDTH 720 0
DWIDTH 14 0
BBX 12 12 1 0
BITMAP
F070
F0F0
F0F0
F8F0
F9B0
FDB0
EDB0
EF70
EF70
E770
E670
E070
ENDCHAR
STARTCHAR 004E
ENCODING 78
SWIDTH 668 0
DWIDTH 13 0
BBX 10 12 1 0
BITMAP
F0C0
F0C0
F8C0
F8C0
FCC0
ECC0
EEC0
E6C0
E7C0
E3C0
E3C0
E1C0
ENDCHAR
STARTCHAR 004F
ENCODING 79
SWIDTH 668 0
DWIDTH 13 0
BBX 11 12 1 0
BITMAP
1F00
7FC0
71C0
E0E0
E0E0
E0E0
E0E0
E0E0
E0E0
71C0
3F80
1F00
ENDCHAR
STARTCHAR 0050
ENCODING 80
SWIDTH 565 0
DWIDTH 11 0
BBX 10 12 1 0
BITMAP
FF00
FF80
E380
E1C0
E1C0
E380
FF80
FE00
E000
E000
E000
E000
ENDCHAR
STARTCHAR 0051
ENCODING 81
SWIDTH 668 0
DWIDTH 13 0
BBX 12 15 1 -3
BITMAP
1F00
7F80
71C0
E0E0
E0E0
E0E0
E0E0
E0E0
E0E0
71C0
7FC0
1F00
0700
07E0
01F0
ENDCHAR
STARTCHAR 0052
ENCODING 82
SWIDTH 617 0
DWIDTH 12 0
BBX 10 12 1 0
BITMAP
FF00
FF80
E3C0
E1C0
E1C0
E380
FF80
FF00
E700
E380
E380
E1C0
ENDCHAR
STARTCHAR 0053
ENCODING 83
SWIDTH 565 0
DWIDTH 11 0
BBX 9 12 1 0
BITMAP
3E00
7F80
E300
E000
F000
7E00
3F00
0780
0380
4380
FF00
7E00
ENDCHAR
STARTCHAR 0054
ENCODING 84
SWIDTH 565 0
DWIDTH 11 0
BBX 10 12 0 0
BITMAP
FFC0
FFC0
0E00
0E00
0E00
0E00
0E00
0E00
0E00
0E00
0E00
0E00
ENDCHAR
STARTCHAR 0055
ENCODING 85
SWIDTH 668 0
DWIDTH 13 0
BBX 10 12 1 0
BITMAP
E0C0
E0C0
E0C0
E0C0
E0C0
E0C0
E0C0
E0C0
61C0
71C0
3F80
1F00
ENDCHAR
STARTCHAR 0056
ENCODING 86
SWIDTH 565 0
DWIDTH 11 0
BBX 11 12 0 0
BITMAP
E0E0
E1C0
61C0
71C0
7180
3380
3B80
3B00
1B00
1F00
1E00
1E00
ENDCHAR
STARTCHAR 0057
ENCODING 87
SWIDTH 771 0
DWIDTH 15 0
BBX 15 12 0 0
BITMAP
E18E
638E
73CE
73CE
73CC
76CC
36EC
36FC
367C
3E78
3C78
3C78
ENDCHAR
STARTCHAR 0058
ENCODING 88
SWIDTH 565 0
DWIDTH 11 0
BBX 11 12 0 0
BITMAP
F1C0
71C0
3B80
3B00
1F00
1E00
1E00
1F00
3B80
3380
71C0
E1E0
ENDCHAR
STARTCHAR 0059
ENCODING 89
SWIDTH 514 0
DWIDTH 10 0
BBX 10 12 0 0
BITMAP
E1C0
6180
7380
3300
3F00
1E00
1E00
1E00
0C00
0C00
0C00
0C00
ENDCHAR
STARTCHAR 005A
ENCODING 90
SWIDTH 514 0
DWIDTH 10 0
BBX 9 12 1 0
BITMAP
FF80
FF00
0700
0E00
0C00
1C00
3800
3800
7000
6000
FF80
FF80
ENDCHAR
STARTCHAR 005B
ENCODING 91
SWIDTH 360 0
DWIDTH 7 0
BBX 4 17 2 -3
BITMAP
F0
F0
C0
C0
C0
C0
C0
C0
C0
C0
C0
C0
C0
C0
C0
F0
F0
ENDCHAR
STARTCHAR 005C
ENCODING 92
SWIDTH 308 0
DWIDTH 6 0
BBX 5 17 1 -3
BITMAP
80
C0
C0
C0
40
60
60
60
60
20
30
30
30
10
18
18
18
ENDCHAR
STARTCHAR 005D
ENCODING 93
SWIDTH 360 0
DWIDTH 7 0
BBX 4 17 1 -3
BITMAP
F0
F0
30
30
30
30
30
30
30
30
30
30
30
30
30
F0
F0
ENDCHAR
STARTCHAR 005E
ENCODING 94
SWIDTH 514 0
DWIDTH 10 0
BBX 8 8 1 4
BITMAP
18
3C
3C
3C
66
66
67
C3
ENDCHAR
STARTCHAR 005F
ENCODING 95
SWIDTH 514 0
DWIDTH 10 0
BBX 9 2 0 -3
BITMAP
FF80
FF80
ENDCHAR
STARTCHAR 0060
ENCODING 96
SWIDTH 565 0
DWIDTH 11 0
BBX 4 5 2 11
BITMAP
40
E0
F0
70
10
ENDCHAR
STARTCHAR 0061
ENCODING 97
SWIDTH 514 0
DWIDTH 10 0
BBX 8 9 1 0
BITMAP
7C
FE
47
3F
7F
E7
E7
FF
73
ENDCHAR
STARTCHAR 0062
ENCODING 98
SWIDTH 565 0
DWIDTH 11 0
BBX 9 14 1 0
BITMAP
E000
E000
E000
E000
E000
EE00
FF00
E380
E380
E380
E380
E380
FF00
EE00
ENDCHAR
STARTCHAR 0063
ENCODING 99
SWIDTH 462 0
DWIDTH 9 0
BBX 7 9 1 0
BITMAP
3E
7E
E4
E0
E0
E0
E4
7E
3E
ENDCHAR
STARTCHAR 0064
ENCODING 100
SWIDTH 565 0
DWIDTH 11 0
BBX 9 14 1 0
BITMAP
0380
0380
0380
0380
0380
3B80
7F80
E380
E380
E380
E380
E780
7F80
3B80
ENDCHAR
STARTCHAR 0065
ENCODING 101
SWIDTH 514 0
DWIDTH 10 0
BBX 8 9 1 0
BITMAP
3C
7E
E3
FF
FF
E0
E2
7F
3E
ENDCHAR
STARTCHAR 0066
ENCODING 102
SWIDTH 308 0
DWIDTH 6 0
BBX 7 14 0 0
BITMAP
1E
3E
38
38
38
FC
FC
38
38
38
38
38
38
38
ENDCHAR
STARTCHAR 0067
ENCODING 103
SWIDTH 514 0
DWIDTH 10 0
BBX 9 13 1 -4
BITMAP
7F80
FF80
E600
E700
7E00
7C00
C000
FF00
7F80
C380
C380
FF00
7C00
ENDCHAR
STARTCHAR 0068
ENCODING 104
SWIDTH 565 0
DWIDTH 11 0
BBX 9 14 1 0
BITMAP
E000
E000
E000
E000
E000
EF00
FF00
F380
E380
E380
E380
E380
E380
E380
ENDCHAR
STARTCHAR 0069
ENCODING 105
SWIDTH 257 0
DWIDTH 5 0
BBX 3 13 1 0
BITMAP
E0
E0
E0
00
E0
E0
E0
E0
E0
E0
E0
E0
E0
ENDCHAR
STARTCHAR 006A
ENCODING 106
SWIDTH 257 0
DWIDTH 5 0
BBX 5 17 -1 -4
BITMAP
38
38
38
00
38
38
38
38
38
38
38
38
38
38
38
F8
F0
ENDCHAR
STARTCHAR 006B
ENCODING 107
SWIDTH 514 0
DWIDTH 10 0
BBX 9 14 1 0
BITMAP
E000
E000
E000
E000
E000
E380
E700
EE00
FC00
FC00
FE00
E700
E700
E380
ENDCHAR
STARTCHAR 006C
ENCODING 108
SWIDTH 257 0
DWIDTH 5 0
BBX 4 14 1 0
BITMAP
E0
E0
E0
E0
E0
E0
E0
E0
E0
E0
E0
E0
F0
70
ENDCHAR
STARTCHAR 006D
ENCODING 109
SWIDTH 822 0
DWIDTH 16 0
BBX 14 9 1 0
BITMAP
EF78
FFFC
F39C
E39C
E39C
E39C
E39C
E39C
E39C
ENDCHAR
STARTCHAR 006E
ENCODING 110
SWIDTH 565 0
DWIDTH 11 0
BBX 9 9 1 0
BITMAP
EF00
FF00
F380
E380
E380
E380
E380
E380
E380
ENDCHAR
STARTCHAR 006F
ENCODING 111
SWIDTH 565 0
DWIDTH 11 0
BBX 9 9 1 0
BITMAP
3C00
7F00
E700
E380
E380
E380
E700
7F00
3C00
ENDCHAR
STARTCHAR 0070
ENCODING 112
SWIDTH 565 0
DWIDTH 11 0
BBX 9 13 1 -4
BITMAP
EE00
FF00
F380
E380
E380
E380
E380
FF00
FE00
E000
E000
E000
E000
ENDCHAR
STARTCHAR 0071
ENCODING 113
SWIDTH 565 0
DWIDTH 11 0
BBX 9 12 1 -3
BITMAP
3B80
7F80
E780
E380
E380
E380
E380
7F80
3B80
0380
0380
0380
ENDCHAR
STARTCHAR 0072
ENCODING 114
SWIDTH 411 0
DWIDTH 8 0
BBX 7 9 1 0
BITMAP
EE
FC
F0
E0
E0
E0
E0
E0
E0
ENDCHAR
STARTCHAR 0073
ENCODING 115
SWIDTH 411 0
DWIDTH 8 0
BBX 8 9 0 0
BITMAP
3E
7F
72
78
3E
0F
47
7F
BC
ENDCHAR
STARTCHAR 0074
ENCODING 116
SWIDTH 360 0
DWIDTH 7 0
BBX 7 12 0 0
BITMAP
30
30
30
FE
FE
30
30
30
30
38
3E
1E
ENDCHAR
STARTCHAR 0075
ENCODING 117
SWIDTH 565 0
DWIDTH 11 0
BBX 9 9 1 0
BITMAP
E380
E380
E380
E380
E380
E380
E780
7F80
7B80
ENDCHAR
STARTCHAR 0076
ENCODING 118
SWIDTH 514 0
DWIDTH 10 0
BBX 10 9 0 0
BITMAP
E1C0
6180
7380
7380
3300
3F00
1E00
1E00
1E00
ENDCHAR
STARTCHAR 0077
ENCODING 119
SWIDTH 771 0
DWIDTH 15 0
BBX 14 9 0 0
BITMAP
E38C
739C
739C
76D8
36D8
36D8
3EF8
3CF0
1C70
ENDCHAR
STARTCHAR 0078
ENCODING 120
SWIDTH 514 0
DWIDTH 10 0
BBX 10 9 0 0
BITMAP
F380
7300
3F00
1E00
1E00
3E00
3700
7380
E3C0
ENDCHAR
STARTCHAR 0079
ENCODING 121
SWIDTH 514 0
DWIDTH 10 0
BBX 10 13 0 -4
BITMAP
E1C0
7180
7380
3300
3B00
3F00
1E00
1E00
0E00
0C00
1C00
7800
7000
ENDCHAR
STARTCHAR 007A
ENCODING 122
SWIDTH 462 0
DWIDTH 9 0
BBX 7 9 1 0
BITMAP
FE
FE
1C
1C
38
70
70
FE
FE
ENDCHAR
STARTCHAR 007B
ENCODING 123
SWIDTH 360 0
DWIDTH 7 0
BBX 5 17 1 -3
BITMAP
38
78
60
60
60
60
60
60
E0
E0
60
60
60
60
60
78
38
ENDCHAR
STARTCHAR 007C
ENCODING 124
SWIDTH 257 0
DWIDTH 5 0
BBX 1 19 2 -5
BITMAP
80
80
80
80
80
80
80
80
80
80
80
80
80
80
80
80
80
80
80
ENDCHAR
STARTCHAR 007D
ENCODING 125
SWIDTH 360 0
DWIDTH 7 0
BBX 5 17 1 -3
BITMAP
E0
E0
60
70
60
60
60
70
38
38
70
60
60
60
70
E0
E0
ENDCHAR
STARTCHAR 007E
ENCODING 126
SWIDTH 514 0
DWIDTH 10 0
BBX 8 3 1 5
BITMAP
71
FF
8E
ENDCHAR
STARTCHAR 00A0
ENCODING 160
SWIDTH 205 0
DWIDTH 4 0
BBX 0 0 0 0
BITMAP
ENDCHAR
STARTCHAR 00A1
ENCODING 161
SWIDTH 308 0
DWIDTH 6 0
BBX 3 13 2 -4
BITMAP
C0
E0
E0
C0
00
C0
C0
C0
C0
C0
E0
E0
E0
ENDCHAR
STARTCHAR 00A2
ENCODING 162
SWIDTH 514 0
DWIDTH 10 0
BBX 8 13 1 -1
BITMAP
0C
0C
1F
7F
7C
EC
EC
EC
7C
7F
3F
0C
0C
ENDCHAR
STARTCHAR 00A3
ENCODING 163
SWIDTH 514 0
DWIDTH 10 0
BBX 8 12 1 0
BITMAP
1E
3F
72
70
70
FE
FE
30
30
70
7F
FF
ENDCHAR
STARTCHAR 00A4
ENCODING 164
SWIDTH 514 0
DWIDTH 10 0
BBX 10 10 0 1
BITMAP
4080
FFC0
7F80
7380
6180
6180
7380
7F80
FFC0
4080
ENDCHAR
STARTCHAR 00A5
ENCODING 165
SWIDTH 514 0
DWIDTH 10 0
BBX 10 12 0 0
BITMAP
E1C0
7380
7380
3300
3F00
1E00
7F80
0C00
7F80
0C00
0C00
0C00
ENDCHAR
STARTCHAR 00A6
ENCODING 166
SWIDTH 257 0
DWIDTH 5 0
BBX 1 19 2 -5
BITMAP
80
80
80
80
80
80
80
80
00
00
80
80
80
80
80
80
80
80
80
ENDCHAR
STARTCHAR 00A7
ENCODING 167
SWIDTH 514 0
DWIDTH 10 0
BBX 8 15 1 -2
BITMAP
3C
7E
62
70
7C
FE
C7
E3
F3
7F
3E
0E
46
FE
7C
ENDCHAR
STARTCHAR 00A8
ENCODING 168
SWIDTH 565 0
DWIDTH 11 0
BBX 7 3 2 11
BITMAP
CC
EE
CC
ENDCHAR
STARTCHAR 00A9
ENCODING 169
SWIDTH 720 0
DWIDTH 14 0
BBX 12 13 1 0
BITMAP
0F80
3FC0
7060
C030
CF10
9F90
9910
9910
DF90
CF30
7060
3FC0
0F80
ENDCHAR
STARTCHAR 00AA
ENCODING 170
SWIDTH 360 0
DWIDTH 7 0
BBX 5 7 1 7
BITMAP
70
F8
98
78
98
F8
F8
ENDCHAR
STARTCHAR 00AB
ENCODING 171
SWIDTH 462 0
DWIDTH 9 0
BBX 7 7 1 1
BITMAP
22
76
CC
88
CC
66
32
ENDCHAR
STARTCHAR 00AC
ENCODING 172
SWIDTH 514 0
DWIDTH 10 0
BBX 8 6 1 1
BITMAP
FF
FF
03
03
03
03
ENDCHAR
STARTCHAR 00AD
ENCODING 173
SWIDTH 308 0
DWIDTH 6 0
BBX 4 2 1 4
BITMAP
F0
F0
ENDCHAR
STARTCHAR 00AE
ENCODING 174
SWIDTH 462 0
DWIDTH 9 0
BBX 7 9 1 5
BITMAP
38
44
BA
AA
BA
AA
C6
7C
38
ENDCHAR
STARTCHAR 00AF
ENCODING 175
SWIDTH 565 0
DWIDTH 11 0
BBX 6 2 2 11
BITMAP
FC
FC
ENDCHAR
STARTCHAR 00B0
ENCODING 176
SWIDTH 360 0
DWIDTH 7 0
BBX 5 6 1 7
BITMAP
70
F8
88
88
F8
70
ENDCHAR
STARTCHAR 00B1
ENCODING 177
SWIDTH 514 0
DWIDTH 10 0
BBX 8 11 1 0
BITMAP
18
18
18
FF
FF
18
18
18
00
FF
FF
ENDCHAR
STARTCHAR 00B2
ENCODING 178
SWIDTH 360 0
DWIDTH 7 0
BBX 5 8 1 7
BITMAP
70
F8
98
18
10
30
F8
F8
ENDCHAR
STARTCHAR 00B3
ENCODING 179
SWIDTH 360 0
DWIDTH 7 0
BBX 5 8 1 7
BITMAP
70
F8
98
38
38
98
F8
70
ENDCHAR
STARTCHAR 00B4
ENCODING 180
SWIDTH 565 0
DWIDTH 11 0
BBX 5 5 4 11
BITMAP
10
38
70
E0
40
ENDCHAR
STARTCHAR 00B5
ENCODING 181
SWIDTH 565 0
DWIDTH 11 0
BBX 10 12 1 -3
BITMAP
E380
E380
E380
E300
E300
E300
E700
FFC0
F9C0
E000
E000
E000
ENDCHAR
STARTCHAR 00B6
ENCODING 182
SWIDTH 617 0
DWIDTH 12 0
BBX 9 14 1 -2
BITMAP
3B80
7B80
FB80
FB80
FB80
FB80
FB80
7B80
1B80
0380
0380
0380
0380
0380
ENDCHAR
STARTCHAR 00B7
ENCODING 183
SWIDTH 308 0
DWIDTH 6 0
BBX 4 4 1 5
BITMAP
60
E0
F0
60
ENDCHAR
STARTCHAR 00B8
ENCODING 184
SWIDTH 565 0
DWIDTH 11 0
BBX 4 5 3 -5
BITMAP
60
70
30
30
E0
ENDCHAR
STARTCHAR 00B9
ENCODING 185
SWIDTH 360 0
DWIDTH 7 0
BBX 4 7 1 7
BITMAP
30
F0
30
30
30
30
30
ENDCHAR
STARTCHAR 00BA
ENCODING 186
SWIDTH 360 0
DWIDTH 7 0
BBX 7 7 0 7
BITMAP
38
7C
6C
C6
6E
7C
38
ENDCHAR
STARTCHAR 00BB
ENCODING 187
SWIDTH 462 0
DWIDTH 9 0
BBX 7 7 1 1
BITMAP
C8
6C
76
32
76
6C
C8
ENDCHAR
STARTCHAR 00BC
ENCODING 188
SWIDTH 771 0
DWIDTH 15 0
BBX 14 13 1 0
BITMAP
0060
70C0
F0C0
3180
3100
3300
3238
3638
0478
0CD8
08FC
1818
1018
ENDCHAR
STARTCHAR 00BD
ENCODING 189
SWIDTH 822 0
DWIDTH 16 0
BBX 14 13 1 0
BITMAP
0060
70C0
F080
3180
3100
3338
327C
36CC
040C
0C18
0830
187C
307C
ENDCHAR
STARTCHAR 00BE
ENCODING 190
SWIDTH 822 0
DWIDTH 16 0
BBX 15 13 0 0
BITMAP
3830
7C20
4C60
1C40
1CC0
4C80
FD9C
3914
033C
026C
067E
040C
0C0C
ENDCHAR
STARTCHAR 00BF
ENCODING 191
SWIDTH 462 0
DWIDTH 9 0
BBX 7 12 1 -3
BITMAP
18
38
38
18
00
38
38
70
E0
E4
FE
7C
ENDCHAR
STARTCHAR 00C0
ENCODING 192
SWIDTH 565 0
DWIDTH 11 0
BBX 11 17 0 0
BITMAP
1000
3800
1E00
0400
0000
0E00
1F00
1B00
1B00
3B80
3380
3180
7FC0
7FC0
61C0
E0E0
E0E0
ENDCHAR
STARTCHAR 00C1
ENCODING 193
SWIDTH 565 0
DWIDTH 11 0
BBX 11 17 0 0
BITMAP
0100
0700
0F80
0400
0000
0E00
1F00
1B00
1B00
3B80
3380
3180
7FC0
7FC0
61C0
E0E0
E0E0
ENDCHAR
STARTCHAR 00C2
ENCODING 194
SWIDTH 565 0
DWIDTH 11 0
BBX 11 16 0 0
BITMAP
1E00
1B00
3180
0000
0E00
1F00
1B00
1B00
3B80
3380
3180
7FC0
7FC0
61C0
E0E0
E0E0
ENDCHAR
STARTCHAR 00C3
ENCODING 195
SWIDTH 565 0
DWIDTH 11 0
BBX 11 16 0 0
BITMAP
1980
3F80
3700
0000
0E00
1F00
1B00
1B00
3B80
3380
3180
7FC0
7FC0
61C0
E0E0
E0E0
ENDCHAR
STARTCHAR 00C4
ENCODING 196
SWIDTH 565 0
DWIDTH 11 0
BBX 11 16 0 0
BITMAP
3380
3B80
3380
0000
0E00
1F00
1B00
1B00
3B80
3380
3180
7FC0
7FC0
61C0
E0E0
E0E0
ENDCHAR
STARTCHAR 00C5
ENCODING 197
SWIDTH 565 0
DWIDTH 11 0
BBX 11 17 0 0
BITMAP
0E00
1A00
1B00
0E00
0000
0E00
1F00
1B00
1B00
3B80
3380
3180
7FC0
7FC0
61C0
E0E0
E0E0
ENDCHAR
STARTCHAR 00C6
ENCODING 198
SWIDTH 822 0
DWIDTH 16 0
BBX 15 12 0 0
BITMAP
07FE
07FE
0FC0
0FC0
1DC0
1DFC
39FC
3FC0
7FC0
71C0
E1FE
E1FE
ENDCHAR
STARTCHAR 00C7
ENCODING 199
SWIDTH 565 0
DWIDTH 11 0
BBX 10 17 1 -5
BITMAP
1F00
3F80
7100
E000
E000
E000
E000
E000
E000
7180
3FC0
1F00
0400
0E00
0600
0600
0C00
ENDCHAR
STARTCHAR 00C8
ENCODING 200
SWIDTH 514 0
DWIDTH 10 0
BBX 8 17 1 0
BITMAP
20
78
3C
08
00
FF
FF
E0
E0
E0
FE
FE
E0
E0
E0
FF
FF
ENDCHAR
STARTCHAR 00C9
ENCODING 201
SWIDTH 514 0
DWIDTH 10 0
BBX 8 17 1 0
BITMAP
02
0F
1E
08
00
FF
FF
E0
E0
E0
FE
FE
E0
E0
E0
FF
FF
ENDCHAR
STARTCHAR 00CA
ENCODING 202
SWIDTH 514 0
DWIDTH 10 0
BBX 8 16 1 0
BITMAP
1C
36
63
00
FF
FF
E0
E0
E0
FE
FE
E0
E0
E0
FF
FF
ENDCHAR
STARTCHAR 00CB
ENCODING 203
SWIDTH 514 0
DWIDTH 10 0
BBX 8 16 1 0
BITMAP
63
77
63
00
FF
FF
E0
E0
E0
FE
FE
E0
E0
E0
FF
FF
ENDCHAR
STARTCHAR 00CC
ENCODING 204
SWIDTH 308 0
DWIDTH 6 0
BBX 4 17 0 0
BITMAP
40
E0
70
20
00
70
70
70
70
70
70
70
70
70
70
70
70
ENDCHAR
STARTCHAR 00CD
ENCODING 205
SWIDTH 308 0
DWIDTH 6 0
BBX 5 17 1 0
BITMAP
10
38
70
C0
00
E0
E0
E0
E0
E0
E0
E0
E0
E0
E0
E0
E0
ENDCHAR
STARTCHAR 00CE
ENCODING 206
SWIDTH 308 0
DWIDTH 6 0
BBX 6 16 0 0
BITMAP
78
FC
8C
00
70
70
70
70
70
70
70
70
70
70
70
70
ENDCHAR
STARTCHAR 00CF
ENCODING 207
SWIDTH 308 0
DWIDTH 6 0
BBX 7 16 -1 0
BITMAP
66
E6
66
00
38
38
38
38
38
38
38
38
38
38
38
38
ENDCHAR
STARTCHAR 00D0
ENCODING 208
SWIDTH 668 0
DWIDTH 13 0
BBX 12 12 0 0
BITMAP
3F00
3FC0
39E0
38E0
FE70
FE70
3870
3870
38E0
39E0
3FC0
3F00
ENDCHAR
STARTCHAR 00D1
ENCODING 209
SWIDTH 668 0
DWIDTH 13 0
BBX 10 16 1 0
BITMAP
3980
3F80
2700
0000
F0C0
F0C0
F8C0
F8C0
FCC0
ECC0
EEC0
E6C0
E7C0
E3C0
E3C0
E1C0
ENDCHAR
STARTCHAR 00D2
ENCODING 210
SWIDTH 668 0
DWIDTH 13 0
BBX 11 17 1 0
BITMAP
1000
3C00
1E00
0400
0000
1F00
7FC0
71C0
E0E0
E0E0
E0E0
E0E0
E0E0
E0E0
71C0
3F80
1F00
ENDCHAR
STARTCHAR 00D3
ENCODING 211
SWIDTH 668 0
DWIDTH 13 0
BBX 11 17 1 0
BITMAP
0100
0780
0F00
0400
0000
1F00
7FC0
71C0
E0E0
E0E0
E0E0
E0E0
E0E0
E0E0
71C0
3F80
1F00
ENDCHAR
STARTCHAR 00D4
ENCODING 212
SWIDTH 668 0
DWIDTH 13 0
BBX 11 16 1 0
BITMAP
0E00
1B00
3180
0000
1F00
7FC0
71C0
E0E0
E0E0
E0E0
E0E0
E0E0
E0E0
71C0
3F80
1F00
ENDCHAR
STARTCHAR 00D5
ENCODING 213
SWIDTH 668 0
DWIDTH 13 0
BBX 11 16 1 0
BITMAP
1D80
3F80
3700
0000
1F00
7FC0
71C0
E0E0
E0E0
E0E0
E0E0
E0E0
E0E0
71C0
3F80
1F00
ENDCHAR
STARTCHAR 00D6
ENCODING 214
SWIDTH 668 0
DWIDTH 13 0
BBX 11 16 1 0
BITMAP
3180
3B80
3180
0000
1F00
7FC0
71C0
E0E0
E0E0
E0E0
E0E0
E0E0
E0E0
71C0
3F80
1F00
ENDCHAR
STARTCHAR 00D7
ENCODING 215
SWIDTH 514 0
DWIDTH 10 0
BBX 8 8 1 2
BITMAP
42
E7
7E
3C
3C
7E
E7
42
ENDCHAR
STARTCHAR 00D8
ENCODING 216
SWIDTH 668 0
DWIDTH 13 0
BBX 12 14 1 -1
BITMAP
0040
1F70
3FE0
71C0
E1E0
E3E0
E6E0
ECE0
E8E0
F8E0
71C0
7F80
DF00
8000
ENDCHAR
STARTCHAR 00D9
ENCODING 217
SWIDTH 668 0
DWIDTH 13 0
BBX 10 17 1 0
BITMAP
1000
3800
1E00
0400
0000
E0C0
E0C0
E0C0
E0C0
E0C0
E0C0
E0C0
E0C0
61C0
71C0
3F80
1F00
ENDCHAR
STARTCHAR 00DA
ENCODING 218
SWIDTH 668 0
DWIDTH 13 0
BBX 10 17 1 0
BITMAP
0100
0700
0E80
0400
0000
E0C0
E0C0
E0C0
E0C0
E0C0
E0C0
E0C0
E0C0
61C0
71C0
3F80
1F00
ENDCHAR
STARTCHAR 00DB
ENCODING 219
SWIDTH 668 0
DWIDTH 13 0
BBX 10 16 1 0
BITMAP
1E00
1B00
3180
0000
E0C0
E0C0
E0C0
E0C0
E0C0
E0C0
E0C0
E0C0
61C0
71C0
3F80
1F00
ENDCHAR
STARTCHAR 00DC
ENCODING 220
SWIDTH 668 0
DWIDTH 13 0
BBX 10 16 1 0
BITMAP
3300
3B80
3300
0000
E0C0
E0C0
E0C0
E0C0
E0C0
E0C0
E0C0
E0C0
61C0
71C0
3F80
1F00
ENDCHAR
STARTCHAR 00DD
ENCODING 221
SWIDTH 514 0
DWIDTH 10 0
BBX 10 17 0 0
BITMAP
0200
0700
0E00
0C00
0000
E1C0
6180
7380
3300
3F00
1E00
1E00
1E00
0C00
0C00
0C00
0C00
ENDCHAR
STARTCHAR 00DE
ENCODING 222
SWIDTH 617 0
DWIDTH 12 0
BBX 10 12 1 0
BITMAP
E000
E000
FF00
FF80
E1C0
E1C0
E1C0
E3C0
FF80
FF00
E000
E000
ENDCHAR
STARTCHAR 00DF
ENCODING 223
SWIDTH 617 0
DWIDTH 12 0
BBX 11 14 1 0
BITMAP
3E00
7F00
7380
E380
E300
E700
E600
E700
E780
E3C0
E0C0
E8E0
EFC0
E780
ENDCHAR
STARTCHAR 00E0
ENCODING 224
SWIDTH 514 0
DWIDTH 10 0
BBX 8 16 1 0
BITMAP
20
70
78
38
18
00
00
7C
FE
47
3F
7F
E7
E7
FF
73
ENDCHAR
STARTCHAR 00E1
ENCODING 225
SWIDTH 514 0
DWIDTH 10 0
BBX 8 16 1 0
BITMAP
04
06
0F
1C
08
00
00
7C
FE
47
3F
7F
E7
E7
FF
73
ENDCHAR
STARTCHAR 00E2
ENCODING 226
SWIDTH 514 0
DWIDTH 10 0
BBX 8 14 1 0
BITMAP
3C
7E
63
00
00
7C
FE
47
3F
7F
E7
E7
FF
73
ENDCHAR
STARTCHAR 00E3
ENCODING 227
SWIDTH 514 0
DWIDTH 10 0
BBX 8 14 1 0
BITMAP
73
7F
4E
00
00
7C
FE
47
3F
7F
E7
E7
FF
73
ENDCHAR
STARTCHAR 00E4
ENCODING 228
SWIDTH 514 0
DWIDTH 10 0
BBX 8 14 1 0
BITMAP
66
77
66
00
00
7C
FE
47
3F
7F
E7
E7
FF
73
ENDCHAR
STARTCHAR 00E5
ENCODING 229
SWIDTH 514 0
DWIDTH 10 0
BBX 8 15 1 0
BITMAP
3C
26
26
3C
00
00
7C
FE
47
3F
7F
E7
E7
FF
73
ENDCHAR
STARTCHAR 00E6
ENCODING 230
SWIDTH 771 0
DWIDTH 15 0
BBX 13 9 1 0
BITMAP
3CF0
FFF8
4718
3FF8
7FF8
E700
E710
FFF8
79F0
ENDCHAR
STARTCHAR 00E7
ENCODING 231
SWIDTH 462 0
DWIDTH 9 0
BBX 7 14 1 -5
BITMAP
3E
7E
E4
E0
E0
E0
E4
7E
3E
18
1C
0C
0C
38
ENDCHAR
STARTCHAR 00E8
ENCODING 232
SWIDTH 514 0
DWIDTH 10 0
BBX 8 16 1 0
BITMAP
20
70
F0
38
10
00
00
3C
7E
E3
FF
FF
E0
E2
7F
3E
ENDCHAR
STARTCHAR 00E9
ENCODING 233
SWIDTH 514 0
DWIDTH 10 0
BBX 8 16 1 0
BITMAP
04
06
0F
1C
08
00
00
3C
7E
E3
FF
FF
E0
E2
7F
3E
ENDCHAR
STARTCHAR 00EA
ENCODING 234
SWIDTH 514 0
DWIDTH 10 0
BBX 8 14 1 0
BITMAP
3C
7E
63
00
00
3C
7E
E3
FF
FF
E0
E2
7F
3E
ENDCHAR
STARTCHAR 00EB
ENCODING 235
SWIDTH 514 0
DWIDTH 10 0
BBX 8 14 1 0
BITMAP
66
67
66
00
00
3C
7E
E3
FF
FF
E0
E2
7F
3E
ENDCHAR
STARTCHAR 00EC
ENCODING 236
SWIDTH 257 0
DWIDTH 5 0
BBX 5 16 -1 0
BITMAP
40
E0
70
38
10
00
00
38
38
38
38
38
38
38
38
38
ENDCHAR
STARTCHAR 00ED
ENCODING 237
SWIDTH 257 0
DWIDTH 5 0
BBX 5 16 1 0
BITMAP
10
38
78
60
C0
00
00
E0
E0
E0
E0
E0
E0
E0
E0
E0
ENDCHAR
STARTCHAR 00EE
ENCODING 238
SWIDTH 257 0
DWIDTH 5 0
BBX 7 14 -1 0
BITMAP
3C
7C
C6
00
00
38
38
38
38
38
38
38
38
38
ENDCHAR
STARTCHAR 00EF
ENCODING 239
SWIDTH 257 0
DWIDTH 5 0
BBX 7 14 -1 0
BITMAP
66
EE
66
00
00
38
38
38
38
38
38
38
38
38
ENDCHAR
STARTCHAR 00F0
ENCODING 240
SWIDTH 565 0
DWIDTH 11 0
BBX 9 14 1 0
BITMAP
2100
7F00
1E00
3C00
7E00
4700
1700
7F00
F780
C380
C380
E300
7F00
3C00
ENDCHAR
STARTCHAR 00F1
ENCODING 241
SWIDTH 565 0
DWIDTH 11 0
BBX 9 14 1 0
BITMAP
3900
7F00
6F00
0000
0000
EF00
FF00
F380
E380
E380
E380
E380
E380
E380
ENDCHAR
STARTCHAR 00F2
ENCODING 242
SWIDTH 565 0
DWIDTH 11 0
BBX 9 16 1 0
BITMAP
2000
7000
7800
3800
0800
0000
0000
3C00
7F00
E700
E380
E380
E380
E700
7F00
3C00
ENDCHAR
STARTCHAR 00F3
ENCODING 243
SWIDTH 565 0
DWIDTH 11 0
BBX 9 16 1 0
BITMAP
0200
0600
0F00
1C00
0800
0000
0000
3C00
7F00
E700
E380
E380
E380
E700
7F00
3C00
ENDCHAR
STARTCHAR 00F4
ENCODING 244
SWIDTH 565 0
DWIDTH 11 0
BBX 9 14 1 0
BITMAP
3C00
7E00
6300
0000
0000
3C00
7F00
E700
E380
E380
E380
E700
7F00
3C00
ENDCHAR
STARTCHAR 00F5
ENCODING 245
SWIDTH 565 0
DWIDTH 11 0
BBX 9 14 1 0
BITMAP
3300
7F00
4E00
0000
0000
3C00
7F00
E700
E380
E380
E380
E700
7F00
3C00
ENDCHAR
STARTCHAR 00F6
ENCODING 246
SWIDTH 565 0
DWIDTH 11 0
BBX 9 14 1 0
BITMAP
6600
7700
6600
0000
0000
3C00
7F00
E700
E380
E380
E380
E700
7F00
3C00
ENDCHAR
STARTCHAR 00F7
ENCODING 247
SWIDTH 514 0
DWIDTH 10 0
BBX 8 10 1 1
BITMAP
18
3C
18
00
FF
FF
00
18
3C
18
ENDCHAR
STARTCHAR 00F8
ENCODING 248
SWIDTH 565 0
DWIDTH 11 0
BBX 9 9 1 0
BITMAP
3D80
7F00
E700
CF80
DB80
F380
E300
7F00
FC00
ENDCHAR
STARTCHAR 00F9
ENCODING 249
SWIDTH 565 0
DWIDTH 11 0
BBX 9 16 1 0
BITMAP
2000
7000
7800
1C00
0800
0000
0000
E380
E380
E380
E380
E380
E380
E780
7F80
7B80
ENDCHAR
STARTCHAR 00FA
ENCODING 250
SWIDTH 565 0
DWIDTH 11 0
BBX 9 16 1 0
BITMAP
0200
0700
0E00
1C00
0800
0000
0000
E380
E380
E380
E380
E380
E380
E780
7F80
7B80
ENDCHAR
STARTCHAR 00FB
ENCODING 251
SWIDTH 565 0
DWIDTH 11 0
BBX 9 14 1 0
BITMAP
1C00
3E00
6300
0000
0000
E380
E380
E380
E380
E380
E380
E780
7F80
7B80
ENDCHAR
STARTCHAR 00FC
ENCODING 252
SWIDTH 565 0
DWIDTH 11 0
BBX 9 14 1 0
BITMAP
6700
7700
6700
0000
0000
E380
E380
E380
E380
E380
E380
E780
7F80
7B80
ENDCHAR
STARTCHAR 00FD
ENCODING 253
SWIDTH 514 0
DWIDTH 10 0
BBX 10 20 0 -4
BITMAP
0200
0300
0780
0E00
0400
0000
0000
E1C0
7180
7380
3300
3B00
3F00
1E00
1E00
0E00
0C00
1C00
7800
7000
ENDCHAR
STARTCHAR 00FE
ENCODING 254
SWIDTH 565 0
DWIDTH 11 0
BBX 9 18 1 -4
BITMAP
E000
E000
E000
E000
E000
FE00
FF00
E380
E380
E380
E380
E380
FF00
FE00
E000
E000
E000
E000
ENDCHAR
STARTCHAR 00FF
ENCODING 255
SWIDTH 514 0
DWIDTH 10 0
BBX 10 18 0 -4
BITMAP
3300
3300
3300
0000
0000
E1C0
7180
7380
3300
3B00
3F00
1E00
1E00
0E00
0C00
1C00
7800
7000
ENDCHAR
STARTCHAR 0100
ENCODING 256
SWIDTH 565 0
DWIDTH 11 0
BBX 11 16 0 0
BITMAP
3F00
3F00
0000
0000
0E00
1F00
1B00
1B00
3B80
3380
3180
7FC0
7FC0
61C0
E0E0
E0E0
ENDCHAR
STARTCHAR 0101
ENCODING 257
SWIDTH 514 0
DWIDTH 10 0
BBX 8 13 1 0
BITMAP
7E
7E
00
00
7C
FE
47
3F
7F
E7
E7
FF
73
ENDCHAR
STARTCHAR 0102
ENCODING 258
SWIDTH 565 0
DWIDTH 11 0
BBX 11 16 0 0
BITMAP
3100
1F00
1E00
0000
0E00
1F00
1B00
1B00
3B80
3380
3180
7FC0
7FC0
61C0
E0E0
E0E0
ENDCHAR
STARTCHAR 0103
ENCODING 259
SWIDTH 514 0
DWIDTH 10 0
BBX 8 14 1 0
BITMAP
66
7E
3C
00
00
7C
FE
47
3F
7F
E7
E7
FF
73
ENDCHAR
STARTCHAR 0104
ENCODING 260
SWIDTH 565 0
DWIDTH 11 0
BBX 11 16 0 -4
BITMAP
0E00
1F00
1B00
1B00
3B80
3380
3180
7FC0
7FC0
61C0
E0E0
E0E0
00C0
0180
01E0
00E0
ENDCHAR
STARTCHAR 0105
ENCODING 261
SWIDTH 514 0
DWIDTH 10 0
BBX 8 13 1 -4
BITMAP
7C
FE
47
3F
7F
E7
E7
FF
73
06
0C
0F
07
ENDCHAR
STARTCHAR 0106
ENCODING 262
SWIDTH 565 0
DWIDTH 11 0
BBX 10 17 1 0
BITMAP
0100
0780
0F00
0400
0000
1F00
3F80
7100
E000
E000
E000
E000
E000
E000
7180
3FC0
1F00
ENDCHAR
STARTCHAR 0107
ENCODING 263
SWIDTH 462 0
DWIDTH 9 0
BBX 8 16 1 0
BITMAP
02
07
0E
1C
08
00
00
3E
7E
E4
E0
E0
E0
E4
7E
3E
ENDCHAR
STARTCHAR 0108
ENCODING 264
SWIDTH 565 0
DWIDTH 11 0
BBX 10 16 1 0
BITMAP
0E00
1B00
3180
0000
1F00
3F80
7100
E000
E000
E000
E000
E000
E000
7180
3FC0
1F00
ENDCHAR
STARTCHAR 0109
ENCODING 265
SWIDTH 462 0
DWIDTH 9 0
BBX 8 14 1 0
BITMAP
1C
36
63
00
00
3E
7E
E4
E0
E0
E0
E4
7E
3E
ENDCHAR
STARTCHAR 010A
ENCODING 266
SWIDTH 565 0
DWIDTH 11 0
BBX 10 16 1 0
BITMAP
0E00
0E00
0E00
0000
1F00
3F80
7100
E000
E000
E000
E000
E000
E000
7180
3FC0
1F00
ENDCHAR
STARTCHAR 010B
ENCODING 267
SWIDTH 462 0
DWIDTH 9 0
BBX 7 14 1 0
BITMAP
1C
1C
1C
00
00
3E
7E
E4
E0
E0
E0
E4
7E
3E
ENDCHAR
STARTCHAR 010C
ENCODING 268
SWIDTH 565 0
DWIDTH 11 0
BBX 10 16 1 0
BITMAP
1100
3B80
0E00
0000
1F00
3F80
7100
E000
E000
E000
E000
E000
E000
7180
3FC0
1F00
ENDCHAR
STARTCHAR 010D
ENCODING 269
SWIDTH 462 0
DWIDTH 9 0
BBX 8 14 1 0
BITMAP
63
36
1C
00
00
3E
7E
E4
E0
E0
E0
E4
7E
3E
ENDCHAR
STARTCHAR 010E
ENCODING 270
SWIDTH 617 0
DWIDTH 12 0
BBX 10 16 1 0
BITMAP
3300
3F00
1E00
0000
FE00
FF80
E380
E1C0
E1C0
E1C0
E1C0
E1C0
E1C0
E380
FF80
FE00
ENDCHAR
STARTCHAR 010F
ENCODING 271
SWIDTH 617 0
DWIDTH 12 0
BBX 11 15 1 0
BITMAP
0060
03E0
03E0
03E0
0380
0380
3B80
7F80
E380
E380
E380
E380
E780
7F80
3B80
ENDCHAR
STARTCHAR 0110
ENCODING 272
SWIDTH 668 0
DWIDTH 13 0
BBX 12 12 0 0
BITMAP
3F00
3FC0
39E0
38E0
FE70
FE70
3870
3870
38E0
39E0
3FC0
3F00
ENDCHAR
STARTCHAR 0111
ENCODING 273
SWIDTH 565 0
DWIDTH 11 0
BBX 10 14 1 0
BITMAP
0380
1FC0
1FC0
0380
0380
3B80
7F80
E780
E380
E380
E380
E780
7F80
3B80
ENDCHAR
STARTCHAR 0112
ENCODING 274
SWIDTH 514 0
DWIDTH 10 0
BBX 8 16 1 0
BITMAP
3E
3E
00
00
FF
FF
E0
E0
E0
FE
FE
E0
E0
E0
FF
FF
ENDCHAR
STARTCHAR 0113
ENCODING 275
SWIDTH 514 0
DWIDTH 10 0
BBX 8 13 1 0
BITMAP
7E
7E
00
00
3C
7E
E3
FF
FF
E0
E2
7F
3E
ENDCHAR
STARTCHAR 0114
ENCODING 276
SWIDTH 514 0
DWIDTH 10 0
BBX 8 16 1 0
BITMAP
63
3E
1C
00
FF
FF
E0
E0
E0
FE
FE
E0
E0
E0
FF
FF
ENDCHAR
STARTCHAR 0115
ENCODING 277
SWIDTH 514 0
DWIDTH 10 0
BBX 8 14 1 0
BITMAP
66
7E
3C
00
00
3C
7E
E3
FF
FF
E0
E2
7F
3E
ENDCHAR
STARTCHAR 0116
ENCODING 278
SWIDTH 514 0
DWIDTH 10 0
BBX 8 16 1 0
BITMAP
1C
1C
1C
00
FF
FF
E0
E0
E0
FE
FE
E0
E0
E0
FF
FF
ENDCHAR
STARTCHAR 0117
ENCODING 279
SWIDTH 514 0
DWIDTH 10 0
BBX 8 14 1 0
BITMAP
18
1C
18
00
00
3C
7E
E3
FF
FF
E0
E2
7F
3E
ENDCHAR
STARTCHAR 0118
ENCODING 280
SWIDTH 514 0
DWIDTH 10 0
BBX 9 16 1 -4
BITMAP
FF00
FF00
E000
E000
E000
FE00
FE00
E000
E000
E000
FF00
FF00
0600
0600
0700
0780
ENDCHAR
STARTCHAR 0119
ENCODING 281
SWIDTH 514 0
DWIDTH 10 0
BBX 8 13 1 -4
BITMAP
3C
7E
E3
FF
FF
E0
E2
7F
3E
0C
0C
0F
0E
ENDCHAR
STARTCHAR 011A
ENCODING 282
SWIDTH 514 0
DWIDTH 10 0
BBX 8 16 1 0
BITMAP
22
77
1C
00
FF
FF
E0
E0
E0
FE
FE
E0
E0
E0
FF
FF
ENDCHAR
STARTCHAR 011B
ENCODING 283
SWIDTH 514 0
DWIDTH 10 0
BBX 8 14 1 0
BITMAP
62
7F
3C
00
00
3C
7E
E3
FF
FF
E0
E2
7F
3E
ENDCHAR
STARTCHAR 011C
ENCODING 284
SWIDTH 617 0
DWIDTH 12 0
BBX 10 16 1 0
BITMAP
0F00
1F80
1980
0000
1F00
3FC0
7080
E000
E000
E7C0
E7C0
E0C0
E0C0
70C0
3FC0
1F80
ENDCHAR
STARTCHAR 011D
ENCODING 285
SWIDTH 514 0
DWIDTH 10 0
BBX 9 18 1 -4
BITMAP
3C00
7E00
6300
0000
0000
7F80
FF80
E600
E700
7E00
7C00
C000
FF00
7F80
C380
C380
FF00
7C00
ENDCHAR
STARTCHAR 011E
ENCODING 286
SWIDTH 617 0
DWIDTH 12 0
BBX 10 16 1 0
BITMAP
1980
1F80
0F00
0000
1F00
3FC0
7080
E000
E000
E7C0
E7C0
E0C0
E0C0
70C0
3FC0
1F80
ENDCHAR
STARTCHAR 011F
ENCODING 287
SWIDTH 514 0
DWIDTH 10 0
BBX 9 18 1 -4
BITMAP
6300
7E00
3C00
0000
0000
7F80
FF80
E600
E700
7E00
7C00
C000
FF00
7F80
C380
C380
FF00
7C00
ENDCHAR
STARTCHAR 0120
ENCODING 288
SWIDTH 617 0
DWIDTH 12 0
BBX 10 16 1 0
BITMAP
0600
0F00
0600
0000
1F00
3FC0
7080
E000
E000
E7C0
E7C0
E0C0
E0C0
70C0
3FC0
1F80
ENDCHAR
STARTCHAR 0121
ENCODING 289
SWIDTH 514 0
DWIDTH 10 0
BBX 9 18 1 -4
BITMAP
1800
1C00
1800
0000
0000
7F80
FF80
E600
E700
7E00
7C00
C000
FF00
7F80
C380
C380
FF00
7C00
ENDCHAR
STARTCHAR 0122
ENCODING 290
SWIDTH 617 0
DWIDTH 12 0
BBX 10 16 1 -4
BITMAP
1F00
3FC0
7080
E000
E000
E7C0
E7C0
E0C0
E0C0
70C0
3FC0
1F80
0000
0600
0B00
0E00
ENDCHAR
STARTCHAR 0123
ENCODING 291
SWIDTH 514 0
DWIDTH 10 0
BBX 9 18 1 -4
BITMAP
1C00
3000
1C00
0000
0000
7F80
FF80
E600
E700
7E00
7C00
C000
FF00
7F80
C380
C380
FF00
7C00
ENDCHAR
STARTCHAR 0124
ENCODING 292
SWIDTH 668 0
DWIDTH 13 0
BBX 10 16 1 0
BITMAP
1E00
1B00
3180
0000
E0C0
E0C0
E0C0
E0C0
E0C0
FFC0
FFC0
E0C0
E0C0
E0C0
E0C0
E0C0
ENDCHAR
STARTCHAR 0125
ENCODING 293
SWIDTH 565 0
DWIDTH 11 0
BBX 11 17 -1 0
BITMAP
3800
6C00
C600
3800
3800
3800
3800
3800
3BC0
3FC0
3CE0
38E0
38E0
38E0
38E0
38E0
38E0
ENDCHAR
STARTCHAR 0126
ENCODING 294
SWIDTH 720 0
DWIDTH 14 0
BBX 13 12 0 0
BITMAP
3870
FFF8
FFF8
3870
3870
3FF0
3FF0
3870
3870
3870
3870
3870
ENDCHAR
STARTCHAR 0127
ENCODING 295
SWIDTH 565 0
DWIDTH 11 0
BBX 10 14 0 0
BITMAP
7000
FE00
FE00
7000
7000
7780
7F80
79C0
71C0
71C0
71C0
71C0
71C0
71C0
ENDCHAR
STARTCHAR 0128
ENCODING 296
SWIDTH 308 0
DWIDTH 6 0
BBX 8 16 -1 0
BITMAP
73
FE
CE
00
38
38
38
38
38
38
38
38
38
38
38
38
ENDCHAR
STARTCHAR 0129
ENCODING 297
SWIDTH 257 0
DWIDTH 5 0
BBX 7 14 -1 0
BITMAP
76
FE
DE
00
00
38
38
38
38
38
38
38
38
38
ENDCHAR
STARTCHAR 012A
ENCODING 298
SWIDTH 308 0
DWIDTH 6 0
BBX 6 16 0 0
BITMAP
FC
FC
00
00
70
70
70
70
70
70
70
70
70
70
70
70
ENDCHAR
STARTCHAR 012B
ENCODING 299
SWIDTH 257 0
DWIDTH 5 0
BBX 5 13 0 0
BITMAP
F8
F8
00
00
70
70
70
70
70
70
70
70
70
ENDCHAR
STARTCHAR 012C
ENCODING 300
SWIDTH 308 0
DWIDTH 6 0
BBX 6 16 0 0
BITMAP
CC
FC
78
00
70
70
70
70
70
70
70
70
70
70
70
70
ENDCHAR
STARTCHAR 012D
ENCODING 301
SWIDTH 257 0
DWIDTH 5 0
BBX 7 14 -1 0
BITMAP
C6
7C
3C
00
00
38
38
38
38
38
38
38
38
38
ENDCHAR
STARTCHAR 012E
ENCODING 302
SWIDTH 308 0
DWIDTH 6 0
BBX 4 16 1 -4
BITMAP
E0
E0
E0
E0
E0
E0
E0
E0
E0
E0
E0
E0
40
C0
F0
F0
ENDCHAR
STARTCHAR 012F
ENCODING 303
SWIDTH 257 0
DWIDTH 5 0
BBX 4 17 1 -4
BITMAP
E0
E0
E0
00
E0
E0
E0
E0
E0
E0
E0
E0
E0
C0
C0
E0
F0
ENDCHAR
STARTCHAR 0130
ENCODING 304
SWIDTH 308 0
DWIDTH 6 0
BBX 3 16 1 0
BITMAP
60
E0
60
00
E0
E0
E0
E0
E0
E0
E0
E0
E0
E0
E0
E0
ENDCHAR
STARTCHAR 0131
ENCODING 305
SWIDTH 257 0
DWIDTH 5 0
BBX 3 9 1 0
BITMAP
E0
E0
E0
E0
E0
E0
E0
E0
E0
ENDCHAR
STARTCHAR 0132
ENCODING 306
SWIDTH 565 0
DWIDTH 11 0
BBX 9 15 1 -3
BITMAP
E380
E380
E380
E380
E380
E380
E380
E380
E380
E380
E380
E380
0380
0F80
0F00
ENDCHAR
STARTCHAR 0133
ENCODING 307
SWIDTH 565 0
DWIDTH 11 0
BBX 9 17 1 -4
BITMAP
E700
E780
4300
0000
E700
E700
E700
E700
E700
E700
E700
E700
E700
0700
0700
0F00
1E00
ENDCHAR
STARTCHAR 0134
ENCODING 308
SWIDTH 514 0
DWIDTH 10 0
BBX 10 16 0 0
BITMAP
0780
0FC0
08C0
0000
0700
0700
0700
0700
0700
0700
0700
0700
0700
6700
FF00
3C00
ENDCHAR
STARTCHAR 0135
ENCODING 309
SWIDTH 257 0
DWIDTH 5 0
BBX 7 18 -1 -4
BITMAP
3C
7E
C6
00
00
38
38
38
38
38
38
38
38
38
38
38
F8
F0
ENDCHAR
STARTCHAR 0136
ENCODING 310
SWIDTH 617 0
DWIDTH 12 0
BBX 11 16 1 -4
BITMAP
E1C0
E380
E700
EE00
EE00
FE00
FE00
F700
E380
E380
E1C0
E1C0
0020
0E00
0600
1C00
ENDCHAR
STARTCHAR 0137
ENCODING 311
SWIDTH 514 0
DWIDTH 10 0
BBX 9 18 1 -4
BITMAP
E000
E000
E000
E000
E000
E380
E700
EE00
FC00
FC00
FE00
E700
E700
E380
0000
1C00
0C00
3C00
ENDCHAR
STARTCHAR 0138
ENCODING 312
SWIDTH 514 0
DWIDTH 10 0
BBX 9 9 1 0
BITMAP
E380
E700
EE00
FC00
FC00
FE00
E700
E700
E380
ENDCHAR
STARTCHAR 0139
ENCODING 313
SWIDTH 514 0
DWIDTH 10 0
BBX 8 17 1 0
BITMAP
10
38
70
E0
00
E0
E0
E0
E0
E0
E0
E0
E0
E0
E0
FF
FF
ENDCHAR
STARTCHAR 013A
ENCODING 314
SWIDTH 257 0
DWIDTH 5 0
BBX 5 18 1 0
BITMAP
10
38
F0
40
E0
E0
E0
E0
E0
E0
E0
E0
E0
E0
E0
E0
F0
70
ENDCHAR
STARTCHAR 013B
ENCODING 315
SWIDTH 514 0
DWIDTH 10 0
BBX 8 16 1 -4
BITMAP
E0
E0
E0
E0
E0
E0
E0
E0
E0
E0
FF
FF
00
1C
0C
38
ENDCHAR
STARTCHAR 013C
ENCODING 316
SWIDTH 257 0
DWIDTH 5 0
BBX 4 18 1 -4
BITMAP
E0
E0
E0
E0
E0
E0
E0
E0
E0
E0
E0
E0
F0
70
00
70
30
F0
ENDCHAR
STARTCHAR 013D
ENCODING 317
SWIDTH 514 0
DWIDTH 10 0
BBX 8 14 1 0
BITMAP
02
02
E2
E2
E0
E0
E0
E0
E0
E0
E0
E0
FF
FF
ENDCHAR
STARTCHAR 013E
ENCODING 318
SWIDTH 308 0
DWIDTH 6 0
BBX 6 15 1 0
BITMAP
0C
E8
E8
E8
E0
E0
E0
E0
E0
E0
E0
E0
E0
F0
70
ENDCHAR
STARTCHAR 013F
ENCODING 319
SWIDTH 514 0
DWIDTH 10 0
BBX 8 12 1 0
BITMAP
E0
E0
E0
E3
E7
E7
E3
E0
E0
E0
FF
FF
ENDCHAR
STARTCHAR 0140
ENCODING 320
SWIDTH 462 0
DWIDTH 9 0
BBX 8 14 1 0
BITMAP
E0
E0
E0
E0
E0
E6
EF
EF
E6
E0
E0
E0
F0
70
ENDCHAR
STARTCHAR 0141
ENCODING 321
SWIDTH 514 0
DWIDTH 10 0
BBX 9 12 0 0
BITMAP
3000
3000
3000
3100
3700
3E00
7800
F000
B000
3000
3F80
3F80
ENDCHAR
STARTCHAR 0142
ENCODING 322
SWIDTH 308 0
DWIDTH 6 0
BBX 6 14 0 0
BITMAP
70
70
70
70
70
78
7C
F0
F0
70
70
70
38
38
ENDCHAR
STARTCHAR 0143
ENCODING 323
SWIDTH 668 0
DWIDTH 13 0
BBX 10 17 1 0
BITMAP
0100
0700
0E80
0400
0000
F0C0
F0C0
F8C0
F8C0
FCC0
ECC0
EEC0
E6C0
E7C0
E3C0
E3C0
E1C0
ENDCHAR
STARTCHAR 0144
ENCODING 324
SWIDTH 565 0
DWIDTH 11 0
BBX 9 16 1 0
BITMAP
0200
0700
0700
0E00
0400
0000
0000
EF00
FF00
F380
E380
E380
E380
E380
E380
E380
ENDCHAR
STARTCHAR 0145
ENCODING 325
SWIDTH 668 0
DWIDTH 13 0
BBX 10 16 1 -4
BITMAP
F0C0
F0C0
F8C0
F8C0
FCC0
ECC0
EEC0
E6C0
E7C0
E3C0
E3C0
E1C0
0000
0E00
0600
1C00
ENDCHAR
STARTCHAR 0146
ENCODING 326
SWIDTH 565 0
DWIDTH 11 0
BBX 9 13 1 -4
BITMAP
EF00
FF00
F380
E380
E380
E380
E380
E380
E380
0000
1C00
0C00
3C00
ENDCHAR
STARTCHAR 0147
ENCODING 327
SWIDTH 668 0
DWIDTH 13 0
BBX 10 16 1 0
BITMAP
1100
3B80
1E00
0000
F0C0
F0C0
F8C0
F8C0
FCC0
ECC0
EEC0
E6C0
E7C0
E3C0
E3C0
E1C0
ENDCHAR
STARTCHAR 0148
ENCODING 328
SWIDTH 565 0
DWIDTH 11 0
BBX 9 14 1 0
BITMAP
2300
7F00
1E00
0000
0000
EF00
FF00
F380
E380
E380
E380
E380
E380
E380
ENDCHAR
STARTCHAR 0149
ENCODING 329
SWIDTH 822 0
DWIDTH 16 0
BBX 14 13 1 0
BITMAP
6000
F000
3000
2000
E378
83FC
039C
031C
031C
031C
031C
031C
031C
ENDCHAR
STARTCHAR 014A
ENCODING 330
SWIDTH 668 0
DWIDTH 13 0
BBX 11 12 1 0
BITMAP
EF80
FFC0
F1C0
E0E0
E0E0
E0E0
E0E0
E0E0
E0E0
E1C0
E3C0
E780
ENDCHAR
STARTCHAR 014B
ENCODING 331
SWIDTH 565 0
DWIDTH 11 0
BBX 9 12 1 -3
BITMAP
EF00
FF00
F380
E380
E380
E380
E380
E380
E380
0380
0F00
0E00
ENDCHAR
STARTCHAR 014C
ENCODING 332
SWIDTH 668 0
DWIDTH 13 0
BBX 11 16 1 0
BITMAP
1F00
1F00
0000
0000
1F00
7FC0
71C0
E0E0
E0E0
E0E0
E0E0
E0E0
E0E0
71C0
3F80
1F00
ENDCHAR
STARTCHAR 014D
ENCODING 333
SWIDTH 565 0
DWIDTH 11 0
BBX 9 13 1 0
BITMAP
7E00
7E00
0000
0000
3C00
7F00
E700
E380
E380
E380
E700
7F00
3C00
ENDCHAR
STARTCHAR 014E
ENCODING 334
SWIDTH 668 0
DWIDTH 13 0
BBX 11 16 1 0
BITMAP
3180
1F00
0E00
0000
1F00
7FC0
71C0
E0E0
E0E0
E0E0
E0E0
E0E0
E0E0
71C0
3F80
1F00
ENDCHAR
STARTCHAR 014F
ENCODING 335
SWIDTH 565 0
DWIDTH 11 0
BBX 9 14 1 0
BITMAP
6200
7E00
3C00
0000
0000
3C00
7F00
E700
E380
E380
E380
E700
7F00
3C00
ENDCHAR
STARTCHAR 0150
ENCODING 336
SWIDTH 668 0
DWIDTH 13 0
BBX 11 17 1 0
BITMAP
0480
0EC0
1980
1B00
0000
1F00
7FC0
71C0
E0E0
E0E0
E0E0
E0E0
E0E0
E0E0
71C0
3F80
1F00
ENDCHAR
STARTCHAR 0151
ENCODING 337
SWIDTH 565 0
DWIDTH 11 0
BBX 9 15 1 0
BITMAP
1900
1B80
3300
3600
0000
0000
3C00
7F00
E700
E380
E380
E380
E700
7F00
3C00
ENDCHAR
STARTCHAR 0152
ENCODING 338
SWIDTH 874 0
DWIDTH 17 0
BBX 15 12 1 0
BITMAP
1FFC
3FFC
71C0
E1C0
E1C0
E1FC
E1FC
E1C0
E1C0
71C0
3FFE
1FFE
ENDCHAR
STARTCHAR 0153
ENCODING 339
SWIDTH 822 0
DWIDTH 16 0
BBX 14 9 1 0
BITMAP
3CF0
7FF8
E79C
E3FC
E3FC
E300
E788
7FF8
3CFC
ENDCHAR
STARTCHAR 0154
ENCODING 340
SWIDTH 617 0
DWIDTH 12 0
BBX 10 17 1 0
BITMAP
0200
0700
0E00
1800
0000
FF00
FF80
E3C0
E1C0
E1C0
E380
FF80
FF00
E700
E380
E380
E1C0
ENDCHAR
STARTCHAR 0155
ENCODING 341
SWIDTH 411 0
DWIDTH 8 0
BBX 7 16 1 0
BITMAP
04
0E
1E
1C
10
00
00
EE
FC
F0
E0
E0
E0
E0
E0
E0
ENDCHAR
STARTCHAR 0156
ENCODING 342
SWIDTH 617 0
DWIDTH 12 0
BBX 10 16 1 -4
BITMAP
FF00
FF80
E3C0
E1C0
E1C0
E380
FF80
FF00
E700
E380
E380
E1C0
0000
0E00
0600
1C00
ENDCHAR
STARTCHAR 0157
ENCODING 343
SWIDTH 411 0
DWIDTH 8 0
BBX 8 13 0 -4
BITMAP
77
7E
78
70
70
70
70
70
70
00
70
30
F0
ENDCHAR
STARTCHAR 0158
ENCODING 344
SWIDTH 617 0
DWIDTH 12 0
BBX 10 16 1 0
BITMAP
2300
3F00
1E00
0000
FF00
FF80
E3C0
E1C0
E1C0
E380
FF80
FF00
E700
E380
E380
E1C0
ENDCHAR
STARTCHAR 0159
ENCODING 345
SWIDTH 411 0
DWIDTH 8 0
BBX 7 14 1 0
BITMAP
46
FE
3C
00
00
EE
FC
F0
E0
E0
E0
E0
E0
E0
ENDCHAR
STARTCHAR 015A
ENCODING 346
SWIDTH 565 0
DWIDTH 11 0
BBX 9 17 1 0
BITMAP
0200
0F00
1E00
0800
0000
3E00
7F80
E300
E000
F000
7E00
3F00
0780
0380
4380
FF00
7E00
ENDCHAR
STARTCHAR 015B
ENCODING 347
SWIDTH 411 0
DWIDTH 8 0
BBX 8 16 0 0
BITMAP
02
07
0E
1C
08
00
00
3E
7F
72
78
3E
0F
47
7F
BC
ENDCHAR
STARTCHAR 015C
ENCODING 348
SWIDTH 565 0
DWIDTH 11 0
BBX 9 16 1 0
BITMAP
1C00
3600
6300
0000
3E00
7F80
E300
E000
F000
7E00
3F00
0780
0380
4380
FF00
7E00
ENDCHAR
STARTCHAR 015D
ENCODING 349
SWIDTH 411 0
DWIDTH 8 0
BBX 8 14 0 0
BITMAP
1C
36
63
00
00
3E
7F
72
78
3E
0F
47
7F
BC
ENDCHAR
STARTCHAR 015E
ENCODING 350
SWIDTH 565 0
DWIDTH 11 0
BBX 9 17 1 -5
BITMAP
3E00
7F80
E300
E000
F000
7E00
3F00
0780
0380
4380
FF00
7E00
1800
1C00
0C00
0C00
3800
ENDCHAR
STARTCHAR 015F
ENCODING 351
SWIDTH 411 0
DWIDTH 8 0
BBX 8 14 0 -5
BITMAP
3E
7F
72
78
3E
0F
47
7F
BC
18
1C
0C
0C
38
ENDCHAR
STARTCHAR 0160
ENCODING 352
SWIDTH 565 0
DWIDTH 11 0
BBX 9 16 1 0
BITMAP
2200
7700
1C00
0000
3E00
7F80
E300
E000
F000
7E00
3F00
0780
0380
4380
FF00
7E00
ENDCHAR
STARTCHAR 0161
ENCODING 353
SWIDTH 411 0
DWIDTH 8 0
BBX 8 14 0 0
BITMAP
63
36
1C
00
00
3E
7F
72
78
3E
0F
47
7F
BC
ENDCHAR
STARTCHAR 0162
ENCODING 354
SWIDTH 565 0
DWIDTH 11 0
BBX 10 17 0 -5
BITMAP
FFC0
FFC0
0E00
0E00
0E00
0E00
0E00
0E00
0E00
0E00
0E00
0E00
0C00
0E00
0600
0600
1C00
ENDCHAR
STARTCHAR 0163
ENCODING 355
SWIDTH 360 0
DWIDTH 7 0
BBX 7 17 0 -5
BITMAP
30
30
30
FE
FE
30
30
30
30
38
3E
1E
08
1C
0C
0C
38
ENDCHAR
STARTCHAR 0164
ENCODING 356
SWIDTH 565 0
DWIDTH 11 0
BBX 10 16 0 0
BITMAP
1100
3B80
1E00
0000
FFC0
FFC0
0E00
0E00
0E00
0E00
0E00
0E00
0E00
0E00
0E00
0E00
ENDCHAR
STARTCHAR 0165
ENCODING 357
SWIDTH 360 0
DWIDTH 7 0
BBX 7 15 0 0
BITMAP
06
06
06
36
30
30
FE
FE
30
30
30
30
38
3E
1E
ENDCHAR
STARTCHAR 0166
ENCODING 358
SWIDTH 565 0
DWIDTH 11 0
BBX 10 12 0 0
BITMAP
FFC0
FFC0
0E00
0E00
0E00
3F80
3F80
0E00
0E00
0E00
0E00
0E00
ENDCHAR
STARTCHAR 0167
ENCODING 359
SWIDTH 360 0
DWIDTH 7 0
BBX 7 12 0 0
BITMAP
30
30
30
FE
FE
30
FE
FE
30
38
3E
1E
ENDCHAR
STARTCHAR 0168
ENCODING 360
SWIDTH 668 0
DWIDTH 13 0
BBX 10 16 1 0
BITMAP
3980
3F80
2700
0000
E0C0
E0C0
E0C0
E0C0
E0C0
E0C0
E0C0
E0C0
61C0
71C0
3F80
1F00
ENDCHAR
STARTCHAR 0169
ENCODING 361
SWIDTH 565 0
DWIDTH 11 0
BBX 9 14 1 0
BITMAP
3300
7F00
6E00
0000
0000
E380
E380
E380
E380
E380
E380
E780
7F80
7B80
ENDCHAR
STARTCHAR 016A
ENCODING 362
SWIDTH 668 0
DWIDTH 13 0
BBX 10 16 1 0
BITMAP
3F00
3F00
0000
0000
E0C0
E0C0
E0C0
E0C0
E0C0
E0C0
E0C0
E0C0
61C0
71C0
3F80
1F00
ENDCHAR
STARTCHAR 016B
ENCODING 363
SWIDTH 565 0
DWIDTH 11 0
BBX 9 13 1 0
BITMAP
3E00
3E00
0000
0000
E380
E380
E380
E380
E380
E380
E780
7F80
7B80
ENDCHAR
STARTCHAR 016C
ENCODING 364
SWIDTH 668 0
DWIDTH 13 0
BBX 10 16 1 0
BITMAP
3100
1F00
1E00
0000
E0C0
E0C0
E0C0
E0C0
E0C0
E0C0
E0C0
E0C0
61C0
71C0
3F80
1F00
ENDCHAR
STARTCHAR 016D
ENCODING 365
SWIDTH 565 0
DWIDTH 11 0
BBX 9 14 1 0
BITMAP
6300
3E00
3C00
0000
0000
E380
E380
E380
E380
E380
E380
E780
7F80
7B80
ENDCHAR
STARTCHAR 016E
ENCODING 366
SWIDTH 668 0
DWIDTH 13 0
BBX 10 17 1 0
BITMAP
0E00
1A00
1A00
0E00
0000
E0C0
E0C0
E0C0
E0C0
E0C0
E0C0
E0C0
E0C0
61C0
71C0
3F80
1F00
ENDCHAR
STARTCHAR 016F
ENCODING 367
SWIDTH 565 0
DWIDTH 11 0
BBX 9 15 1 0
BITMAP
1C00
3600
3600
1C00
0000
0000
E380
E380
E380
E380
E380
E380
E780
7F80
7B80
ENDCHAR
STARTCHAR 0170
ENCODING 368
SWIDTH 668 0
DWIDTH 13 0
BBX 10 17 1 0
BITMAP
0C80
0DC0
1980
1B00
0000
E0C0
E0C0
E0C0
E0C0
E0C0
E0C0
E0C0
E0C0
61C0
71C0
3F80
1F00
ENDCHAR
STARTCHAR 0171
ENCODING 369
SWIDTH 565 0
DWIDTH 11 0
BBX 9 15 1 0
BITMAP
1900
1F80
3300
3600
0000
0000
E380
E380
E380
E380
E380
E380
E780
7F80
7B80
ENDCHAR
STARTCHAR 0172
ENCODING 370
SWIDTH 668 0
DWIDTH 13 0
BBX 10 16 1 -4
BITMAP
E0C0
E0C0
E0C0
E0C0
E0C0
E0C0
E0C0
E0C0
61C0
71C0
3F80
1F00
0C00
0C00
0E00
0F00
ENDCHAR
STARTCHAR 0173
ENCODING 371
SWIDTH 565 0
DWIDTH 11 0
BBX 9 13 1 -4
BITMAP
E380
E380
E380
E380
E380
E380
E780
7F80
7B80
0200
0600
0780
0380
ENDCHAR
STARTCHAR 0174
ENCODING 372
SWIDTH 771 0
DWIDTH 15 0
BBX 15 16 0 0
BITMAP
03C0
06C0
0C60
0000
E18E
638E
73CE
73CE
73CC
76CC
36EC
36FC
367C
3E78
3C78
3C78
ENDCHAR
STARTCHAR 0175
ENCODING 373
SWIDTH 771 0
DWIDTH 15 0
BBX 14 14 0 0
BITMAP
0780
07C0
0C60
0000
0000
E38C
739C
739C
76D8
36D8
36D8
3EF8
3CF0
1C70
ENDCHAR
STARTCHAR 0176
ENCODING 374
SWIDTH 514 0
DWIDTH 10 0
BBX 10 16 0 0
BITMAP
1E00
3F00
3300
0000
E1C0
6180
7380
3300
3F00
1E00
1E00
1E00
0C00
0C00
0C00
0C00
ENDCHAR
STARTCHAR 0177
ENCODING 375
SWIDTH 514 0
DWIDTH 10 0
BBX 10 18 0 -4
BITMAP
1E00
3F00
2180
0000
0000
E1C0
7180
7380
3300
3B00
3F00
1E00
1E00
0E00
0C00
1C00
7800
7000
ENDCHAR
STARTCHAR 0178
ENCODING 376
SWIDTH 514 0
DWIDTH 10 0
BBX 10 16 0 0
BITMAP
3300
3300
3300
0000
E1C0
6180
7380
3300
3F00
1E00
1E00
1E00
0C00
0C00
0C00
0C00
ENDCHAR
STARTCHAR 0179
ENCODING 377
SWIDTH 514 0
DWIDTH 10 0
BBX 9 17 1 0
BITMAP
0200
0E00
1F00
0800
0000
FF80
FF00
0700
0E00
0C00
1C00
3800
3800
7000
6000
FF80
FF80
ENDCHAR
STARTCHAR 017A
ENCODING 378
SWIDTH 462 0
DWIDTH 9 0
BBX 7 16 1 0
BITMAP
04
0E
1E
1C
30
00
00
FE
FE
1C
1C
38
70
70
FE
FE
ENDCHAR
STARTCHAR 017B
ENCODING 379
SWIDTH 514 0
DWIDTH 10 0
BBX 9 16 1 0
BITMAP
1C00
1C00
1C00
0000
FF80
FF00
0700
0E00
0C00
1C00
3800
3800
7000
6000
FF80
FF80
ENDCHAR
STARTCHAR 017C
ENCODING 380
SWIDTH 462 0
DWIDTH 9 0
BBX 7 14 1 0
BITMAP
38
38
38
00
00
FE
FE
1C
1C
38
70
70
FE
FE
ENDCHAR
STARTCHAR 017D
ENCODING 381
SWIDTH 514 0
DWIDTH 10 0
BBX 9 16 1 0
BITMAP
2200
7700
3C00
0000
FF80
FF00
0700
0E00
0C00
1C00
3800
3800
7000
6000
FF80
FF80
ENDCHAR
STARTCHAR 017E
ENCODING 382
SWIDTH 462 0
DWIDTH 9 0
BBX 7 14 1 0
BITMAP
46
FE
3C
00
00
FE
FE
1C
1C
38
70
70
FE
FE
ENDCHAR
STARTCHAR 0180
ENCODING 384
SWIDTH 565 0
DWIDTH 11 0
BBX 10 14 0 0
BITMAP
7000
FE00
FE00
7000
7000
7700
7F80
71C0
71C0
71C0
71C0
79C0
7F80
7700
ENDCHAR
STARTCHAR 018F
ENCODING 399
SWIDTH 668 0
DWIDTH 13 0
BBX 11 12 1 0
BITMAP
1F00
7F80
21C0
00E0
00E0
FFE0
FFE0
E0E0
E0E0
71C0
7F80
1F00
ENDCHAR
STARTCHAR 0192
ENCODING 402
SWIDTH 514 0
DWIDTH 10 0
BBX 8 14 1 -2
BITMAP
0F
1F
1C
1C
7E
7E
18
38
38
38
38
30
F0
E0
ENDCHAR
STARTCHAR 0193
ENCODING 403
SWIDTH 617 0
DWIDTH 12 0
BBX 11 15 1 0
BITMAP
00E0
01E0
0180
1F80
3FC0
7080
E000
E000
E7C0
E7C0
E0C0
E0C0
70C0
3FC0
1F80
ENDCHAR
STARTCHAR 01A0
ENCODING 416
SWIDTH 668 0
DWIDTH 13 0
BBX 12 15 1 0
BITMAP
0020
0070
0070
1FE0
7FC0
71C0
E0E0
E0E0
E0E0
E0E0
E0E0
E0E0
71C0
3F80
1F00
ENDCHAR
STARTCHAR 01A1
ENCODING 417
SWIDTH 565 0
DWIDTH 11 0
BBX 10 13 1 0
BITMAP
01C0
01C0
01C0
3F80
7F00
E700
E380
E380
E380
E380
E700
7F00
3C00
ENDCHAR
STARTCHAR 01AF
ENCODING 431
SWIDTH 668 0
DWIDTH 13 0
BBX 13 15 1 0
BITMAP
0038
0038
0038
E0F0
E0C0
E0C0
E0C0
E0C0
E0C0
E0C0
E0C0
61C0
71C0
3F80
1F00
ENDCHAR
STARTCHAR 01B0
ENCODING 432
SWIDTH 565 0
DWIDTH 11 0
BBX 11 13 1 0
BITMAP
0040
00C0
00E0
00C0
E380
E380
E380
E380
E380
E380
E780
7F80
7B80
ENDCHAR
STARTCHAR 01C2
ENCODING 450
SWIDTH 308 0
DWIDTH 6 0
BBX 6 20 0 -5
BITMAP
30
30
30
30
30
30
30
FC
FC
30
30
FC
FC
30
30
30
30
30
30
30
ENDCHAR
STARTCHAR 01CD
ENCODING 461
SWIDTH 565 0
DWIDTH 11 0
BBX 11 16 0 0
BITMAP
1100
3B80
1E00
0000
0E00
1F00
1B00
1B00
3B80
3380
3180
7FC0
7FC0
61C0
E0E0
E0E0
ENDCHAR
STARTCHAR 01CE
ENCODING 462
SWIDTH 514 0
DWIDTH 10 0
BBX 8 14 1 0
BITMAP
62
7F
3C
00
00
7C
FE
47
3F
7F
E7
E7
FF
73
ENDCHAR
STARTCHAR 01CF
ENCODING 463
SWIDTH 308 0
DWIDTH 6 0
BBX 6 16 0 0
BITMAP
8C
FC
78
00
70
70
70
70
70
70
70
70
70
70
70
70
ENDCHAR
STARTCHAR 01D0
ENCODING 464
SWIDTH 257 0
DWIDTH 5 0
BBX 7 14 -1 0
BITMAP
46
FC
3C
00
00
38
38
38
38
38
38
38
38
38
ENDCHAR
STARTCHAR 01D1
ENCODING 465
SWIDTH 668 0
DWIDTH 13 0
BBX 11 16 1 0
BITMAP
1100
3B80
0E00
0000
1F00
7FC0
71C0
E0E0
E0E0
E0E0
E0E0
E0E0
E0E0
71C0
3F80
1F00
ENDCHAR
STARTCHAR 01D2
ENCODING 466
SWIDTH 565 0
DWIDTH 11 0
BBX 9 14 1 0
BITMAP
6200
7F00
3C00
0000
0000
3C00
7F00
E700
E380
E380
E380
E700
7F00
3C00
ENDCHAR
STARTCHAR 01D3
ENCODING 467
SWIDTH 668 0
DWIDTH 13 0
BBX 10 16 1 0
BITMAP
1100
3B80
1E00
0000
E0C0
E0C0
E0C0
E0C0
E0C0
E0C0
E0C0
E0C0
61C0
71C0
3F80
1F00
ENDCHAR
STARTCHAR 01D4
ENCODING 468
SWIDTH 565 0
DWIDTH 11 0
BBX 9 14 1 0
BITMAP
6200
3F00
1C00
0000
0000
E380
E380
E380
E380
E380
E380
E780
7F80
7B80
ENDCHAR
STARTCHAR 01D5
ENCODING 469
SWIDTH 668 0
DWIDTH 13 0
BBX 10 17 1 0
BITMAP
3F00
0000
3300
3380
0000
E0C0
E0C0
E0C0
E0C0
E0C0
E0C0
E0C0
E0C0
61C0
71C0
3F80
1F00
ENDCHAR
STARTCHAR 01D6
ENCODING 470
SWIDTH 565 0
DWIDTH 11 0
BBX 9 15 1 0
BITMAP
3E00
0000
6700
7700
0000
0000
E380
E380
E380
E380
E380
E380
E780
7F80
7B80
ENDCHAR
STARTCHAR 01D7
ENCODING 471
SWIDTH 668 0
DWIDTH 13 0
BBX 10 19 1 0
BITMAP
0200
0700
0600
0C00
3300
3380
0000
E0C0
E0C0
E0C0
E0C0
E0C0
E0C0
E0C0
E0C0
61C0
71C0
3F80
1F00
ENDCHAR
STARTCHAR 01D8
ENCODING 472
SWIDTH 565 0
DWIDTH 11 0
BBX 9 17 1 0
BITMAP
0400
0C00
0800
1800
6700
7700
0000
0000
E380
E380
E380
E380
E380
E380
E780
7F80
7B80
ENDCHAR
STARTCHAR 01D9
ENCODING 473
SWIDTH 668 0
DWIDTH 13 0
BBX 10 19 1 0
BITMAP
1100
3B00
0E00
0000
3300
3380
0000
E0C0
E0C0
E0C0
E0C0
E0C0
E0C0
E0C0
E0C0
61C0
71C0
3F80
1F00
ENDCHAR
STARTCHAR 01DA
ENCODING 474
SWIDTH 565 0
DWIDTH 11 0
BBX 9 17 1 0
BITMAP
2200
3600
1C00
0000
6700
7700
0000
0000
E380
E380
E380
E380
E380
E380
E780
7F80
7B80
ENDCHAR
STARTCHAR 01DB
ENCODING 475
SWIDTH 668 0
DWIDTH 13 0
BBX 10 19 1 0
BITMAP
0800
1800
0C00
0400
3300
3380
0000
E0C0
E0C0
E0C0
E0C0
E0C0
E0C0
E0C0
E0C0
61C0
71C0
3F80
1F00
ENDCHAR
STARTCHAR 01DC
ENCODING 476
SWIDTH 565 0
DWIDTH 11 0
BBX 9 17 1 0
BITMAP
1000
3800
0800
0000
6700
7700
0000
0000
E380
E380
E380
E380
E380
E380
E780
7F80
7B80
ENDCHAR
STARTCHAR 01E2
ENCODING 482
SWIDTH 822 0
DWIDTH 16 0
BBX 15 16 0 0
BITMAP
01F8
01F8
0000
0000
07FE
07FE
0FC0
0FC0
1DC0
1DFC
39FC
3FC0
7FC0
71C0
E1FE
E1FE
ENDCHAR
STARTCHAR 01E3
ENCODING 483
SWIDTH 771 0
DWIDTH 15 0
BBX 13 13 1 0
BITMAP
0FC0
0FC0
0000
0000
3CF0
FFF8
4718
3FF8
7FF8
E700
E710
FFF8
79F0
ENDCHAR
STARTCHAR 01E6
ENCODING 486
SWIDTH 617 0
DWIDTH 12 0
BBX 10 16 1 0
BITMAP
1980
1F80
0F00
0000
1F00
3FC0
7080
E000
E000
E7C0
E7C0
E0C0
E0C0
70C0
3FC0
1F80
ENDCHAR
STARTCHAR 01E7
ENCODING 487
SWIDTH 514 0
DWIDTH 10 0
BBX 9 18 1 -4
BITMAP
6200
7F00
3C00
0000
0000
7F80
FF80
E600
E700
7E00
7C00
C000
FF00
7F80
C380
C380
FF00
7C00
ENDCHAR
STARTCHAR 01EA
ENCODING 490
SWIDTH 668 0
DWIDTH 13 0
BBX 11 16 1 -4
BITMAP
1F00
7FC0
71C0
E0E0
E0E0
E0E0
E0E0
E0E0
E0E0
71C0
7F80
1F00
0400
0C00
0F00
0F00
ENDCHAR
STARTCHAR 01EB
ENCODING 491
SWIDTH 565 0
DWIDTH 11 0
BBX 9 13 1 -4
BITMAP
3C00
7F00
E700
E380
E380
E380
E700
7F00
3C00
1800
1800
1C00
1E00
ENDCHAR
STARTCHAR 01F4
ENCODING 500
SWIDTH 617 0
DWIDTH 12 0
BBX 10 17 1 0
BITMAP
0100
0380
0700
0600
0000
1F00
3FC0
7080
E000
E000
E7C0
E7C0
E0C0
E0C0
70C0
3FC0
1F80
ENDCHAR
STARTCHAR 01F5
ENCODING 501
SWIDTH 514 0
DWIDTH 10 0
BBX 9 20 1 -4
BITMAP
0200
0700
0E00
1C00
0800
0000
0000
7F80
FF80
E600
E700
7E00
7C00
C000
FF00
7F80
C380
C380
FF00
7C00
ENDCHAR
STARTCHAR 01F8
ENCODING 504
SWIDTH 668 0
DWIDTH 13 0
BBX 10 17 1 0
BITMAP
1000
3800
1E00
0400
0000
F0C0
F0C0
F8C0
F8C0
FCC0
ECC0
EEC0
E6C0
E7C0
E3C0
E3C0
E1C0
ENDCHAR
STARTCHAR 01F9
ENCODING 505
SWIDTH 565 0
DWIDTH 11 0
BBX 9 16 1 0
BITMAP
1000
3000
7800
1C00
0800
0000
0000
EF00
FF00
F380
E380
E380
E380
E380
E380
E380
ENDCHAR
STARTCHAR 01FC
ENCODING 508
SWIDTH 822 0
DWIDTH 16 0
BBX 15 17 0 0
BITMAP
0010
0038
0070
0020
0000
07FE
07FE
0FC0
0FC0
1DC0
1DFC
39FC
3FC0
7FC0
71C0
E1FE
E1FE
ENDCHAR
STARTCHAR 01FD
ENCODING 509
SWIDTH 771 0
DWIDTH 15 0
BBX 13 16 1 0
BITMAP
0080
01C0
01C0
0380
0100
0000
0000
3CF0
FFF8
4718
3FF8
7FF8
E700
E710
FFF8
79F0
ENDCHAR
STARTCHAR 0218
ENCODING 536
SWIDTH 565 0
DWIDTH 11 0
BBX 9 16 1 -4
BITMAP
3E00
7F80
E300
E000
F000
7E00
3F00
0780
0380
4380
FF00
7E00
0000
1C00
0C00
3800
ENDCHAR
STARTCHAR 0219
ENCODING 537
SWIDTH 411 0
DWIDTH 8 0
BBX 8 13 0 -4
BITMAP
3E
7F
72
78
3E
0F
47
7F
BC
00
1C
0C
38
ENDCHAR
STARTCHAR 021A
ENCODING 538
SWIDTH 565 0
DWIDTH 11 0
BBX 10 16 0 -4
BITMAP
FFC0
FFC0
0E00
0E00
0E00
0E00
0E00
0E00
0E00
0E00
0E00
0E00
0000
0E00
0600
1C00
ENDCHAR
STARTCHAR 021B
ENCODING 539
SWIDTH 360 0
DWIDTH 7 0
BBX 7 16 0 -4
BITMAP
30
30
30
FE
FE
30
30
30
30
38
3E
1E
00
1C
0C
38
ENDCHAR
STARTCHAR 0237
ENCODING 567
SWIDTH 257 0
DWIDTH 5 0
BBX 5 13 -1 -4
BITMAP
38
38
38
38
38
38
38
38
38
38
38
F8
F0
ENDCHAR
STARTCHAR 0243
ENCODING 579
SWIDTH 617 0
DWIDTH 12 0
BBX 11 12 0 0
BITMAP
3F80
3FC0
38E0
38E0
3FC0
3FC0
38E0
FE60
FE60
38E0
3FE0
3F80
ENDCHAR
STARTCHAR 0250
ENCODING 592
SWIDTH 514 0
DWIDTH 10 0
BBX 8 9 1 0
BITMAP
CE
FF
F3
E7
FE
FC
E2
7F
3E
ENDCHAR
STARTCHAR 0251
ENCODING 593
SWIDTH 565 0
DWIDTH 11 0
BBX 9 9 1 0
BITMAP
3B80
7F80
E780
E380
E380
E380
E780
7F80
3B80
ENDCHAR
STARTCHAR 0252
ENCODING 594
SWIDTH 565 0
DWIDTH 11 0
BBX 9 9 1 0
BITMAP
EE00
FF00
F380
E380
E380
E380
E380
FF00
FE00
ENDCHAR
STARTCHAR 0253
ENCODING 595
SWIDTH 565 0
DWIDTH 11 0
BBX 9 14 1 0
BITMAP
3C00
7C00
E000
E000
E000
EE00
FF00
E380
E380
E380
E380
E380
FF00
FE00
ENDCHAR
STARTCHAR 0254
ENCODING 596
SWIDTH 462 0
DWIDTH 9 0
BBX 8 9 0 0
BITMAP
7C
7E
47
07
07
07
47
7E
FC
ENDCHAR
STARTCHAR 0255
ENCODING 597
SWIDTH 462 0
DWIDTH 9 0
BBX 9 10 0 -1
BITMAP
1F00
3F00
7200
7000
6F00
7F80
7980
7F00
7E00
E000
ENDCHAR
STARTCHAR 0256
ENCODING 598
SWIDTH 565 0
DWIDTH 11 0
BBX 11 17 1 -3
BITMAP
0380
0380
0380
0380
0380
3B80
7F80
E380
E380
E380
E380
E380
7F80
3B80
0380
03C0
01E0
ENDCHAR
STARTCHAR 0257
ENCODING 599
SWIDTH 565 0
DWIDTH 11 0
BBX 11 14 1 0
BITMAP
01E0
03C0
0380
0380
0380
3B80
7F80
E380
E380
E380
E380
E780
7F80
3B80
ENDCHAR
STARTCHAR 0258
ENCODING 600
SWIDTH 514 0
DWIDTH 10 0
BBX 8 9 1 0
BITMAP
3C
FE
C7
FF
FF
07
87
FE
7C
ENDCHAR
STARTCHAR 0259
ENCODING 601
SWIDTH 514 0
DWIDTH 10 0
BBX 8 9 1 0
BITMAP
7C
FE
87
07
FF
FF
C7
FE
3C
ENDCHAR
STARTCHAR 025A
ENCODING 602
SWIDTH 668 0
DWIDTH 13 0
BBX 13 9 1 0
BITMAP
7E40
FFE0
8FE0
3F70
FB38
C700
E700
7E00
3C00
ENDCHAR
STARTCHAR 025B
ENCODING 603
SWIDTH 462 0
DWIDTH 9 0
BBX 7 9 1 0
BITMAP
3E
FE
E4
7C
7C
E0
E4
FE
3E
ENDCHAR
STARTCHAR 025C
ENCODING 604
SWIDTH 462 0
DWIDTH 9 0
BBX 7 9 1 0
BITMAP
7C
FE
8E
7C
7E
0E
8E
FE
F8
ENDCHAR
STARTCHAR 025E
ENCODING 606
SWIDTH 565 0
DWIDTH 11 0
BBX 9 9 1 0
BITMAP
3E00
FF00
E380
7B80
7B80
E380
E380
FF00
3E00
ENDCHAR
STARTCHAR 025F
ENCODING 607
SWIDTH 308 0
DWIDTH 6 0
BBX 7 13 -1 -4
BITMAP
18
18
18
7E
7E
18
18
18
18
18
38
78
F0
ENDCHAR
STARTCHAR 0260
ENCODING 608
SWIDTH 565 0
DWIDTH 11 0
BBX 11 16 1 -4
BITMAP
01E0
03C0
0380
3B80
7F80
E380
E380
E380
E380
E380
7F80
3B80
0380
4780
7F00
FE00
ENDCHAR
STARTCHAR 0261
ENCODING 609
SWIDTH 565 0
DWIDTH 11 0
BBX 9 13 1 -4
BITMAP
3F80
7F80
E380
E380
E380
E380
E380
7F80
3B80
0380
4780
7F00
FE00
ENDCHAR
STARTCHAR 0262
ENCODING 610
SWIDTH 514 0
DWIDTH 10 0
BBX 8 9 1 0
BITMAP
3E
7F
E2
E0
EF
EF
E3
7F
3E
ENDCHAR
STARTCHAR 0263
ENCODING 611
SWIDTH 514 0
DWIDTH 10 0
BBX 10 13 0 -4
BITMAP
E1C0
7180
7380
3300
3300
3F00
1E00
1E00
1E00
3B00
3300
3F00
1E00
ENDCHAR
STARTCHAR 0264
ENCODING 612
SWIDTH 565 0
DWIDTH 11 0
BBX 11 9 0 0
BITMAP
F3E0
7FC0
1F00
1F00
3B80
3380
3380
3F80
1F00
ENDCHAR
STARTCHAR 0265
ENCODING 613
SWIDTH 565 0
DWIDTH 11 0
BBX 9 13 1 -4
BITMAP
E380
E380
E380
E380
E380
E380
E380
7F80
7F80
0380
0380
0380
0380
ENDCHAR
STARTCHAR 0266
ENCODING 614
SWIDTH 565 0
DWIDTH 11 0
BBX 9 14 1 0
BITMAP
3C00
7C00
E000
E000
E000
FF00
FF00
E380
E380
E380
E380
E380
E380
E380
ENDCHAR
STARTCHAR 0267
ENCODING 615
SWIDTH 565 0
DWIDTH 11 0
BBX 9 17 1 -3
BITMAP
3C00
7C00
E000
E000
E000
FF00
FF00
E380
E380
E380
E380
E380
E380
E380
0380
0F00
0E00
ENDCHAR
STARTCHAR 0268
ENCODING 616
SWIDTH 308 0
DWIDTH 6 0
BBX 6 13 0 0
BITMAP
30
78
30
00
30
30
30
FC
FC
30
30
30
30
ENDCHAR
STARTCHAR 026A
ENCODING 618
SWIDTH 411 0
DWIDTH 8 0
BBX 6 9 1 0
BITMAP
FC
FC
70
70
70
70
70
FC
FC
ENDCHAR
STARTCHAR 026C
ENCODING 620
SWIDTH 360 0
DWIDTH 7 0
BBX 7 14 0 0
BITMAP
1C
1C
1C
1C
1C
FC
9C
FE
1C
1C
1C
1C
1C
0E
ENDCHAR
STARTCHAR 026D
ENCODING 621
SWIDTH 257 0
DWIDTH 5 0
BBX 5 17 1 -3
BITMAP
E0
E0
E0
E0
E0
E0
E0
E0
E0
E0
E0
E0
E0
E0
E0
78
38
ENDCHAR
STARTCHAR 026E
ENCODING 622
SWIDTH 617 0
DWIDTH 12 0
BBX 11 18 1 -4
BITMAP
E000
E000
E000
E000
E000
FFC0
FFC0
E1C0
E380
E700
EF80
EFC0
E1E0
E0E0
00E0
11C0
1FC0
2F80
ENDCHAR
STARTCHAR 026F
ENCODING 623
SWIDTH 822 0
DWIDTH 16 0
BBX 14 9 1 0
BITMAP
E39C
E39C
E39C
E39C
E39C
E39C
E79C
7FFC
79CC
ENDCHAR
STARTCHAR 0270
ENCODING 624
SWIDTH 822 0
DWIDTH 16 0
BBX 14 13 1 -4
BITMAP
E39C
E39C
E39C
E39C
E39C
E39C
E79C
7FFC
79DC
001C
001C
001C
001C
ENDCHAR
STARTCHAR 0271
ENCODING 625
SWIDTH 822 0
DWIDTH 16 0
BBX 14 12 1 -3
BITMAP
EE78
FFFC
F39C
E39C
E39C
E39C
E39C
E39C
E39C
001C
003C
0078
ENDCHAR
STARTCHAR 0272
ENCODING 626
SWIDTH 565 0
DWIDTH 11 0
BBX 11 12 -1 -3
BITMAP
3BC0
3FC0
3CE0
38E0
38E0
38E0
38E0
38E0
38E0
3800
7800
F000
ENDCHAR
STARTCHAR 0273
ENCODING 627
SWIDTH 565 0
DWIDTH 11 0
BBX 11 12 1 -3
BITMAP
EF00
FF00
F380
E380
E380
E380
E380
E380
E380
0380
03C0
01E0
ENDCHAR
STARTCHAR 0274
ENCODING 628
SWIDTH 565 0
DWIDTH 11 0
BBX 8 9 1 0
BITMAP
E3
F3
F3
FB
FB
EF
EF
E7
E3
ENDCHAR
STARTCHAR 0275
ENCODING 629
SWIDTH 565 0
DWIDTH 11 0
BBX 9 9 1 0
BITMAP
3E00
7F00
E300
FF80
FF80
C380
E300
7F00
3E00
ENDCHAR
STARTCHAR 0276
ENCODING 630
SWIDTH 720 0
DWIDTH 14 0
BBX 12 9 1 0
BITMAP
3FF0
7FF0
E700
E7F0
E7F0
E700
E700
7FF0
3FF0
ENDCHAR
STARTCHAR 0278
ENCODING 632
SWIDTH 720 0
DWIDTH 14 0
BBX 12 18 1 -4
BITMAP
0600
0600
0600
0600
0600
3FC0
7FE0
E670
E670
E670
E670
E670
7FE0
3FC0
0600
0600
0600
0600
ENDCHAR
STARTCHAR 0279
ENCODING 633
SWIDTH 411 0
DWIDTH 8 0
BBX 6 9 0 0
BITMAP
0C
0C
0C
0C
0C
1C
1C
FC
EC
ENDCHAR
STARTCHAR 027A
ENCODING 634
SWIDTH 411 0
DWIDTH 8 0
BBX 6 14 0 0
BITMAP
0C
0C
0C
0C
0C
0C
0C
0C
0C
0C
1C
1C
FC
EC
ENDCHAR
STARTCHAR 027B
ENCODING 635
SWIDTH 411 0
DWIDTH 8 0
BBX 8 12 0 -3
BITMAP
0C
0C
0C
0C
0C
1C
1C
FC
EC
0C
0F
07
ENDCHAR
STARTCHAR 027D
ENCODING 637
SWIDTH 411 0
DWIDTH 8 0
BBX 7 12 1 -3
BITMAP
EE
FC
F0
E0
E0
E0
E0
E0
E0
E0
78
78
ENDCHAR
STARTCHAR 027E
ENCODING 638
SWIDTH 360 0
DWIDTH 7 0
BBX 6 9 1 0
BITMAP
3C
7C
E0
E0
E0
E0
E0
E0
E0
ENDCHAR
STARTCHAR 0280
ENCODING 640
SWIDTH 514 0
DWIDTH 10 0
BBX 9 9 1 0
BITMAP
FE00
FF00
E700
E700
FF00
FE00
EE00
E700
E780
ENDCHAR
STARTCHAR 0281
ENCODING 641
SWIDTH 514 0
DWIDTH 10 0
BBX 9 9 0 0
BITMAP
F380
7380
3B80
1F80
3F80
7380
7380
7F80
3F80
ENDCHAR
STARTCHAR 0282
ENCODING 642
SWIDTH 411 0
DWIDTH 8 0
BBX 8 12 0 -3
BITMAP
3E
7F
72
78
3E
0F
47
7F
FC
E0
78
38
ENDCHAR
STARTCHAR 0283
ENCODING 643
SWIDTH 257 0
DWIDTH 5 0
BBX 7 18 -1 -4
BITMAP
0E
1E
38
38
38
38
38
38
38
38
38
38
38
38
38
38
F8
F0
ENDCHAR
STARTCHAR 0284
ENCODING 644
SWIDTH 308 0
DWIDTH 6 0
BBX 8 18 -1 -4
BITMAP
0F
1E
1C
18
18
18
18
18
18
7E
18
18
18
18
18
38
78
F0
ENDCHAR
STARTCHAR 0288
ENCODING 648
SWIDTH 360 0
DWIDTH 7 0
BBX 7 15 0 -3
BITMAP
30
30
30
FE
FE
30
30
30
30
30
30
30
38
3E
1E
ENDCHAR
STARTCHAR 0289
ENCODING 649
SWIDTH 617 0
DWIDTH 12 0
BBX 11 9 0 0
BITMAP
31C0
31C0
31C0
FFE0
31C0
31C0
39C0
3FC0
1CC0
ENDCHAR
STARTCHAR 028A
ENCODING 650
SWIDTH 565 0
DWIDTH 11 0
BBX 9 9 1 0
BITMAP
F780
F780
6700
E380
E380
E380
E380
7F00
3E00
ENDCHAR
STARTCHAR 028B
ENCODING 651
SWIDTH 514 0
DWIDTH 10 0
BBX 9 9 1 0
BITMAP
EE00
EF00
E380
E380
E380
E380
E700
7F00
3C00
ENDCHAR
STARTCHAR 028C
ENCODING 652
SWIDTH 514 0
DWIDTH 10 0
BBX 10 9 0 0
BITMAP
1E00
1E00
3E00
3700
3300
7300
7380
6380
E1C0
ENDCHAR
STARTCHAR 028D
ENCODING 653
SWIDTH 771 0
DWIDTH 15 0
BBX 14 9 0 0
BITMAP
1C70
3CF0
36F8
36F8
36D8
7698
779C
639C
E39C
ENDCHAR
STARTCHAR 028E
ENCODING 654
SWIDTH 514 0
DWIDTH 10 0
BBX 10 14 0 0
BITMAP
0380
0780
0E00
0C00
1C00
1C00
1E00
3E00
3700
3700
7300
7380
6380
E1C0
ENDCHAR
STARTCHAR 028F
ENCODING 655
SWIDTH 462 0
DWIDTH 9 0
BBX 9 9 0 0
BITMAP
E380
6700
7700
3600
3E00
1C00
1C00
1C00
1C00
ENDCHAR
STARTCHAR 0290
ENCODING 656
SWIDTH 462 0
DWIDTH 9 0
BBX 9 12 1 -3
BITMAP
FE00
FE00
1C00
1C00
3800
7000
7000
FE00
FE00
0E00
0780
0780
ENDCHAR
STARTCHAR 0291
ENCODING 657
SWIDTH 514 0
DWIDTH 10 0
BBX 9 11 1 -2
BITMAP
FE00
FE00
1C00
1800
3800
7300
6D80
FF80
FF00
1800
1800
ENDCHAR
STARTCHAR 0292
ENCODING 658
SWIDTH 462 0
DWIDTH 9 0
BBX 8 13 0 -4
BITMAP
7F
7F
0E
1C
18
3E
3F
07
03
07
47
FE
3C
ENDCHAR
STARTCHAR 0294
ENCODING 660
SWIDTH 462 0
DWIDTH 9 0
BBX 8 14 0 0
BITMAP
7C
FE
47
07
07
07
0E
1E
3C
38
38
38
38
38
ENDCHAR
STARTCHAR 0295
ENCODING 661
SWIDTH 514 0
DWIDTH 10 0
BBX 8 14 1 0
BITMAP
3E
7F
E2
E0
E0
E0
F0
78
3C
1C
1C
1C
1C
1C
ENDCHAR
STARTCHAR 0298
ENCODING 664
SWIDTH 565 0
DWIDTH 11 0
BBX 9 14 1 0
BITMAP
3C00
7E00
6700
E300
E300
E380
DB80
DF80
E380
E300
E300
6700
7E00
3C00
ENDCHAR
STARTCHAR 0299
ENCODING 665
SWIDTH 514 0
DWIDTH 10 0
BBX 8 9 1 0
BITMAP
FE
FF
E7
FE
FF
E3
E3
FF
FE
ENDCHAR
STARTCHAR 029C
ENCODING 668
SWIDTH 565 0
DWIDTH 11 0
BBX 9 9 1 0
BITMAP
E380
E380
E380
FF80
FF80
E380
E380
E380
E380
ENDCHAR
STARTCHAR 029D
ENCODING 669
SWIDTH 360 0
DWIDTH 7 0
BBX 9 18 -1 -5
BITMAP
0C00
0E00
0C00
0000
0E00
0E00
0E00
0E00
0E00
0E00
0E00
0E00
7E00
FE00
CE00
FF00
7B80
0300
ENDCHAR
STARTCHAR 029F
ENCODING 671
SWIDTH 411 0
DWIDTH 8 0
BBX 7 9 1 0
BITMAP
E0
E0
E0
E0
E0
E0
E0
FE
FE
ENDCHAR
STARTCHAR 02A1
ENCODING 673
SWIDTH 462 0
DWIDTH 9 0
BBX 9 14 0 0
BITMAP
3C00
FF00
4700
0300
0380
0700
0700
0E00
FF80
FF80
1C00
1C00
1C00
1C00
ENDCHAR
STARTCHAR 02A2
ENCODING 674
SWIDTH 462 0
DWIDTH 9 0
BBX 9 14 0 0
BITMAP
1E00
7F80
7100
6000
6000
7000
7000
3800
FF80
FF80
0C00
0C00
0C00
0C00
ENDCHAR
STARTCHAR 02B0
ENCODING 688
SWIDTH 360 0
DWIDTH 7 0
BBX 6 9 1 7
BITMAP
C0
C0
F8
F8
CC
CC
CC
CC
CC
ENDCHAR
STARTCHAR 02B2
ENCODING 690
SWIDTH 205 0
DWIDTH 4 0
BBX 4 11 -1 5
BITMAP
30
30
00
30
30
30
30
30
30
70
E0
ENDCHAR
STARTCHAR 02B3
ENCODING 691
SWIDTH 257 0
DWIDTH 5 0
BBX 4 7 1 7
BITMAP
B0
F0
C0
C0
C0
C0
C0
ENDCHAR
STARTCHAR 02B7
ENCODING 695
SWIDTH 514 0
DWIDTH 10 0
BBX 10 7 0 7
BITMAP
CCC0
6C80
6D80
7F80
7F80
3300
3300
ENDCHAR
STARTCHAR 02B8
ENCODING 696
SWIDTH 360 0
DWIDTH 7 0
BBX 7 9 0 5
BITMAP
C6
6C
6C
28
28
38
10
70
60
ENDCHAR
STARTCHAR 02B9
ENCODING 697
SWIDTH 308 0
DWIDTH 6 0
BBX 3 6 2 7
BITMAP
E0
C0
C0
C0
C0
C0
ENDCHAR
STARTCHAR 02BB
ENCODING 699
SWIDTH 308 0
DWIDTH 6 0
BBX 3 6 1 7
BITMAP
20
60
C0
C0
E0
E0
ENDCHAR
STARTCHAR 02BC
ENCODING 700
SWIDTH 308 0
DWIDTH 6 0
BBX 4 6 1 7
BITMAP
60
F0
30
20
E0
80
ENDCHAR
STARTCHAR 02BE
ENCODING 702
SWIDTH 154 0
DWIDTH 3 0
BBX 3 4 0 10
BITMAP
E0
20
20
C0
ENDCHAR
STARTCHAR 02BF
ENCODING 703
SWIDTH 154 0
DWIDTH 3 0
BBX 3 4 0 10
BITMAP
60
C0
C0
60
ENDCHAR
STARTCHAR 02C1
ENCODING 705
SWIDTH 360 0
DWIDTH 7 0
BBX 5 9 1 7
BITMAP
70
F8
D0
C0
C0
60
20
20
20
ENDCHAR
STARTCHAR 02C6
ENCODING 710
SWIDTH 565 0
DWIDTH 11 0
BBX 7 3 2 11
BITMAP
78
FC
C6
ENDCHAR
STARTCHAR 02C7
ENCODING 711
SWIDTH 565 0
DWIDTH 11 0
BBX 7 3 2 11
BITMAP
C4
FE
78
ENDCHAR
STARTCHAR 02C8
ENCODING 712
SWIDTH 154 0
DWIDTH 3 0
BBX 3 4 0 10
BITMAP
E0
C0
C0
C0
ENDCHAR
STARTCHAR 02C9
ENCODING 713
SWIDTH 308 0
DWIDTH 6 0
BBX 6 2 0 11
BITMAP
FC
FC
ENDCHAR
STARTCHAR 02CA
ENCODING 714
SWIDTH 205 0
DWIDTH 4 0
BBX 5 5 1 11
BITMAP
20
30
78
E0
40
ENDCHAR
STARTCHAR 02CB
ENCODING 715
SWIDTH 205 0
DWIDTH 4 0
BBX 4 5 -1 11
BITMAP
40
E0
F0
70
30
ENDCHAR
STARTCHAR 02CC
ENCODING 716
SWIDTH 154 0
DWIDTH 3 0
BBX 3 4 0 -5
BITMAP
C0
C0
C0
E0
ENDCHAR
STARTCHAR 02D0
ENCODING 720
SWIDTH 308 0
DWIDTH 6 0
BBX 4 9 1 0
BITMAP
F0
60
60
40
00
40
60
60
F0
ENDCHAR
STARTCHAR 02D1
ENCODING 721
SWIDTH 308 0
DWIDTH 6 0
BBX 4 4 1 5
BITMAP
F0
60
60
40
ENDCHAR
STARTCHAR 02D8
ENCODING 728
SWIDTH 565 0
DWIDTH 11 0
BBX 7 3 2 11
BITMAP
C6
FC
78
ENDCHAR
STARTCHAR 02D9
ENCODING 729
SWIDTH 565 0
DWIDTH 11 0
BBX 3 3 4 11
BITMAP
C0
E0
C0
ENDCHAR
STARTCHAR 02DA
ENCODING 730
SWIDTH 565 0
DWIDTH 11 0
BBX 5 4 3 11
BITMAP
F0
D8
D8
F0
ENDCHAR
STARTCHAR 02DB
ENCODING 731
SWIDTH 565 0
DWIDTH 11 0
BBX 4 4 4 -4
BITMAP
E0
C0
E0
F0
ENDCHAR
STARTCHAR 02DC
ENCODING 732
SWIDTH 565 0
DWIDTH 11 0
BBX 7 3 2 11
BITMAP
66
FE
DC
ENDCHAR
STARTCHAR 02DD
ENCODING 733
SWIDTH 565 0
DWIDTH 11 0
BBX 7 4 3 11
BITMAP
64
6E
CC
D8
ENDCHAR
STARTCHAR 02DE
ENCODING 734
SWIDTH 205 0
DWIDTH 4 0
BBX 6 5 -2 4
BITMAP
20
F0
F0
BC
1C
ENDCHAR
STARTCHAR 02E0
ENCODING 736
SWIDTH 360 0
DWIDTH 7 0
BBX 7 9 0 5
BITMAP
C6
6C
6C
68
38
38
68
68
38
ENDCHAR
STARTCHAR 02E1
ENCODING 737
SWIDTH 205 0
DWIDTH 4 0
BBX 3 9 1 7
BITMAP
C0
C0
C0
C0
C0
C0
C0
C0
E0
ENDCHAR
STARTCHAR 02E2
ENCODING 738
SWIDTH 308 0
DWIDTH 6 0
BBX 5 7 0 7
BITMAP
78
50
60
78
18
98
F8
ENDCHAR
STARTCHAR 02E3
ENCODING 739
SWIDTH 360 0
DWIDTH 7 0
BBX 6 7 0 7
BITMAP
EC
6C
38
38
38
6C
CC
ENDCHAR
STARTCHAR 0300
ENCODING 768
SWIDTH 0 0
DWIDTH 0 0
BBX 5 5 -4 11
BITMAP
20
60
F0
38
10
ENDCHAR
STARTCHAR 0301
ENCODING 769
SWIDTH 0 0
DWIDTH 0 0
BBX 5 5 -1 11
BITMAP
20
30
78
E0
40
ENDCHAR
STARTCHAR 0302
ENCODING 770
SWIDTH 0 0
DWIDTH 0 0
BBX 6 3 -3 11
BITMAP
78
FC
84
ENDCHAR
STARTCHAR 0303
ENCODING 771
SWIDTH 0 0
DWIDTH 0 0
BBX 8 3 -4 11
BITMAP
73
7E
CE
ENDCHAR
STARTCHAR 0304
ENCODING 772
SWIDTH 0 0
DWIDTH 0 0
BBX 6 2 -3 11
BITMAP
FC
FC
ENDCHAR
STARTCHAR 0305
ENCODING 773
SWIDTH 0 0
DWIDTH 0 0
BBX 6 2 -3 11
BITMAP
FC
FC
ENDCHAR
STARTCHAR 0306
ENCODING 774
SWIDTH 0 0
DWIDTH 0 0
BBX 6 3 -3 11
BITMAP
CC
FC
78
ENDCHAR
STARTCHAR 0307
ENCODING 775
SWIDTH 0 0
DWIDTH 0 0
BBX 4 3 -2 11
BITMAP
60
F0
60
ENDCHAR
STARTCHAR 0308
ENCODING 776
SWIDTH 0 0
DWIDTH 0 0
BBX 6 3 -3 11
BITMAP
CC
CC
CC
ENDCHAR
STARTCHAR 0309
ENCODING 777
SWIDTH 0 0
DWIDTH 0 0
BBX 4 5 -2 10
BITMAP
E0
F0
30
70
40
ENDCHAR
STARTCHAR 030A
ENCODING 778
SWIDTH 0 0
DWIDTH 0 0
BBX 6 4 -3 11
BITMAP
78
48
CC
78
ENDCHAR
STARTCHAR 030B
ENCODING 779
SWIDTH 0 0
DWIDTH 0 0
BBX 6 4 -2 11
BITMAP
48
EC
DC
98
ENDCHAR
STARTCHAR 030C
ENCODING 780
SWIDTH 0 0
DWIDTH 0 0
BBX 6 3 -3 11
BITMAP
84
FC
78
ENDCHAR
STARTCHAR 030F
ENCODING 783
SWIDTH 0 0
DWIDTH 0 0
BBX 6 4 -4 11
BITMAP
C8
DC
6C
64
ENDCHAR
STARTCHAR 0311
ENCODING 785
SWIDTH 0 0
DWIDTH 0 0
BBX 6 4 -3 11
BITMAP
78
FC
CC
84
ENDCHAR
STARTCHAR 0312
ENCODING 786
SWIDTH 0 0
DWIDTH 0 0
BBX 2 4 -1 11
BITMAP
40
80
C0
C0
ENDCHAR
STARTCHAR 0313
ENCODING 787
SWIDTH 0 0
DWIDTH 0 0
BBX 2 4 -1 11
BITMAP
C0
C0
40
80
ENDCHAR
STARTCHAR 0318
ENCODING 792
SWIDTH 0 0
DWIDTH 0 0
BBX 4 4 -2 -5
BITMAP
30
F0
F0
30
ENDCHAR
STARTCHAR 0319
ENCODING 793
SWIDTH 0 0
DWIDTH 0 0
BBX 4 4 -2 -5
BITMAP
C0
F0
F0
C0
ENDCHAR
STARTCHAR 031A
ENCODING 794
SWIDTH 0 0
DWIDTH 0 0
BBX 4 4 -2 10
BITMAP
F0
F0
30
30
ENDCHAR
STARTCHAR 031B
ENCODING 795
SWIDTH 0 0
DWIDTH 0 0
BBX 3 4 0 8
BITMAP
60
60
60
C0
ENDCHAR
STARTCHAR 031C
ENCODING 796
SWIDTH 0 0
DWIDTH 0 0
BBX 2 4 -1 -5
BITMAP
C0
80
80
C0
ENDCHAR
STARTCHAR 031D
ENCODING 797
SWIDTH 0 0
DWIDTH 0 0
BBX 4 4 -2 -5
BITMAP
60
60
F0
F0
ENDCHAR
STARTCHAR 031E
ENCODING 798
SWIDTH 0 0
DWIDTH 0 0
BBX 4 4 -2 -5
BITMAP
F0
F0
60
60
ENDCHAR
STARTCHAR 031F
ENCODING 799
SWIDTH 0 0
DWIDTH 0 0
BBX 4 4 -2 -5
BITMAP
60
F0
F0
60
ENDCHAR
STARTCHAR 0320
ENCODING 800
SWIDTH 0 0
DWIDTH 0 0
BBX 4 2 -2 -4
BITMAP
F0
F0
ENDCHAR
STARTCHAR 0323
ENCODING 803
SWIDTH 0 0
DWIDTH 0 0
BBX 4 3 -2 -4
BITMAP
60
F0
60
ENDCHAR
STARTCHAR 0324
ENCODING 804
SWIDTH 0 0
DWIDTH 0 0
BBX 6 3 -3 -4
BITMAP
CC
CC
CC
ENDCHAR
STARTCHAR 0325
ENCODING 805
SWIDTH 0 0
DWIDTH 0 0
BBX 6 4 -3 -4
BITMAP
78
48
CC
78
ENDCHAR
STARTCHAR 0326
ENCODING 806
SWIDTH 0 0
DWIDTH 0 0
BBX 4 3 -2 -4
BITMAP
60
30
E0
ENDCHAR
STARTCHAR 0327
ENCODING 807
SWIDTH 0 0
DWIDTH 0 0
BBX 4 5 -2 -5
BITMAP
60
60
B0
30
E0
ENDCHAR
STARTCHAR 0328
ENCODING 808
SWIDTH 0 0
DWIDTH 0 0
BBX 4 4 -2 -4
BITMAP
60
C0
F0
70
ENDCHAR
STARTCHAR 0329
ENCODING 809
SWIDTH 0 0
DWIDTH 0 0
BBX 2 4 -1 -5
BITMAP
C0
C0
C0
C0
ENDCHAR
STARTCHAR 032A
ENCODING 810
SWIDTH 0 0
DWIDTH 0 0
BBX 4 3 -2 -4
BITMAP
F0
F0
90
ENDCHAR
STARTCHAR 032C
ENCODING 812
SWIDTH 0 0
DWIDTH 0 0
BBX 6 3 -3 -4
BITMAP
84
FC
78
ENDCHAR
STARTCHAR 032E
ENCODING 814
SWIDTH 0 0
DWIDTH 0 0
BBX 6 3 -3 -4
BITMAP
CC
FC
78
ENDCHAR
STARTCHAR 032F
ENCODING 815
SWIDTH 0 0
DWIDTH 0 0
BBX 6 4 -3 -4
BITMAP
78
FC
CC
84
ENDCHAR
STARTCHAR 0330
ENCODING 816
SWIDTH 0 0
DWIDTH 0 0
BBX 8 3 -4 -4
BITMAP
73
7E
CE
ENDCHAR
STARTCHAR 0331
ENCODING 817
SWIDTH 0 0
DWIDTH 0 0
BBX 6 2 -3 -4
BITMAP
FC
FC
ENDCHAR
STARTCHAR 0334
ENCODING 820
SWIDTH 0 0
DWIDTH 0 0
BBX 8 3 -4 4
BITMAP
73
7E
CE
ENDCHAR
STARTCHAR 0339
ENCODING 825
SWIDTH 0 0
DWIDTH 0 0
BBX 2 4 -1 -5
BITMAP
C0
40
40
C0
ENDCHAR
STARTCHAR 033A
ENCODING 826
SWIDTH 0 0
DWIDTH 0 0
BBX 4 3 -2 -4
BITMAP
90
F0
F0
ENDCHAR
STARTCHAR 033B
ENCODING 827
SWIDTH 0 0
DWIDTH 0 0
BBX 4 4 -2 -5
BITMAP
F0
90
90
F0
ENDCHAR
STARTCHAR 033C
ENCODING 828
SWIDTH 0 0
DWIDTH 0 0
BBX 8 4 -4 -5
BITMAP
66
7E
5A
DB
ENDCHAR
STARTCHAR 033D
ENCODING 829
SWIDTH 0 0
DWIDTH 0 0
BBX 4 4 -2 10
BITMAP
60
F0
60
F0
ENDCHAR
STARTCHAR 0342
ENCODING 834
SWIDTH 0 0
DWIDTH 0 0
BBX 8 3 -4 11
BITMAP
73
7E
CE
ENDCHAR
STARTCHAR 0345
ENCODING 837
SWIDTH 0 0
DWIDTH 0 0
BBX 3 2 -1 -4
BITMAP
C0
E0
ENDCHAR
STARTCHAR 0361
ENCODING 865
SWIDTH 0 0
DWIDTH 0 0
BBX 18 4 -9 10
BITMAP
07F800
3FFF00
F807C0
400080
ENDCHAR
STARTCHAR 0374
ENCODING 884
SWIDTH 308 0
DWIDTH 6 0
BBX 3 6 2 7
BITMAP
E0
C0
C0
C0
C0
C0
ENDCHAR
STARTCHAR 0375
ENCODING 885
SWIDTH 308 0
DWIDTH 6 0
BBX 3 6 1 0
BITMAP
60
60
60
E0
E0
E0
ENDCHAR
STARTCHAR 037A
ENCODING 890
SWIDTH 565 0
DWIDTH 11 0
BBX 3 2 4 -4
BITMAP
C0
60
ENDCHAR
STARTCHAR 037E
ENCODING 894
SWIDTH 308 0
DWIDTH 6 0
BBX 4 14 1 -4
BITMAP
60
E0
F0
60
00
00
00
60
F0
70
30
60
E0
80
ENDCHAR
STARTCHAR 0384
ENCODING 900
SWIDTH 565 0
DWIDTH 11 0
BBX 4 5 4 11
BITMAP
80
70
60
E0
C0
ENDCHAR
STARTCHAR 0385
ENCODING 901
SWIDTH 565 0
DWIDTH 11 0
BBX 7 4 2 11
BITMAP
18
18
D6
F6
ENDCHAR
STARTCHAR 0386
ENCODING 902
SWIDTH 617 0
DWIDTH 12 0
BBX 12 12 0 0
BITMAP
E700
CF80
CF80
CD80
1DC0
19C0
18C0
3FC0
3FE0
30E0
7060
7070
ENDCHAR
STARTCHAR 0387
ENCODING 903
SWIDTH 308 0
DWIDTH 6 0
BBX 4 4 1 6
BITMAP
60
E0
F0
60
ENDCHAR
STARTCHAR 0388
ENCODING 904
SWIDTH 668 0
DWIDTH 13 0
BBX 12 12 0 0
BITMAP
EFE0
CFE0
CE00
CE00
0E00
0FE0
0FE0
0E00
0E00
0E00
0FF0
0FF0
ENDCHAR
STARTCHAR 0389
ENCODING 905
SWIDTH 771 0
DWIDTH 15 0
BBX 14 12 0 0
BITMAP
EE1C
CE1C
CE1C
CE1C
0E1C
0FFC
0FFC
0E1C
0E1C
0E1C
0E1C
0E1C
ENDCHAR
STARTCHAR 038A
ENCODING 906
SWIDTH 411 0
DWIDTH 8 0
BBX 7 12 0 0
BITMAP
EE
CE
CE
CE
0E
0E
0E
0E
0E
0E
0E
0E
ENDCHAR
STARTCHAR 038C
ENCODING 908
SWIDTH 771 0
DWIDTH 15 0
BBX 14 12 0 0
BITMAP
E3E0
CFF0
DE38
DC18
1C1C
1C1C
1C1C
1C1C
1C38
0E38
0FF0
03E0
ENDCHAR
STARTCHAR 038E
ENCODING 910
SWIDTH 668 0
DWIDTH 13 0
BBX 14 12 0 0
BITMAP
FC3C
CE38
CE30
C770
0760
03E0
03C0
01C0
01C0
01C0
01C0
01C0
ENDCHAR
STARTCHAR 038F
ENCODING 911
SWIDTH 771 0
DWIDTH 15 0
BBX 14 12 0 0
BITMAP
E3E0
C7F8
CE38
DC1C
1C1C
1C1C
1C1C
1C1C
0C18
0E38
1F7C
1F7C
ENDCHAR
STARTCHAR 0390
ENCODING 912
SWIDTH 308 0
DWIDTH 6 0
BBX 7 15 -1 0
BITMAP
18
18
D6
D6
00
00
38
38
38
38
38
38
38
3C
1E
ENDCHAR
STARTCHAR 0391
ENCODING 913
SWIDTH 565 0
DWIDTH 11 0
BBX 11 12 0 0
BITMAP
0E00
1F00
1B00
1B00
3B80
3380
3180
7FC0
7FC0
61C0
E0E0
E0E0
ENDCHAR
STARTCHAR 0392
ENCODING 914
SWIDTH 617 0
DWIDTH 12 0
BBX 10 12 1 0
BITMAP
FF00
FF80
E380
E180
E380
FF00
FF80
E1C0
E1C0
E1C0
FF80
FF00
ENDCHAR
STARTCHAR 0393
ENCODING 915
SWIDTH 514 0
DWIDTH 10 0
BBX 8 12 1 0
BITMAP
FF
FF
E0
E0
E0
E0
E0
E0
E0
E0
E0
E0
ENDCHAR
STARTCHAR 0394
ENCODING 916
SWIDTH 617 0
DWIDTH 12 0
BBX 11 12 1 0
BITMAP
1E00
1E00
3F00
3F00
3300
7380
7380
6180
E1C0
E1C0
FFE0
FFE0
ENDCHAR
STARTCHAR 0395
ENCODING 917
SWIDTH 514 0
DWIDTH 10 0
BBX 8 12 1 0
BITMAP
FF
FF
E0
E0
E0
FE
FE
E0
E0
E0
FF
FF
ENDCHAR
STARTCHAR 0396
ENCODING 918
SWIDTH 514 0
DWIDTH 10 0
BBX 9 12 1 0
BITMAP
FF80
FF00
0700
0E00
0C00
1C00
3800
3800
7000
6000
FF80
FF80
ENDCHAR
STARTCHAR 0397
ENCODING 919
SWIDTH 668 0
DWIDTH 13 0
BBX 10 12 1 0
BITMAP
E0C0
E0C0
E0C0
E0C0
E0C0
FFC0
FFC0
E0C0
E0C0
E0C0
E0C0
E0C0
ENDCHAR
STARTCHAR 0398
ENCODING 920
SWIDTH 668 0
DWIDTH 13 0
BBX 11 12 1 0
BITMAP
1F00
7FC0
71C0
E0E0
E0E0
EEE0
EEE0
E0E0
E0E0
71C0
3F80
1F00
ENDCHAR
STARTCHAR 0399
ENCODING 921
SWIDTH 308 0
DWIDTH 6 0
BBX 3 12 1 0
BITMAP
E0
E0
E0
E0
E0
E0
E0
E0
E0
E0
E0
E0
ENDCHAR
STARTCHAR 039A
ENCODING 922
SWIDTH 617 0
DWIDTH 12 0
BBX 11 12 1 0
BITMAP
E1C0
E380
E700
EE00
EE00
FE00
FE00
F700
E380
E380
E1C0
E1E0
ENDCHAR
STARTCHAR 039B
ENCODING 923
SWIDTH 565 0
DWIDTH 11 0
BBX 11 12 0 0
BITMAP
1E00
1E00
1F00
1B00
3B00
3380
3380
7180
71C0
61C0
E1C0
E0E0
ENDCHAR
STARTCHAR 039C
ENCODING 924
SWIDTH 720 0
DWIDTH 14 0
BBX 12 12 1 0
BITMAP
F070
F0F0
F0F0
F8F0
F9B0
FDB0
EDB0
EF70
EF70
E770
E670
E070
ENDCHAR
STARTCHAR 039D
ENCODING 925
SWIDTH 668 0
DWIDTH 13 0
BBX 10 12 1 0
BITMAP
F0C0
F0C0
F8C0
F8C0
FCC0
ECC0
EEC0
E6C0
E7C0
E3C0
E3C0
E1C0
ENDCHAR
STARTCHAR 039E
ENCODING 926
SWIDTH 565 0
DWIDTH 11 0
BBX 9 12 1 0
BITMAP
FF80
FF80
0000
0000
0000
7F00
7F00
0000
0000
0000
FF80
FF80
ENDCHAR
STARTCHAR 039F
ENCODING 927
SWIDTH 668 0
DWIDTH 13 0
BBX 11 12 1 0
BITMAP
1F00
7FC0
71C0
E0E0
E0E0
E0E0
E0E0
E0E0
E0E0
71C0
3F80
1F00
ENDCHAR
STARTCHAR 03A0
ENCODING 928
SWIDTH 668 0
DWIDTH 13 0
BBX 10 12 1 0
BITMAP
FFC0
FFC0
E1C0
E1C0
E1C0
E1C0
E1C0
E1C0
E1C0
E1C0
E1C0
E1C0
ENDCHAR
STARTCHAR 03A1
ENCODING 929
SWIDTH 565 0
DWIDTH 11 0
BBX 10 12 1 0
BITMAP
FF00
FF80
E380
E1C0
E1C0
E380
FF80
FE00
E000
E000
E000
E000
ENDCHAR
STARTCHAR 03A3
ENCODING 931
SWIDTH 514 0
DWIDTH 10 0
BBX 9 12 1 0
BITMAP
FF00
FF00
7000
7000
3800
1C00
1C00
3800
7000
F000
FF80
FF80
ENDCHAR
STARTCHAR 03A4
ENCODING 932
SWIDTH 565 0
DWIDTH 11 0
BBX 10 12 0 0
BITMAP
FFC0
FFC0
0E00
0E00
0E00
0E00
0E00
0E00
0E00
0E00
0E00
0E00
ENDCHAR
STARTCHAR 03A5
ENCODING 933
SWIDTH 514 0
DWIDTH 10 0
BBX 10 12 0 0
BITMAP
E1C0
6180
7380
3300
3F00
1E00
1E00
1E00
0C00
0C00
0C00
0C00
ENDCHAR
STARTCHAR 03A6
ENCODING 934
SWIDTH 720 0
DWIDTH 14 0
BBX 13 13 1 0
BITMAP
0600
0600
1FC0
7FE0
F670
E630
E638
E630
F670
7FE0
1FC0
0600
0600
ENDCHAR
STARTCHAR 03A7
ENCODING 935
SWIDTH 565 0
DWIDTH 11 0
BBX 11 12 0 0
BITMAP
F1C0
71C0
3B80
3B00
1F00
1E00
1E00
1F00
3B80
3380
71C0
E1E0
ENDCHAR
STARTCHAR 03A8
ENCODING 936
SWIDTH 720 0
DWIDTH 14 0
BBX 12 12 1 0
BITMAP
E630
E630
E630
E630
E670
76F0
7FE0
1F80
0600
0600
0600
0600
ENDCHAR
STARTCHAR 03A9
ENCODING 937
SWIDTH 720 0
DWIDTH 14 0
BBX 12 12 1 0
BITMAP
1F00
3FC0
71E0
E0E0
E0E0
E060
E0E0
E0E0
70E0
31C0
F9F0
F9F0
ENDCHAR
STARTCHAR 03AA
ENCODING 938
SWIDTH 308 0
DWIDTH 6 0
BBX 7 16 -1 0
BITMAP
66
E6
66
00
38
38
38
38
38
38
38
38
38
38
38
38
ENDCHAR
STARTCHAR 03AB
ENCODING 939
SWIDTH 514 0
DWIDTH 10 0
BBX 10 16 0 0
BITMAP
3300
3300
3300
0000
E1C0
6180
7380
3300
3F00
1E00
1E00
1E00
0C00
0C00
0C00
0C00
ENDCHAR
STARTCHAR 03AC
ENCODING 940
SWIDTH 565 0
DWIDTH 11 0
BBX 10 16 1 0
BITMAP
1000
0E00
0C00
0C00
0C00
0000
0000
39C0
7D80
E780
E380
E380
E300
E700
FFC0
39C0
ENDCHAR
STARTCHAR 03AD
ENCODING 941
SWIDTH 462 0
DWIDTH 9 0
BBX 8 16 1 0
BITMAP
10
1C
1C
18
18
00
00
7E
FE
E4
78
F8
E0
E2
FE
7F
ENDCHAR
STARTCHAR 03AE
ENCODING 942
SWIDTH 565 0
DWIDTH 11 0
BBX 9 19 1 -3
BITMAP
0800
0E00
0E00
0C00
0C00
0000
0000
EF00
FF00
F300
E380
E380
E380
E380
E380
E380
0380
0380
0380
ENDCHAR
STARTCHAR 03AF
ENCODING 943
SWIDTH 308 0
DWIDTH 6 0
BBX 5 16 1 0
BITMAP
80
70
60
60
60
00
00
E0
E0
E0
E0
E0
E0
E0
F0
78
ENDCHAR
STARTCHAR 03B0
ENCODING 944
SWIDTH 514 0
DWIDTH 10 0
BBX 8 15 1 0
BITMAP
0C
18
5A
FF
00
00
E7
E7
E7
E7
E7
E7
E7
7E
3C
ENDCHAR
STARTCHAR 03B1
ENCODING 945
SWIDTH 565 0
DWIDTH 11 0
BBX 10 9 1 0
BITMAP
39C0
7D80
E780
E380
E380
E300
E700
FFC0
39C0
ENDCHAR
STARTCHAR 03B2
ENCODING 946
SWIDTH 565 0
DWIDTH 11 0
BBX 10 17 1 -3
BITMAP
3E00
7F00
7380
E380
E380
E700
EE00
EF80
E180
E1C0
E1C0
F380
FF80
EF00
E000
E000
E000
ENDCHAR
STARTCHAR 03B3
ENCODING 947
SWIDTH 514 0
DWIDTH 10 0
BBX 10 12 0 -3
BITMAP
E1C0
7180
7180
3B80
3B80
1B00
1E00
1E00
0C00
0C00
0C00
0C00
ENDCHAR
STARTCHAR 03B4
ENCODING 948
SWIDTH 514 0
DWIDTH 10 0
BBX 9 14 1 0
BITMAP
3F00
7F00
6100
7000
7800
3E00
7F00
E700
E380
C380
E380
E700
7F00
3C00
ENDCHAR
STARTCHAR 03B5
ENCODING 949
SWIDTH 462 0
DWIDTH 9 0
BBX 8 9 1 0
BITMAP
7E
FE
E4
78
F8
E0
E2
FE
7F
ENDCHAR
STARTCHAR 03B6
ENCODING 950
SWIDTH 462 0
DWIDTH 9 0
BBX 8 17 1 -3
BITMAP
FE
FE
0E
1C
38
70
60
E0
E0
E0
E0
F0
7E
3E
07
06
0E
ENDCHAR
STARTCHAR 03B7
ENCODING 951
SWIDTH 565 0
DWIDTH 11 0
BBX 9 12 1 -3
BITMAP
EF00
FF00
F300
E380
E380
E380
E380
E380
E380
0380
0380
0380
ENDCHAR
STARTCHAR 03B8
ENCODING 952
SWIDTH 514 0
DWIDTH 10 0
BBX 9 14 1 0
BITMAP
3C00
7E00
6700
E300
E300
E300
FF80
FF80
E300
E300
E300
6700
7E00
3C00
ENDCHAR
STARTCHAR 03B9
ENCODING 953
SWIDTH 308 0
DWIDTH 6 0
BBX 5 9 1 0
BITMAP
E0
E0
E0
E0
E0
E0
E0
F0
78
ENDCHAR
STARTCHAR 03BA
ENCODING 954
SWIDTH 514 0
DWIDTH 10 0
BBX 9 9 1 0
BITMAP
E100
E700
EF80
FC00
FC00
FE00
E600
E700
E380
ENDCHAR
STARTCHAR 03BB
ENCODING 955
SWIDTH 514 0
DWIDTH 10 0
BBX 10 14 0 0
BITMAP
7800
7C00
0C00
0E00
0E00
0F00
1F00
1B00
3B80
3B80
3380
71C0
71C0
E1C0
ENDCHAR
STARTCHAR 03BC
ENCODING 956
SWIDTH 565 0
DWIDTH 11 0
BBX 10 12 1 -3
BITMAP
E380
E380
E380
E300
E300
E300
E700
FFC0
F9C0
E000
E000
E000
ENDCHAR
STARTCHAR 03BD
ENCODING 957
SWIDTH 514 0
DWIDTH 10 0
BBX 10 9 0 0
BITMAP
E1C0
7180
7380
3380
3B00
1B00
1F00
1E00
1C00
ENDCHAR
STARTCHAR 03BE
ENCODING 958
SWIDTH 462 0
DWIDTH 9 0
BBX 9 17 0 -3
BITMAP
FF00
FF00
3800
3800
3800
3800
1E00
3E00
7000
7000
7000
7000
7F00
1F80
0380
0300
0700
ENDCHAR
STARTCHAR 03BF
ENCODING 959
SWIDTH 565 0
DWIDTH 11 0
BBX 9 9 1 0
BITMAP
3C00
7F00
E700
E380
E380
E380
E700
7F00
3C00
ENDCHAR
STARTCHAR 03C0
ENCODING 960
SWIDTH 617 0
DWIDTH 12 0
BBX 12 9 0 0
BITMAP
FFF0
FFF0
39C0
39C0
39C0
39C0
39C0
39E0
38F0
ENDCHAR
STARTCHAR 03C1
ENCODING 961
SWIDTH 565 0
DWIDTH 11 0
BBX 9 12 1 -3
BITMAP
3E00
7F00
6380
E380
E380
E380
E380
FF00
FE00
E000
E000
E000
ENDCHAR
STARTCHAR 03C2
ENCODING 962
SWIDTH 411 0
DWIDTH 8 0
BBX 7 12 1 -3
BITMAP
3E
7E
E4
E0
E0
E0
E0
7C
3E
0E
0E
1C
ENDCHAR
STARTCHAR 03C3
ENCODING 963
SWIDTH 565 0
DWIDTH 11 0
BBX 10 9 1 0
BITMAP
3FC0
7FC0
E700
E300
E300
E300
E700
7F00
3C00
ENDCHAR
STARTCHAR 03C4
ENCODING 964
SWIDTH 462 0
DWIDTH 9 0
BBX 9 9 0 0
BITMAP
FF80
FF80
1C00
1C00
1C00
1C00
1C00
1F00
0F00
ENDCHAR
STARTCHAR 03C5
ENCODING 965
SWIDTH 514 0
DWIDTH 10 0
BBX 8 9 1 0
BITMAP
E7
E7
E7
E7
E7
E7
E7
7E
3C
ENDCHAR
STARTCHAR 03C6
ENCODING 966
SWIDTH 720 0
DWIDTH 14 0
BBX 12 15 1 -3
BITMAP
0600
0600
0600
3FC0
7FE0
E670
E670
E670
E670
E670
7FE0
3FC0
0600
0600
0600
ENDCHAR
STARTCHAR 03C7
ENCODING 967
SWIDTH 514 0
DWIDTH 10 0
BBX 10 12 0 -3
BITMAP
E1C0
7380
3300
3F00
1E00
0E00
1E00
1F00
3B00
3380
71C0
E180
ENDCHAR
STARTCHAR 03C8
ENCODING 968
SWIDTH 720 0
DWIDTH 14 0
BBX 12 15 1 -3
BITMAP
0600
0600
0600
E670
E670
E630
E630
E630
E670
E670
7FE0
3FC0
0600
0600
0600
ENDCHAR
STARTCHAR 03C9
ENCODING 969
SWIDTH 720 0
DWIDTH 14 0
BBX 12 9 1 0
BITMAP
7060
E0F0
E070
C730
C630
C630
E770
7FF0
39E0
ENDCHAR
STARTCHAR 03CA
ENCODING 970
SWIDTH 308 0
DWIDTH 6 0
BBX 7 14 -1 0
BITMAP
66
EE
66
00
00
38
38
38
38
38
38
38
3C
1E
ENDCHAR
STARTCHAR 03CB
ENCODING 971
SWIDTH 514 0
DWIDTH 10 0
BBX 8 14 1 0
BITMAP
66
66
66
00
00
E7
E7
E7
E7
E7
E7
E7
7E
3C
ENDCHAR
STARTCHAR 03CC
ENCODING 972
SWIDTH 565 0
DWIDTH 11 0
BBX 9 16 1 0
BITMAP
1000
0E00
0C00
1C00
1800
0000
0000
3C00
7F00
E700
E380
E380
E380
E700
7F00
3C00
ENDCHAR
STARTCHAR 03CD
ENCODING 973
SWIDTH 514 0
DWIDTH 10 0
BBX 8 16 1 0
BITMAP
10
1C
1C
18
18
00
00
E7
E7
E7
E7
E7
E7
E7
7E
3C
ENDCHAR
STARTCHAR 03CE
ENCODING 974
SWIDTH 720 0
DWIDTH 14 0
BBX 12 16 1 0
BITMAP
0400
0300
0700
0600
0600
0000
0000
7060
E0F0
E070
C730
C630
C630
E770
7FF0
39E0
ENDCHAR
STARTCHAR 03D0
ENCODING 976
SWIDTH 565 0
DWIDTH 11 0
BBX 10 14 1 0
BITMAP
3E00
7F00
6300
E380
E300
EE00
FF00
FF80
E380
E1C0
E1C0
7380
7F80
1E00
ENDCHAR
STARTCHAR 03D1
ENCODING 977
SWIDTH 514 0
DWIDTH 10 0
BBX 9 14 1 0
BITMAP
3C00
7E00
E700
E700
E300
F300
7F80
1F80
0300
E300
E300
E700
7E00
3C00
ENDCHAR
STARTCHAR 03D5
ENCODING 981
SWIDTH 720 0
DWIDTH 14 0
BBX 12 12 1 -3
BITMAP
43C0
77F0
E670
E670
E670
E670
E670
7FE0
3F80
0600
0600
0600
ENDCHAR
STARTCHAR 03D7
ENCODING 983
SWIDTH 514 0
DWIDTH 10 0
BBX 9 12 1 -3
BITMAP
E100
E700
EF80
FC00
FC00
FE00
E600
E700
E380
0380
0700
0E00
ENDCHAR
STARTCHAR 03D9
ENCODING 985
SWIDTH 565 0
DWIDTH 11 0
BBX 9 12 1 -3
BITMAP
3C00
7F00
E700
E380
E380
E380
E700
7F00
3E00
1C00
1C00
1C00
ENDCHAR
STARTCHAR 03DB
ENCODING 987
SWIDTH 462 0
DWIDTH 9 0
BBX 8 12 1 -3
BITMAP
3F
7F
E0
E0
E0
E0
F0
7C
3E
06
06
0E
ENDCHAR
STARTCHAR 03DD
ENCODING 989
SWIDTH 411 0
DWIDTH 8 0
BBX 7 12 1 -3
BITMAP
FE
FE
E0
E0
E0
FC
FC
E0
E0
E0
E0
E0
ENDCHAR
STARTCHAR 03E1
ENCODING 993
SWIDTH 514 0
DWIDTH 10 0
BBX 10 17 0 -4
BITMAP
1000
3800
7C00
1E00
0F00
0700
1F80
FF80
7380
43C0
0FC0
3FC0
3DC0
11C0
01C0
01C0
01C0
ENDCHAR
STARTCHAR 0400
ENCODING 1024
SWIDTH 514 0
DWIDTH 10 0
BBX 8 17 1 0
BITMAP
20
78
3C
08
00
FF
FF
E0
E0
E0
FE
FE
E0
E0
E0
FF
FF
ENDCHAR
STARTCHAR 0401
ENCODING 1025
SWIDTH 514 0
DWIDTH 10 0
BBX 8 16 1 0
BITMAP
63
77
63
00
FF
FF
E0
E0
E0
FE
FE
E0
E0
E0
FF
FF
ENDCHAR
STARTCHAR 0402
ENCODING 1026
SWIDTH 668 0
DWIDTH 13 0
BBX 13 12 0 0
BITMAP
FFC0
FFC0
1C00
1C00
1FE0
1FF0
1C70
1C38
1C38
1C70
1CF0
1CE0
ENDCHAR
STARTCHAR 0403
ENCODING 1027
SWIDTH 514 0
DWIDTH 10 0
BBX 8 17 1 0
BITMAP
02
07
1E
08
00
FF
FF
E0
E0
E0
E0
E0
E0
E0
E0
E0
E0
ENDCHAR
STARTCHAR 0404
ENCODING 1028
SWIDTH 565 0
DWIDTH 11 0
BBX 10 12 1 0
BITMAP
1F00
3F80
7100
E000
E000
FE00
FE00
E000
E000
7180
7FC0
1F00
ENDCHAR
STARTCHAR 0405
ENCODING 1029
SWIDTH 565 0
DWIDTH 11 0
BBX 9 12 1 0
BITMAP
3E00
7F80
E300
E000
F000
7E00
3F00
0780
0380
4380
FF00
7E00
ENDCHAR
STARTCHAR 0406
ENCODING 1030
SWIDTH 308 0
DWIDTH 6 0
BBX 3 12 1 0
BITMAP
E0
E0
E0
E0
E0
E0
E0
E0
E0
E0
E0
E0
ENDCHAR
STARTCHAR 0407
ENCODING 1031
SWIDTH 308 0
DWIDTH 6 0
BBX 7 16 -1 0
BITMAP
66
E6
66
00
38
38
38
38
38
38
38
38
38
38
38
38
ENDCHAR
STARTCHAR 0408
ENCODING 1032
SWIDTH 514 0
DWIDTH 10 0
BBX 8 12 0 0
BITMAP
07
07
07
07
07
07
07
07
07
67
FF
3C
ENDCHAR
STARTCHAR 0409
ENCODING 1033
SWIDTH 874 0
DWIDTH 17 0
BBX 17 12 0 0
BITMAP
0FE000
0FE000
0CE000
1CE000
1CFE00
1CFF00
18E780
18E380
38E380
38E780
F0FF00
E0FE00
ENDCHAR
STARTCHAR 040A
ENCODING 1034
SWIDTH 925 0
DWIDTH 18 0
BBX 16 12 1 0
BITMAP
E1C0
E1C0
E1C0
E1C0
E1FC
FFFE
FFC7
E1C7
E1C7
E1C7
E1FE
E1FC
ENDCHAR
STARTCHAR 040B
ENCODING 1035
SWIDTH 720 0
DWIDTH 14 0
BBX 12 12 0 0
BITMAP
FFC0
FFC0
1C00
1C00
1FE0
1FF0
1C70
1C30
1C30
1C30
1C30
1C30
ENDCHAR
STARTCHAR 040C
ENCODING 1036
SWIDTH 617 0
DWIDTH 12 0
BBX 11 17 1 0
BITMAP
0100
0780
0F00
0400
0000
E0E0
E1C0
E380
E700
E700
FE00
FE00
E700
E380
E380
E1C0
E0E0
ENDCHAR
STARTCHAR 040D
ENCODING 1037
SWIDTH 668 0
DWIDTH 13 0
BBX 10 17 1 0
BITMAP
1000
3C00
1E00
0400
0000
E1C0
E1C0
E3C0
E3C0
E6C0
EEC0
ECC0
FCC0
F8C0
F8C0
F0C0
F0C0
ENDCHAR
STARTCHAR 040E
ENCODING 1038
SWIDTH 565 0
DWIDTH 11 0
BBX 11 15 0 0
BITMAP
3B80
1F00
0000
E0E0
71C0
71C0
3380
3B80
1B00
1F00
0F00
0E00
0E00
3C00
7800
ENDCHAR
STARTCHAR 040F
ENCODING 1039
SWIDTH 668 0
DWIDTH 13 0
BBX 10 15 1 -3
BITMAP
E1C0
E1C0
E1C0
E1C0
E1C0
E1C0
E1C0
E1C0
E1C0
E1C0
FFC0
FFC0
0E00
0E00
0E00
ENDCHAR
STARTCHAR 0410
ENCODING 1040
SWIDTH 565 0
DWIDTH 11 0
BBX 11 12 0 0
BITMAP
0E00
1F00
1B00
1B00
3B80
3380
3180
7FC0
7FC0
61C0
E0E0
E0E0
ENDCHAR
STARTCHAR 0411
ENCODING 1041
SWIDTH 565 0
DWIDTH 11 0
BBX 10 12 1 0
BITMAP
FF80
FF80
E000
E000
E000
FF00
FF80
E1C0
E1C0
E1C0
FF80
FF00
ENDCHAR
STARTCHAR 0412
ENCODING 1042
SWIDTH 617 0
DWIDTH 12 0
BBX 10 12 1 0
BITMAP
FF00
FF80
E380
E180
E380
FF00
FF80
E1C0
E1C0
E1C0
FF80
FF00
ENDCHAR
STARTCHAR 0413
ENCODING 1043
SWIDTH 514 0
DWIDTH 10 0
BBX 8 12 1 0
BITMAP
FF
FF
E0
E0
E0
E0
E0
E0
E0
E0
E0
E0
ENDCHAR
STARTCHAR 0414
ENCODING 1044
SWIDTH 668 0
DWIDTH 13 0
BBX 12 15 0 -3
BITMAP
0FE0
1FE0
1CE0
1CE0
18E0
18E0
38E0
38E0
30E0
70E0
FFF0
FFF0
E030
E030
E030
ENDCHAR
STARTCHAR 0415
ENCODING 1045
SWIDTH 514 0
DWIDTH 10 0
BBX 8 12 1 0
BITMAP
FF
FF
E0
E0
E0
FE
FE
E0
E0
E0
FF
FF
ENDCHAR
STARTCHAR 0416
ENCODING 1046
SWIDTH 822 0
DWIDTH 16 0
BBX 16 12 0 0
BITMAP
E1C7
71CF
39CC
19DC
1DD8
1FF8
1FF8
19DC
39CC
71CE
71C7
E1C7
ENDCHAR
STARTCHAR 0417
ENCODING 1047
SWIDTH 565 0
DWIDTH 11 0
BBX 9 12 1 0
BITMAP
7E00
FF00
4700
0380
0700
3E00
3F00
0380
0380
4380
FF00
7E00
ENDCHAR
STARTCHAR 0418
ENCODING 1048
SWIDTH 668 0
DWIDTH 13 0
BBX 10 12 1 0
BITMAP
E1C0
E1C0
E3C0
E3C0
E6C0
EEC0
ECC0
FCC0
F8C0
F8C0
F0C0
F0C0
ENDCHAR
STARTCHAR 0419
ENCODING 1049
SWIDTH 668 0
DWIDTH 13 0
BBX 10 15 1 0
BITMAP
3B80
1F00
0000
E1C0
E1C0
E3C0
E3C0
E6C0
EEC0
ECC0
FCC0
F8C0
F8C0
F0C0
F0C0
ENDCHAR
STARTCHAR 041A
ENCODING 1050
SWIDTH 617 0
DWIDTH 12 0
BBX 11 12 1 0
BITMAP
E0E0
E1C0
E380
E700
E700
FE00
FE00
E700
E380
E380
E1C0
E0E0
ENDCHAR
STARTCHAR 041B
ENCODING 1051
SWIDTH 617 0
DWIDTH 12 0
BBX 11 12 0 0
BITMAP
0FE0
0FE0
1CE0
1CE0
1CE0
18E0
18E0
38E0
38E0
30E0
F0E0
E0E0
ENDCHAR
STARTCHAR 041C
ENCODING 1052
SWIDTH 720 0
DWIDTH 14 0
BBX 12 12 1 0
BITMAP
F070
F0F0
F0F0
F8F0
F9B0
FDB0
EDB0
EF70
EF70
E770
E670
E070
ENDCHAR
STARTCHAR 041D
ENCODING 1053
SWIDTH 668 0
DWIDTH 13 0
BBX 10 12 1 0
BITMAP
E0C0
E0C0
E0C0
E0C0
E0C0
FFC0
FFC0
E0C0
E0C0
E0C0
E0C0
E0C0
ENDCHAR
STARTCHAR 041E
ENCODING 1054
SWIDTH 668 0
DWIDTH 13 0
BBX 11 12 1 0
BITMAP
1F00
7FC0
71C0
E0E0
E0E0
E0E0
E0E0
E0E0
E0E0
71C0
3F80
1F00
ENDCHAR
STARTCHAR 041F
ENCODING 1055
SWIDTH 668 0
DWIDTH 13 0
BBX 10 12 1 0
BITMAP
FFC0
FFC0
E1C0
E1C0
E1C0
E1C0
E1C0
E1C0
E1C0
E1C0
E1C0
E1C0
ENDCHAR
STARTCHAR 0420
ENCODING 1056
SWIDTH 565 0
DWIDTH 11 0
BBX 10 12 1 0
BITMAP
FF00
FF80
E380
E1C0
E1C0
E380
FF80
FE00
E000
E000
E000
E000
ENDCHAR
STARTCHAR 0421
ENCODING 1057
SWIDTH 565 0
DWIDTH 11 0
BBX 10 12 1 0
BITMAP
1F00
3F80
7100
E000
E000
E000
E000
E000
E000
7180
3FC0
1F00
ENDCHAR
STARTCHAR 0422
ENCODING 1058
SWIDTH 565 0
DWIDTH 11 0
BBX 10 12 0 0
BITMAP
FFC0
FFC0
0E00
0E00
0E00
0E00
0E00
0E00
0E00
0E00
0E00
0E00
ENDCHAR
STARTCHAR 0423
ENCODING 1059
SWIDTH 565 0
DWIDTH 11 0
BBX 11 12 0 0
BITMAP
E0E0
71C0
71C0
3380
3B80
1B00
1F00
0F00
0E00
0E00
3C00
7800
ENDCHAR
STARTCHAR 0424
ENCODING 1060
SWIDTH 771 0
DWIDTH 15 0
BBX 13 12 1 0
BITMAP
0600
0600
3FC0
7FF0
E670
E638
E638
E670
7FF0
3FC0
0600
0600
ENDCHAR
STARTCHAR 0425
ENCODING 1061
SWIDTH 565 0
DWIDTH 11 0
BBX 11 12 0 0
BITMAP
F1C0
71C0
3B80
3B00
1F00
1E00
1E00
1F00
3B80
3380
71C0
E1E0
ENDCHAR
STARTCHAR 0426
ENCODING 1062
SWIDTH 668 0
DWIDTH 13 0
BBX 11 15 1 -3
BITMAP
E1C0
E1C0
E1C0
E1C0
E1C0
E1C0
E1C0
E1C0
E1C0
E1C0
FFE0
FFE0
0060
0060
0060
ENDCHAR
STARTCHAR 0427
ENCODING 1063
SWIDTH 617 0
DWIDTH 12 0
BBX 10 12 1 0
BITMAP
E1C0
E1C0
E1C0
E1C0
E1C0
7FC0
3FC0
01C0
01C0
01C0
01C0
01C0
ENDCHAR
STARTCHAR 0428
ENCODING 1064
SWIDTH 874 0
DWIDTH 17 0
BBX 15 12 1 0
BITMAP
E38E
E38E
E38E
E38E
E38E
E38E
E38E
E38E
E38E
E38E
FFFE
FFFE
ENDCHAR
STARTCHAR 0429
ENCODING 1065
SWIDTH 925 0
DWIDTH 18 0
BBX 16 15 1 -3
BITMAP
E38E
E38E
E38E
E38E
E38E
E38E
E38E
E38E
E38E
E38E
FFFF
FFFF
0003
0003
0003
ENDCHAR
STARTCHAR 042A
ENCODING 1066
SWIDTH 720 0
DWIDTH 14 0
BBX 13 12 0 0
BITMAP
FE00
FE00
0E00
0E00
0FE0
0FF0
0E38
0E38
0E38
0E38
0FF0
0FE0
ENDCHAR
STARTCHAR 042B
ENCODING 1067
SWIDTH 822 0
DWIDTH 16 0
BBX 14 12 1 0
BITMAP
E01C
E01C
E01C
E01C
FE1C
FF9C
E39C
E19C
E19C
E39C
FF9C
FE1C
ENDCHAR
STARTCHAR 042C
ENCODING 1068
SWIDTH 565 0
DWIDTH 11 0
BBX 10 12 1 0
BITMAP
E000
E000
E000
E000
FF00
FF80
E380
E1C0
E1C0
E380
FF80
FF00
ENDCHAR
STARTCHAR 042D
ENCODING 1069
SWIDTH 565 0
DWIDTH 11 0
BBX 10 12 0 0
BITMAP
3E00
7F80
2380
01C0
01C0
1FC0
1FC0
01C0
01C0
6380
FF80
3E00
ENDCHAR
STARTCHAR 042E
ENCODING 1070
SWIDTH 925 0
DWIDTH 18 0
BBX 16 12 1 0
BITMAP
E0F8
E1FE
E38E
E387
E307
FF07
FF07
E707
E387
E38E
E1FE
E0F8
ENDCHAR
STARTCHAR 042F
ENCODING 1071
SWIDTH 617 0
DWIDTH 12 0
BBX 10 12 0 0
BITMAP
1FC0
3FC0
71C0
71C0
71C0
3FC0
1FC0
1DC0
39C0
39C0
71C0
F1C0
ENDCHAR
STARTCHAR 0430
ENCODING 1072
SWIDTH 514 0
DWIDTH 10 0
BBX 8 9 1 0
BITMAP
7C
FE
47
3F
7F
E7
E7
FF
73
ENDCHAR
STARTCHAR 0431
ENCODING 1073
SWIDTH 565 0
DWIDTH 11 0
BBX 9 15 1 0
BITMAP
0100
0F00
3F80
7000
E000
E000
FE00
FF00
E380
C380
E380
E380
6700
7F00
3E00
ENDCHAR
STARTCHAR 0432
ENCODING 1074
SWIDTH 514 0
DWIDTH 10 0
BBX 8 9 1 0
BITMAP
FE
FF
E7
FE
FF
E3
E3
FF
FE
ENDCHAR
STARTCHAR 0433
ENCODING 1075
SWIDTH 411 0
DWIDTH 8 0
BBX 7 9 1 0
BITMAP
FE
FE
E0
E0
E0
E0
E0
E0
E0
ENDCHAR
STARTCHAR 0434
ENCODING 1076
SWIDTH 565 0
DWIDTH 11 0
BBX 11 12 0 -3
BITMAP
3F80
3F80
3980
3180
3180
3180
7180
FFE0
FFE0
E0E0
E0E0
E0E0
ENDCHAR
STARTCHAR 0435
ENCODING 1077
SWIDTH 514 0
DWIDTH 10 0
BBX 8 9 1 0
BITMAP
3C
7E
E3
FF
FF
E0
E2
7F
3E
ENDCHAR
STARTCHAR 0436
ENCODING 1078
SWIDTH 720 0
DWIDTH 14 0
BBX 14 9 0 0
BITMAP
631C
733C
3B30
1FF0
1FF0
3B30
3338
7318
E31C
ENDCHAR
STARTCHAR 0437
ENCODING 1079
SWIDTH 462 0
DWIDTH 9 0
BBX 7 9 1 0
BITMAP
7C
FE
8E
3C
3E
06
8E
FE
FC
ENDCHAR
STARTCHAR 0438
ENCODING 1080
SWIDTH 565 0
DWIDTH 11 0
BBX 9 9 1 0
BITMAP
E380
E780
E780
EF80
FF80
FB80
F380
F380
E380
ENDCHAR
STARTCHAR 0439
ENCODING 1081
SWIDTH 565 0
DWIDTH 11 0
BBX 9 14 1 0
BITMAP
7300
3700
1E00
0000
0000
E380
E780
E780
EF80
FF80
FB80
F380
F380
E380
ENDCHAR
STARTCHAR 043A
ENCODING 1082
SWIDTH 514 0
DWIDTH 10 0
BBX 9 9 1 0
BITMAP
E380
E700
EE00
FC00
FC00
EE00
E700
E700
E380
ENDCHAR
STARTCHAR 043B
ENCODING 1083
SWIDTH 565 0
DWIDTH 11 0
BBX 10 9 0 0
BITMAP
1FC0
1FC0
39C0
39C0
39C0
31C0
31C0
F1C0
E1C0
ENDCHAR
STARTCHAR 043C
ENCODING 1084
SWIDTH 668 0
DWIDTH 13 0
BBX 10 9 1 0
BITMAP
F1C0
F1C0
F3C0
DBC0
FAC0
FEC0
EEC0
ECC0
E0C0
ENDCHAR
STARTCHAR 043D
ENCODING 1085
SWIDTH 565 0
DWIDTH 11 0
BBX 9 9 1 0
BITMAP
E380
E380
E380
FF80
FF80
E380
E380
E380
E380
ENDCHAR
STARTCHAR 043E
ENCODING 1086
SWIDTH 565 0
DWIDTH 11 0
BBX 9 9 1 0
BITMAP
3C00
7F00
E700
E380
E380
E380
E700
7F00
3C00
ENDCHAR
STARTCHAR 043F
ENCODING 1087
SWIDTH 565 0
DWIDTH 11 0
BBX 9 9 1 0
BITMAP
FF80
FF80
E380
E380
E380
E380
E380
E380
E380
ENDCHAR
STARTCHAR 0440
ENCODING 1088
SWIDTH 565 0
DWIDTH 11 0
BBX 9 13 1 -4
BITMAP
EE00
FF00
F380
E380
E380
E380
E380
FF00
FE00
E000
E000
E000
E000
ENDCHAR
STARTCHAR 0441
ENCODING 1089
SWIDTH 462 0
DWIDTH 9 0
BBX 7 9 1 0
BITMAP
3E
7E
E4
E0
E0
E0
E4
7E
3E
ENDCHAR
STARTCHAR 0442
ENCODING 1090
SWIDTH 462 0
DWIDTH 9 0
BBX 9 9 0 0
BITMAP
FF80
FF80
1C00
1C00
1C00
1C00
1C00
1C00
1C00
ENDCHAR
STARTCHAR 0443
ENCODING 1091
SWIDTH 514 0
DWIDTH 10 0
BBX 10 13 0 -4
BITMAP
E1C0
7180
7380
3300
3B00
3F00
1E00
1E00
0E00
0C00
1C00
7800
7000
ENDCHAR
STARTCHAR 0444
ENCODING 1092
SWIDTH 771 0
DWIDTH 15 0
BBX 13 18 1 -4
BITMAP
0700
0700
0700
0700
0700
3FE0
7FF0
E738
E738
E738
E738
E738
7FF0
3FE0
0700
0700
0700
0700
ENDCHAR
STARTCHAR 0445
ENCODING 1093
SWIDTH 514 0
DWIDTH 10 0
BBX 10 9 0 0
BITMAP
F380
7300
3F00
1E00
1E00
3E00
3700
7380
E3C0
ENDCHAR
STARTCHAR 0446
ENCODING 1094
SWIDTH 565 0
DWIDTH 11 0
BBX 10 12 1 -3
BITMAP
E380
E380
E380
E380
E380
E380
E380
FFC0
FFC0
01C0
01C0
01C0
ENDCHAR
STARTCHAR 0447
ENCODING 1095
SWIDTH 514 0
DWIDTH 10 0
BBX 8 9 1 0
BITMAP
E7
E7
E7
E7
FF
7F
07
07
07
ENDCHAR
STARTCHAR 0448
ENCODING 1096
SWIDTH 771 0
DWIDTH 15 0
BBX 13 9 1 0
BITMAP
E738
E738
E738
E738
E738
E738
E738
FFF8
FFF8
ENDCHAR
STARTCHAR 0449
ENCODING 1097
SWIDTH 822 0
DWIDTH 16 0
BBX 15 12 1 -3
BITMAP
E738
E738
E738
E738
E738
E738
E738
FFFE
FFFE
000C
000C
000C
ENDCHAR
STARTCHAR 044A
ENCODING 1098
SWIDTH 617 0
DWIDTH 12 0
BBX 11 9 0 0
BITMAP
FC00
FC00
1C00
1FC0
1FE0
1CE0
1CE0
1FE0
1FC0
ENDCHAR
STARTCHAR 044B
ENCODING 1099
SWIDTH 720 0
DWIDTH 14 0
BBX 12 9 1 0
BITMAP
E070
E070
E070
FC70
FE70
E770
E770
FE70
FC70
ENDCHAR
STARTCHAR 044C
ENCODING 1100
SWIDTH 514 0
DWIDTH 10 0
BBX 8 9 1 0
BITMAP
E0
E0
E0
FE
FF
E7
E7
FF
FE
ENDCHAR
STARTCHAR 044D
ENCODING 1101
SWIDTH 462 0
DWIDTH 9 0
BBX 8 9 0 0
BITMAP
7C
7E
47
3F
3F
07
47
7E
FC
ENDCHAR
STARTCHAR 044E
ENCODING 1102
SWIDTH 771 0
DWIDTH 15 0
BBX 13 9 1 0
BITMAP
E3E0
E7F0
E738
FE38
FE38
E638
E738
E3F0
E1E0
ENDCHAR
STARTCHAR 044F
ENCODING 1103
SWIDTH 514 0
DWIDTH 10 0
BBX 9 9 0 0
BITMAP
1F80
7F80
7380
7380
3F80
1F80
3B80
7380
F380
ENDCHAR
STARTCHAR 0450
ENCODING 1104
SWIDTH 514 0
DWIDTH 10 0
BBX 8 16 1 0
BITMAP
20
70
F0
38
10
00
00
3C
7E
E3
FF
FF
E0
E2
7F
3E
ENDCHAR
STARTCHAR 0451
ENCODING 1105
SWIDTH 514 0
DWIDTH 10 0
BBX 8 14 1 0
BITMAP
66
67
66
00
00
3C
7E
E3
FF
FF
E0
E2
7F
3E
ENDCHAR
STARTCHAR 0452
ENCODING 1106
SWIDTH 565 0
DWIDTH 11 0
BBX 10 18 0 -4
BITMAP
7000
FE00
7000
7000
7700
7F80
79C0
71C0
71C0
71C0
71C0
71C0
71C0
71C0
01C0
0380
0780
0F00
ENDCHAR
STARTCHAR 0453
ENCODING 1107
SWIDTH 411 0
DWIDTH 8 0
BBX 7 16 1 0
BITMAP
04
0E
1E
18
30
00
00
FE
FE
E0
E0
E0
E0
E0
E0
E0
ENDCHAR
STARTCHAR 0454
ENCODING 1108
SWIDTH 462 0
DWIDTH 9 0
BBX 7 9 1 0
BITMAP
3E
7E
E4
FC
FC
C0
E2
7E
3E
ENDCHAR
STARTCHAR 0455
ENCODING 1109
SWIDTH 411 0
DWIDTH 8 0
BBX 8 9 0 0
BITMAP
3E
7F
72
78
3E
0F
47
7F
BC
ENDCHAR
STARTCHAR 0456
ENCODING 1110
SWIDTH 257 0
DWIDTH 5 0
BBX 3 13 1 0
BITMAP
E0
E0
E0
00
E0
E0
E0
E0
E0
E0
E0
E0
E0
ENDCHAR
STARTCHAR 0457
ENCODING 1111
SWIDTH 257 0
DWIDTH 5 0
BBX 7 14 -1 0
BITMAP
66
EE
66
00
00
38
38
38
38
38
38
38
38
38
ENDCHAR
STARTCHAR 0458
ENCODING 1112
SWIDTH 257 0
DWIDTH 5 0
BBX 5 17 -1 -4
BITMAP
38
38
38
00
38
38
38
38
38
38
38
38
38
38
38
F8
F0
ENDCHAR
STARTCHAR 0459
ENCODING 1113
SWIDTH 771 0
DWIDTH 15 0
BBX 14 9 0 0
BITMAP
1F80
1F80
3980
39F8
39FC
399C
319C
F1FC
E1F8
ENDCHAR
STARTCHAR 045A
ENCODING 1114
SWIDTH 771 0
DWIDTH 15 0
BBX 13 9 1 0
BITMAP
E380
E380
E380
FFF0
FFF8
E398
E3B8
E3F8
E3F0
ENDCHAR
STARTCHAR 045B
ENCODING 1115
SWIDTH 565 0
DWIDTH 11 0
BBX 10 14 0 0
BITMAP
7000
FE00
FE00
7000
7000
7780
7F80
79C0
71C0
71C0
71C0
71C0
71C0
71C0
ENDCHAR
STARTCHAR 045C
ENCODING 1116
SWIDTH 514 0
DWIDTH 10 0
BBX 9 16 1 0
BITMAP
0200
0700
0F00
0C00
1800
0000
0000
E380
E700
EE00
FC00
FC00
EE00
E700
E700
E380
ENDCHAR
STARTCHAR 045D
ENCODING 1117
SWIDTH 565 0
DWIDTH 11 0
BBX 9 16 1 0
BITMAP
2000
7000
3800
1C00
0800
0000
0000
E380
E780
E780
EF80
FF80
FB80
F380
F380
E380
ENDCHAR
STARTCHAR 045E
ENCODING 1118
SWIDTH 514 0
DWIDTH 10 0
BBX 10 18 0 -4
BITMAP
3300
3300
1E00
0000
0000
E1C0
7180
7380
3300
3B00
3F00
1E00
1E00
0E00
0C00
1C00
7800
7000
ENDCHAR
STARTCHAR 045F
ENCODING 1119
SWIDTH 565 0
DWIDTH 11 0
BBX 9 12 1 -3
BITMAP
E380
E380
E380
E380
E380
E380
E380
FF80
FF80
1C00
1C00
1C00
ENDCHAR
STARTCHAR 0462
ENCODING 1122
SWIDTH 617 0
DWIDTH 12 0
BBX 11 13 0 0
BITMAP
1C00
1C00
FFC0
FFC0
1C00
1C00
1F80
1FE0
1CE0
1CE0
1CE0
1FC0
1F80
ENDCHAR
STARTCHAR 0463
ENCODING 1123
SWIDTH 565 0
DWIDTH 11 0
BBX 11 12 0 0
BITMAP
1C00
1C00
FF80
FF80
1C00
1C00
1F80
1FC0
1CE0
1CE0
1FC0
1F80
ENDCHAR
STARTCHAR 0472
ENCODING 1138
SWIDTH 668 0
DWIDTH 13 0
BBX 11 12 1 0
BITMAP
1F00
7FC0
71C0
E0E0
E0E0
FFE0
FFE0
E0E0
E0E0
71C0
7FC0
1F00
ENDCHAR
STARTCHAR 0473
ENCODING 1139
SWIDTH 565 0
DWIDTH 11 0
BBX 9 9 1 0
BITMAP
3E00
7F00
E300
FF80
FF80
C380
E300
7F00
3E00
ENDCHAR
STARTCHAR 0474
ENCODING 1140
SWIDTH 565 0
DWIDTH 11 0
BBX 12 12 0 0
BITMAP
E0F0
E0E0
61C0
7180
7180
3380
3B80
3B00
1B00
1F00
1F00
1E00
ENDCHAR
STARTCHAR 0475
ENCODING 1141
SWIDTH 514 0
DWIDTH 10 0
BBX 11 9 0 0
BITMAP
E1E0
61C0
7380
7300
3300
3F00
1E00
1E00
1E00
ENDCHAR
STARTCHAR 0490
ENCODING 1168
SWIDTH 514 0
DWIDTH 10 0
BBX 8 16 1 0
BITMAP
03
03
03
03
FF
FF
E0
E0
E0
E0
E0
E0
E0
E0
E0
E0
ENDCHAR
STARTCHAR 0491
ENCODING 1169
SWIDTH 411 0
DWIDTH 8 0
BBX 7 12 1 0
BITMAP
06
0E
0E
FE
FE
E0
E0
E0
E0
E0
E0
E0
ENDCHAR
STARTCHAR 0492
ENCODING 1170
SWIDTH 514 0
DWIDTH 10 0
BBX 10 12 0 0
BITMAP
3FC0
3FC0
3800
3800
3800
FE00
FE00
3800
3800
3800
3800
3800
ENDCHAR
STARTCHAR 0493
ENCODING 1171
SWIDTH 462 0
DWIDTH 9 0
BBX 8 9 0 0
BITMAP
3F
3F
38
38
FE
FE
38
38
38
ENDCHAR
STARTCHAR 0496
ENCODING 1174
SWIDTH 874 0
DWIDTH 17 0
BBX 17 15 0 -3
BITMAP
E1C700
71CF00
39CC00
19DC00
1DD800
1FF800
1FF800
19DC00
39CC00
71CE00
71C780
E1C780
000380
000380
000380
ENDCHAR
STARTCHAR 0497
ENCODING 1175
SWIDTH 771 0
DWIDTH 15 0
BBX 15 12 0 -3
BITMAP
631C
733C
3B30
1FF0
1FF0
3B30
3338
731E
E31E
000E
000E
000E
ENDCHAR
STARTCHAR 0498
ENCODING 1176
SWIDTH 565 0
DWIDTH 11 0
BBX 9 15 1 -3
BITMAP
7E00
FF00
4700
0380
0700
3E00
3F00
0380
0380
4380
FF00
7E00
1C00
1C00
1C00
ENDCHAR
STARTCHAR 0499
ENCODING 1177
SWIDTH 462 0
DWIDTH 9 0
BBX 7 12 1 -3
BITMAP
7C
FE
8E
3E
3C
06
8E
FE
FC
38
38
38
ENDCHAR
STARTCHAR 049A
ENCODING 1178
SWIDTH 668 0
DWIDTH 13 0
BBX 11 15 1 -3
BITMAP
E0E0
E1C0
E380
E700
E700
FE00
FE00
E700
E300
E380
E1E0
E0E0
0060
0060
0060
ENDCHAR
STARTCHAR 049B
ENCODING 1179
SWIDTH 565 0
DWIDTH 11 0
BBX 10 12 1 -3
BITMAP
E380
E700
EE00
FC00
FC00
EE00
E700
E7C0
E3C0
01C0
01C0
01C0
ENDCHAR
STARTCHAR 04A0
ENCODING 1184
SWIDTH 720 0
DWIDTH 14 0
BBX 14 12 0 0
BITMAP
FE1C
FE3C
0E70
0E60
0EE0
0FC0
0FE0
0EE0
0E70
0E38
0E38
0E1C
ENDCHAR
STARTCHAR 04A1
ENCODING 1185
SWIDTH 617 0
DWIDTH 12 0
BBX 12 9 0 0
BITMAP
FC70
FCE0
1DC0
1F80
1FC0
1DC0
1CE0
1CE0
1C70
ENDCHAR
STARTCHAR 04A2
ENCODING 1186
SWIDTH 668 0
DWIDTH 13 0
BBX 12 15 1 -3
BITMAP
E0C0
E0C0
E0C0
E0C0
E0C0
FFC0
FFC0
E0C0
E0C0
E0C0
E0F0
E0F0
0070
0070
0070
ENDCHAR
STARTCHAR 04A3
ENCODING 1187
SWIDTH 617 0
DWIDTH 12 0
BBX 10 12 1 -3
BITMAP
E380
E380
E380
FF80
FF80
E380
E380
E3C0
E3C0
00C0
00C0
00C0
ENDCHAR
STARTCHAR 04AA
ENCODING 1194
SWIDTH 565 0
DWIDTH 11 0
BBX 10 15 1 -3
BITMAP
1F00
3F80
7100
E000
E000
E000
E000
E000
E000
7180
7FC0
1F00
0E00
0E00
0E00
ENDCHAR
STARTCHAR 04AB
ENCODING 1195
SWIDTH 462 0
DWIDTH 9 0
BBX 7 12 1 -3
BITMAP
3E
7E
E4
E0
E0
E0
E4
7E
3E
1C
1C
18
ENDCHAR
STARTCHAR 04AE
ENCODING 1198
SWIDTH 514 0
DWIDTH 10 0
BBX 10 12 0 0
BITMAP
E1C0
6180
7380
3300
3F00
1E00
1E00
1E00
0C00
0C00
0C00
0C00
ENDCHAR
STARTCHAR 04AF
ENCODING 1199
SWIDTH 514 0
DWIDTH 10 0
BBX 10 13 0 -4
BITMAP
E1C0
6180
7380
3300
3300
3F00
1E00
1E00
1E00
0C00
0C00
0C00
0C00
ENDCHAR
STARTCHAR 04B0
ENCODING 1200
SWIDTH 514 0
DWIDTH 10 0
BBX 10 12 0 0
BITMAP
E1C0
6180
7380
7300
3F00
3F00
1E00
7F80
7F80
0C00
0C00
0C00
ENDCHAR
STARTCHAR 04B1
ENCODING 1201
SWIDTH 514 0
DWIDTH 10 0
BBX 10 13 0 -4
BITMAP
E1C0
6180
7380
3300
3300
3F00
1E00
1E00
7F80
0C00
0C00
0C00
0C00
ENDCHAR
STARTCHAR 04B2
ENCODING 1202
SWIDTH 617 0
DWIDTH 12 0
BBX 11 15 0 -3
BITMAP
F1C0
71C0
3B80
3B00
1F00
0E00
1E00
1F00
3B00
3380
71E0
E1E0
0060
0060
0060
ENDCHAR
STARTCHAR 04B3
ENCODING 1203
SWIDTH 514 0
DWIDTH 10 0
BBX 10 12 0 -3
BITMAP
F380
7300
3F00
1E00
1E00
3E00
3700
73C0
63C0
80C0
00C0
00C0
ENDCHAR
STARTCHAR 04B6
ENCODING 1206
SWIDTH 617 0
DWIDTH 12 0
BBX 11 15 1 -3
BITMAP
E1C0
E1C0
E1C0
E1C0
E1C0
7FC0
3FC0
01C0
01C0
01C0
01E0
01E0
00E0
00E0
00E0
ENDCHAR
STARTCHAR 04B7
ENCODING 1207
SWIDTH 565 0
DWIDTH 11 0
BBX 10 12 1 -3
BITMAP
E700
E700
E700
E700
FF00
7F00
0700
07C0
07C0
01C0
01C0
0180
ENDCHAR
STARTCHAR 04BA
ENCODING 1210
SWIDTH 617 0
DWIDTH 12 0
BBX 10 12 1 0
BITMAP
E000
E000
E000
E000
FF00
FF80
E1C0
E1C0
E1C0
E1C0
E1C0
E1C0
ENDCHAR
STARTCHAR 04BB
ENCODING 1211
SWIDTH 565 0
DWIDTH 11 0
BBX 9 14 1 0
BITMAP
E000
E000
E000
E000
E000
EF00
FF00
F380
E380
E380
E380
E380
E380
E380
ENDCHAR
STARTCHAR 04C0
ENCODING 1216
SWIDTH 308 0
DWIDTH 6 0
BBX 3 12 1 0
BITMAP
E0
E0
E0
E0
E0
E0
E0
E0
E0
E0
E0
E0
ENDCHAR
STARTCHAR 04C1
ENCODING 1217
SWIDTH 822 0
DWIDTH 16 0
BBX 16 15 0 0
BITMAP
0670
03E0
0000
E1C7
71CF
39CC
19DC
1DD8
1FF8
1FF8
19DC
39CC
71CE
71C7
E1C7
ENDCHAR
STARTCHAR 04C2
ENCODING 1218
SWIDTH 720 0
DWIDTH 14 0
BBX 14 14 0 0
BITMAP
0CC0
0CC0
0780
0000
0000
631C
733C
3B30
1FF0
1FF0
3B30
3338
7318
E31C
ENDCHAR
STARTCHAR 04CF
ENCODING 1231
SWIDTH 257 0
DWIDTH 5 0
BBX 4 14 1 0
BITMAP
E0
E0
E0
E0
E0
E0
E0
E0
E0
E0
E0
E0
F0
70
ENDCHAR
STARTCHAR 04D0
ENCODING 1232
SWIDTH 565 0
DWIDTH 11 0
BBX 11 15 0 0
BITMAP
3B80
1F00
0000
0E00
1F00
1B00
1B00
3B80
3380
3180
7FC0
7FC0
61C0
E0E0
E0E0
ENDCHAR
STARTCHAR 04D1
ENCODING 1233
SWIDTH 514 0
DWIDTH 10 0
BBX 8 14 1 0
BITMAP
66
66
3C
00
00
7C
FE
47
3F
7F
E7
E7
FF
73
ENDCHAR
STARTCHAR 04D4
ENCODING 1236
SWIDTH 822 0
DWIDTH 16 0
BBX 15 12 0 0
BITMAP
07FE
07FE
0FC0
0FC0
1DC0
1DFC
39FC
3FC0
7FC0
71C0
E1FE
E1FE
ENDCHAR
STARTCHAR 04D5
ENCODING 1237
SWIDTH 771 0
DWIDTH 15 0
BBX 13 9 1 0
BITMAP
3CF0
FFF8
4718
3FF8
7FF8
E700
E710
FFF8
79F0
ENDCHAR
STARTCHAR 04D6
ENCODING 1238
SWIDTH 514 0
DWIDTH 10 0
BBX 8 15 1 0
BITMAP
77
3E
00
FF
FF
E0
E0
E0
FE
FE
E0
E0
E0
FF
FF
ENDCHAR
STARTCHAR 04D7
ENCODING 1239
SWIDTH 514 0
DWIDTH 10 0
BBX 8 14 1 0
BITMAP
66
66
3C
00
00
3C
7E
E3
FF
FF
E0
E2
7F
3E
ENDCHAR
STARTCHAR 04D8
ENCODING 1240
SWIDTH 668 0
DWIDTH 13 0
BBX 11 12 1 0
BITMAP
1F00
7F80
21C0
00E0
00E0
FFE0
FFE0
E0E0
E0E0
71C0
7F80
1F00
ENDCHAR
STARTCHAR 04D9
ENCODING 1241
SWIDTH 514 0
DWIDTH 10 0
BBX 8 9 1 0
BITMAP
7C
FE
87
07
FF
FF
C7
FE
3C
ENDCHAR
STARTCHAR 04E2
ENCODING 1250
SWIDTH 668 0
DWIDTH 13 0
BBX 10 16 1 0
BITMAP
1F00
1F00
0000
0000
E1C0
E1C0
E3C0
E3C0
E6C0
EEC0
ECC0
FCC0
F8C0
F8C0
F0C0
F0C0
ENDCHAR
STARTCHAR 04E3
ENCODING 1251
SWIDTH 565 0
DWIDTH 11 0
BBX 9 13 1 0
BITMAP
3E00
3E00
0000
0000
E380
E780
E780
EF80
FF80
FB80
F380
F380
E380
ENDCHAR
STARTCHAR 04E6
ENCODING 1254
SWIDTH 668 0
DWIDTH 13 0
BBX 11 16 1 0
BITMAP
3180
3B80
3180
0000
1F00
7FC0
71C0
E0E0
E0E0
E0E0
E0E0
E0E0
E0E0
71C0
3F80
1F00
ENDCHAR
STARTCHAR 04E7
ENCODING 1255
SWIDTH 565 0
DWIDTH 11 0
BBX 9 14 1 0
BITMAP
6600
7700
6600
0000
0000
3C00
7F00
E700
E380
E380
E380
E700
7F00
3C00
ENDCHAR
STARTCHAR 04E8
ENCODING 1256
SWIDTH 668 0
DWIDTH 13 0
BBX 11 12 1 0
BITMAP
1F00
7FC0
71C0
E0E0
E0E0
FFE0
FFE0
E0E0
E0E0
71C0
7FC0
1F00
ENDCHAR
STARTCHAR 04E9
ENCODING 1257
SWIDTH 565 0
DWIDTH 11 0
BBX 9 9 1 0
BITMAP
3E00
7F00
E300
FF80
FF80
C380
E300
7F00
3E00
ENDCHAR
STARTCHAR 04EE
ENCODING 1262
SWIDTH 565 0
DWIDTH 11 0
BBX 11 16 0 0
BITMAP
1F00
1F00
0000
0000
E0E0
71C0
71C0
3380
3B80
1B00
1F00
0F00
0E00
0E00
3C00
7800
ENDCHAR
STARTCHAR 04EF
ENCODING 1263
SWIDTH 514 0
DWIDTH 10 0
BBX 10 17 0 -4
BITMAP
3F00
3F00
0000
0000
E1C0
7180
7380
3300
3B00
3F00
1E00
1E00
0E00
0C00
1C00
7800
7000
ENDCHAR
STARTCHAR 04F2
ENCODING 1266
SWIDTH 565 0
DWIDTH 11 0
BBX 11 17 0 0
BITMAP
0C80
0FC0
1980
1B00
0000
E0E0
71C0
71C0
3380
3B80
1B00
1F00
0F00
0E00
0E00
3C00
7800
ENDCHAR
STARTCHAR 04F3
ENCODING 1267
SWIDTH 514 0
DWIDTH 10 0
BBX 10 19 0 -4
BITMAP
0900
0DC0
1980
1300
0000
0000
E1C0
7180
7380
3300
3B00
3F00
1E00
1E00
0E00
0C00
1C00
7800
7000
ENDCHAR
STARTCHAR 1D43
ENCODING 7491
SWIDTH 360 0
DWIDTH 7 0
BBX 5 7 1 7
BITMAP
70
F8
98
78
98
F8
F8
ENDCHAR
STARTCHAR 1D47
ENCODING 7495
SWIDTH 360 0
DWIDTH 7 0
BBX 6 9 1 7
BITMAP
C0
C0
F8
F8
CC
CC
CC
F8
B8
ENDCHAR
STARTCHAR 1D48
ENCODING 7496
SWIDTH 360 0
DWIDTH 7 0
BBX 7 9 0 7
BITMAP
06
06
36
7E
66
E6
66
7E
36
ENDCHAR
STARTCHAR 1D49
ENCODING 7497
SWIDTH 360 0
DWIDTH 7 0
BBX 6 7 0 7
BITMAP
38
7C
4C
FC
60
7C
38
ENDCHAR
STARTCHAR 1D4D
ENCODING 7501
SWIDTH 360 0
DWIDTH 7 0
BBX 7 9 0 5
BITMAP
3E
6C
4C
6C
78
40
7C
C6
7C
ENDCHAR
STARTCHAR 1D4F
ENCODING 7503
SWIDTH 360 0
DWIDTH 7 0
BBX 6 9 1 7
BITMAP
C0
C0
C0
DC
F0
F0
F0
D8
CC
ENDCHAR
STARTCHAR 1D50
ENCODING 7504
SWIDTH 565 0
DWIDTH 11 0
BBX 9 7 1 7
BITMAP
BB80
FF80
DD80
CD80
CD80
CD80
CD80
ENDCHAR
STARTCHAR 1D52
ENCODING 7506
SWIDTH 360 0
DWIDTH 7 0
BBX 7 7 0 7
BITMAP
38
7C
6C
C6
6E
7C
38
ENDCHAR
STARTCHAR 1D56
ENCODING 7510
SWIDTH 360 0
DWIDTH 7 0
BBX 6 9 1 5
BITMAP
B8
F8
CC
CC
CC
F8
F8
C0
C0
ENDCHAR
STARTCHAR 1D57
ENCODING 7511
SWIDTH 257 0
DWIDTH 5 0
BBX 5 9 0 7
BITMAP
60
60
F8
F8
60
60
60
78
38
ENDCHAR
STARTCHAR 1D58
ENCODING 7512
SWIDTH 360 0
DWIDTH 7 0
BBX 6 7 1 7
BITMAP
CC
CC
CC
CC
DC
FC
EC
ENDCHAR
STARTCHAR 1D5B
ENCODING 7515
SWIDTH 360 0
DWIDTH 7 0
BBX 7 7 0 7
BITMAP
C6
4C
6C
6C
68
38
38
ENDCHAR
STARTCHAR 1D9C
ENCODING 7580
SWIDTH 308 0
DWIDTH 6 0
BBX 6 7 0 7
BITMAP
38
7C
60
C0
60
78
3C
ENDCHAR
STARTCHAR 1DA0
ENCODING 7584
SWIDTH 205 0
DWIDTH 4 0
BBX 5 9 0 7
BITMAP
38
78
60
F0
F0
60
60
60
60
ENDCHAR
STARTCHAR 1DBB
ENCODING 7611
SWIDTH 308 0
DWIDTH 6 0
BBX 6 6 0 7
BITMAP
7C
7C
38
70
FC
FC
ENDCHAR
STARTCHAR 1E06
ENCODING 7686
SWIDTH 617 0
DWIDTH 12 0
BBX 10 16 1 -4
BITMAP
FF00
FF80
E380
E180
E380
FF00
FF80
E1C0
E1C0
E1C0
FF80
FF00
0000
0000
3F00
3F00
ENDCHAR
STARTCHAR 1E07
ENCODING 7687
SWIDTH 565 0
DWIDTH 11 0
BBX 9 18 1 -4
BITMAP
E000
E000
E000
E000
E000
EE00
FF00
E380
E380
E380
E380
E380
FF00
EE00
0000
0000
3E00
3E00
ENDCHAR
STARTCHAR 1E0C
ENCODING 7692
SWIDTH 617 0
DWIDTH 12 0
BBX 10 16 1 -4
BITMAP
FE00
FF80
E380
E1C0
E1C0
E1C0
E1C0
E1C0
E1C0
E380
FF80
FE00
0000
0C00
1C00
0C00
ENDCHAR
STARTCHAR 1E0D
ENCODING 7693
SWIDTH 565 0
DWIDTH 11 0
BBX 9 18 1 -4
BITMAP
0380
0380
0380
0380
0380
3B80
7F80
E380
E380
E380
E380
E780
7F80
3B80
0000
0C00
1C00
0C00
ENDCHAR
STARTCHAR 1E0E
ENCODING 7694
SWIDTH 617 0
DWIDTH 12 0
BBX 10 16 1 -4
BITMAP
FE00
FF80
E380
E1C0
E1C0
E1C0
E1C0
E1C0
E1C0
E380
FF80
FE00
0000
0000
3F00
3F00
ENDCHAR
STARTCHAR 1E0F
ENCODING 7695
SWIDTH 565 0
DWIDTH 11 0
BBX 9 18 1 -4
BITMAP
0380
0380
0380
0380
0380
3B80
7F80
E380
E380
E380
E380
E780
7F80
3B80
0000
0000
3F00
3F00
ENDCHAR
STARTCHAR 1E16
ENCODING 7702
SWIDTH 514 0
DWIDTH 10 0
BBX 8 20 1 0
BITMAP
04
0E
18
00
3E
3E
00
00
FF
FF
E0
E0
E0
FE
FE
E0
E0
E0
FF
FF
ENDCHAR
STARTCHAR 1E17
ENCODING 7703
SWIDTH 514 0
DWIDTH 10 0
BBX 8 17 1 0
BITMAP
04
1E
10
00
7E
7E
00
00
3C
7E
E3
FF
FF
E0
E2
7F
3E
ENDCHAR
STARTCHAR 1E20
ENCODING 7712
SWIDTH 617 0
DWIDTH 12 0
BBX 10 16 1 0
BITMAP
1F80
1F80
0000
0000
1F00
3FC0
7080
E000
E000
E7C0
E7C0
E0C0
E0C0
70C0
3FC0
1F80
ENDCHAR
STARTCHAR 1E21
ENCODING 7713
SWIDTH 514 0
DWIDTH 10 0
BBX 9 17 1 -4
BITMAP
7E00
7E00
0000
0000
7F80
FF80
E600
E700
7E00
7C00
C000
FF00
7F80
C380
C380
FF00
7C00
ENDCHAR
STARTCHAR 1E24
ENCODING 7716
SWIDTH 668 0
DWIDTH 13 0
BBX 10 16 1 -4
BITMAP
E0C0
E0C0
E0C0
E0C0
E0C0
FFC0
FFC0
E0C0
E0C0
E0C0
E0C0
E0C0
0000
0E00
0E00
0E00
ENDCHAR
STARTCHAR 1E25
ENCODING 7717
SWIDTH 565 0
DWIDTH 11 0
BBX 9 18 1 -4
BITMAP
E000
E000
E000
E000
E000
EF00
FF00
F380
E380
E380
E380
E380
E380
E380
0000
1C00
1C00
1C00
ENDCHAR
STARTCHAR 1E2A
ENCODING 7722
SWIDTH 668 0
DWIDTH 13 0
BBX 10 16 1 -4
BITMAP
E0C0
E0C0
E0C0
E0C0
E0C0
FFC0
FFC0
E0C0
E0C0
E0C0
E0C0
E0C0
0000
3180
1F00
1E00
ENDCHAR
STARTCHAR 1E2B
ENCODING 7723
SWIDTH 565 0
DWIDTH 11 0
BBX 9 18 1 -4
BITMAP
E000
E000
E000
E000
E000
EF00
FF00
F380
E380
E380
E380
E380
E380
E380
0000
6300
3E00
1E00
ENDCHAR
STARTCHAR 1E32
ENCODING 7730
SWIDTH 617 0
DWIDTH 12 0
BBX 11 16 1 -4
BITMAP
E1C0
E380
E700
EE00
EE00
FE00
FE00
F700
E380
E380
E1C0
E1C0
0020
0C00
0E00
0C00
ENDCHAR
STARTCHAR 1E33
ENCODING 7731
SWIDTH 514 0
DWIDTH 10 0
BBX 9 18 1 -4
BITMAP
E000
E000
E000
E000
E000
E380
E700
EE00
FC00
FC00
FE00
E700
E700
E380
0000
1C00
1C00
1C00
ENDCHAR
STARTCHAR 1E34
ENCODING 7732
SWIDTH 617 0
DWIDTH 12 0
BBX 11 16 1 -4
BITMAP
E1C0
E380
E700
EE00
EE00
FE00
FE00
F700
E380
E380
E1C0
E1C0
0020
0000
3F00
3F00
ENDCHAR
STARTCHAR 1E35
ENCODING 7733
SWIDTH 514 0
DWIDTH 10 0
BBX 9 18 1 -4
BITMAP
E000
E000
E000
E000
E000
E380
E700
EE00
FC00
FC00
FE00
E700
E700
E380
0000
0000
3E00
3E00
ENDCHAR
STARTCHAR 1E36
ENCODING 7734
SWIDTH 514 0
DWIDTH 10 0
BBX 8 16 1 -4
BITMAP
E0
E0
E0
E0
E0
E0
E0
E0
E0
E0
FF
FF
00
1C
1C
1C
ENDCHAR
STARTCHAR 1E37
ENCODING 7735
SWIDTH 257 0
DWIDTH 5 0
BBX 4 18 1 -4
BITMAP
E0
E0
E0
E0
E0
E0
E0
E0
E0
E0
E0
E0
F0
70
00
70
70
70
ENDCHAR
STARTCHAR 1E38
ENCODING 7736
SWIDTH 514 0
DWIDTH 10 0
BBX 9 20 0 -4
BITMAP
FC00
FC00
0000
0000
7000
7000
7000
7000
7000
7000
7000
7000
7000
7000
7F80
7F80
0000
0E00
0E00
0E00
ENDCHAR
STARTCHAR 1E39
ENCODING 7737
SWIDTH 257 0
DWIDTH 5 0
BBX 5 21 0 -4
BITMAP
F8
F8
00
70
70
70
70
70
70
70
70
70
70
70
70
78
38
00
38
38
38
ENDCHAR
STARTCHAR 1E3A
ENCODING 7738
SWIDTH 514 0
DWIDTH 10 0
BBX 8 16 1 -4
BITMAP
E0
E0
E0
E0
E0
E0
E0
E0
E0
E0
FF
FF
00
00
3E
3E
ENDCHAR
STARTCHAR 1E3B
ENCODING 7739
SWIDTH 257 0
DWIDTH 5 0
BBX 5 18 1 -4
BITMAP
E0
E0
E0
E0
E0
E0
E0
E0
E0
E0
E0
E0
F0
70
00
00
F8
F8
ENDCHAR
STARTCHAR 1E3E
ENCODING 7742
SWIDTH 720 0
DWIDTH 14 0
BBX 12 17 1 0
BITMAP
0100
0380
0740
0200
0000
F070
F0F0
F0F0
F8F0
F9B0
FDB0
EDB0
EF70
EF70
E770
E670
E070
ENDCHAR
STARTCHAR 1E3F
ENCODING 7743
SWIDTH 822 0
DWIDTH 16 0
BBX 14 16 1 0
BITMAP
0040
00E0
01C0
0380
0100
0000
0000
EF78
FFFC
F39C
E39C
E39C
E39C
E39C
E39C
E39C
ENDCHAR
STARTCHAR 1E40
ENCODING 7744
SWIDTH 720 0
DWIDTH 14 0
BBX 12 16 1 0
BITMAP
0600
0700
0600
0000
F070
F0F0
F0F0
F8F0
F9B0
FDB0
EDB0
EF70
EF70
E770
E670
E070
ENDCHAR
STARTCHAR 1E41
ENCODING 7745
SWIDTH 822 0
DWIDTH 16 0
BBX 14 14 1 0
BITMAP
0380
0380
0380
0000
0000
EF78
FFFC
F39C
E39C
E39C
E39C
E39C
E39C
E39C
ENDCHAR
STARTCHAR 1E42
ENCODING 7746
SWIDTH 720 0
DWIDTH 14 0
BBX 12 16 1 -4
BITMAP
F070
F0F0
F0F0
F8F0
F9B0
FDB0
EDB0
EF70
EF70
E770
E670
E070
0000
0600
0700
0600
ENDCHAR
STARTCHAR 1E43
ENCODING 7747
SWIDTH 822 0
DWIDTH 16 0
BBX 14 13 1 -4
BITMAP
EF78
FFFC
F39C
E39C
E39C
E39C
E39C
E39C
E39C
0000
0380
0380
0380
ENDCHAR
STARTCHAR 1E44
ENCODING 7748
SWIDTH 668 0
DWIDTH 13 0
BBX 10 16 1 0
BITMAP
0E00
0E00
0E00
0000
F0C0
F0C0
F8C0
F8C0
FCC0
ECC0
EEC0
E6C0
E7C0
E3C0
E3C0
E1C0
ENDCHAR
STARTCHAR 1E45
ENCODING 7749
SWIDTH 565 0
DWIDTH 11 0
BBX 9 14 1 0
BITMAP
0C00
1C00
0C00
0000
0000
EF00
FF00
F380
E380
E380
E380
E380
E380
E380
ENDCHAR
STARTCHAR 1E46
ENCODING 7750
SWIDTH 668 0
DWIDTH 13 0
BBX 10 16 1 -4
BITMAP
F0C0
F0C0
F8C0
F8C0
FCC0
ECC0
EEC0
E6C0
E7C0
E3C0
E3C0
E1C0
0000
0E00
0E00
0E00
ENDCHAR
STARTCHAR 1E47
ENCODING 7751
SWIDTH 565 0
DWIDTH 11 0
BBX 9 13 1 -4
BITMAP
EF00
FF00
F380
E380
E380
E380
E380
E380
E380
0000
1C00
1C00
1C00
ENDCHAR
STARTCHAR 1E48
ENCODING 7752
SWIDTH 668 0
DWIDTH 13 0
BBX 10 16 1 -4
BITMAP
F0C0
F0C0
F8C0
F8C0
FCC0
ECC0
EEC0
E6C0
E7C0
E3C0
E3C0
E1C0
0000
0000
1F00
1F00
ENDCHAR
STARTCHAR 1E49
ENCODING 7753
SWIDTH 565 0
DWIDTH 11 0
BBX 9 13 1 -4
BITMAP
EF00
FF00
F380
E380
E380
E380
E380
E380
E380
0000
0000
3E00
3E00
ENDCHAR
STARTCHAR 1E52
ENCODING 7762
SWIDTH 668 0
DWIDTH 13 0
BBX 11 20 1 0
BITMAP
0200
0700
0C00
0000
1F00
1F00
0000
0000
1F00
7FC0
71C0
E0E0
E0E0
E0E0
E0E0
E0E0
E0E0
71C0
3F80
1F00
ENDCHAR
STARTCHAR 1E53
ENCODING 7763
SWIDTH 565 0
DWIDTH 11 0
BBX 9 17 1 0
BITMAP
0400
1E00
1800
0000
7E00
7E00
0000
0000
3C00
7F00
E700
E380
E380
E380
E700
7F00
3C00
ENDCHAR
STARTCHAR 1E58
ENCODING 7768
SWIDTH 617 0
DWIDTH 12 0
BBX 10 16 1 0
BITMAP
0C00
1C00
0C00
0000
FF00
FF80
E3C0
E1C0
E1C0
E380
FF80
FF00
E700
E380
E380
E1C0
ENDCHAR
STARTCHAR 1E59
ENCODING 7769
SWIDTH 411 0
DWIDTH 8 0
BBX 7 14 1 0
BITMAP
38
38
38
00
00
EE
FC
F0
E0
E0
E0
E0
E0
E0
ENDCHAR
STARTCHAR 1E5A
ENCODING 7770
SWIDTH 617 0
DWIDTH 12 0
BBX 10 16 1 -4
BITMAP
FF00
FF80
E3C0
E1C0
E1C0
E380
FF80
FF00
E700
E380
E380
E1C0
0000
0C00
0E00
0C00
ENDCHAR
STARTCHAR 1E5B
ENCODING 7771
SWIDTH 411 0
DWIDTH 8 0
BBX 7 13 1 -4
BITMAP
EE
FC
F0
E0
E0
E0
E0
E0
E0
00
E0
E0
E0
ENDCHAR
STARTCHAR 1E5C
ENCODING 7772
SWIDTH 617 0
DWIDTH 12 0
BBX 10 20 1 -4
BITMAP
3F00
3F00
0000
0000
FF00
FF80
E3C0
E1C0
E1C0
E380
FF80
FF00
E700
E380
E380
E1C0
0000
0C00
0E00
0C00
ENDCHAR
STARTCHAR 1E5D
ENCODING 7773
SWIDTH 411 0
DWIDTH 8 0
BBX 7 17 1 -4
BITMAP
7E
7E
00
00
EE
FC
F0
E0
E0
E0
E0
E0
E0
00
E0
E0
E0
ENDCHAR
STARTCHAR 1E5E
ENCODING 7774
SWIDTH 617 0
DWIDTH 12 0
BBX 10 16 1 -4
BITMAP
FF00
FF80
E3C0
E1C0
E1C0
E380
FF80
FF00
E700
E380
E380
E1C0
0000
0000
3F00
3F00
ENDCHAR
STARTCHAR 1E5F
ENCODING 7775
SWIDTH 411 0
DWIDTH 8 0
BBX 8 13 0 -4
BITMAP
77
7E
78
70
70
70
70
70
70
00
00
F8
F8
ENDCHAR
STARTCHAR 1E60
ENCODING 7776
SWIDTH 565 0
DWIDTH 11 0
BBX 9 16 1 0
BITMAP
1C00
1C00
1C00
0000
3E00
7F80
E300
E000
F000
7E00
3F00
0780
0380
4380
FF00
7E00
ENDCHAR
STARTCHAR 1E61
ENCODING 7777
SWIDTH 411 0
DWIDTH 8 0
BBX 8 14 0 0
BITMAP
1C
1C
1C
00
00
3E
7F
72
78
3E
0F
47
7F
BC
ENDCHAR
STARTCHAR 1E62
ENCODING 7778
SWIDTH 565 0
DWIDTH 11 0
BBX 9 16 1 -4
BITMAP
3E00
7F80
E300
E000
F000
7E00
3F00
0780
0380
4380
FF00
7E00
0000
1800
1C00
1800
ENDCHAR
STARTCHAR 1E63
ENCODING 7779
SWIDTH 411 0
DWIDTH 8 0
BBX 8 13 0 -4
BITMAP
3E
7F
72
78
3E
0F
47
7F
BC
00
1C
1C
1C
ENDCHAR
STARTCHAR 1E6C
ENCODING 7788
SWIDTH 565 0
DWIDTH 11 0
BBX 10 16 0 -4
BITMAP
FFC0
FFC0
0E00
0E00
0E00
0E00
0E00
0E00
0E00
0E00
0E00
0E00
0000
0C00
0E00
0C00
ENDCHAR
STARTCHAR 1E6D
ENCODING 7789
SWIDTH 360 0
DWIDTH 7 0
BBX 7 16 0 -4
BITMAP
30
30
30
FE
FE
30
30
30
30
38
3E
1E
00
1C
1C
1C
ENDCHAR
STARTCHAR 1E6E
ENCODING 7790
SWIDTH 565 0
DWIDTH 11 0
BBX 10 16 0 -4
BITMAP
FFC0
FFC0
0E00
0E00
0E00
0E00
0E00
0E00
0E00
0E00
0E00
0E00
0000
0000
3F00
3F00
ENDCHAR
STARTCHAR 1E6F
ENCODING 7791
SWIDTH 360 0
DWIDTH 7 0
BBX 7 16 0 -4
BITMAP
30
30
30
FE
FE
30
30
30
30
38
3E
1E
00
00
3E
3E
ENDCHAR
STARTCHAR 1E80
ENCODING 7808
SWIDTH 771 0
DWIDTH 15 0
BBX 15 17 0 0
BITMAP
0600
0700
0B80
0100
0000
E18E
638E
73CE
73CE
73CC
76CC
36EC
36FC
367C
3E78
3C78
3C78
ENDCHAR
STARTCHAR 1E81
ENCODING 7809
SWIDTH 771 0
DWIDTH 15 0
BBX 14 16 0 0
BITMAP
0400
0E00
0F00
0300
0180
0000
0000
E38C
739C
739C
76D8
36D8
36D8
3EF8
3CF0
1C70
ENDCHAR
STARTCHAR 1E82
ENCODING 7810
SWIDTH 771 0
DWIDTH 15 0
BBX 15 17 0 0
BITMAP
0040
00E0
03C0
0100
0000
E18E
638E
73CE
73CE
73CC
76CC
36EC
36FC
367C
3E78
3C78
3C78
ENDCHAR
STARTCHAR 1E83
ENCODING 7811
SWIDTH 771 0
DWIDTH 15 0
BBX 14 16 0 0
BITMAP
0040
00E0
01C0
0380
0100
0000
0000
E38C
739C
739C
76D8
36D8
36D8
3EF8
3CF0
1C70
ENDCHAR
STARTCHAR 1E84
ENCODING 7812
SWIDTH 771 0
DWIDTH 15 0
BBX 15 16 0 0
BITMAP
0660
0EE0
0660
0000
E18E
638E
73CE
73CE
73CC
76CC
36EC
36FC
367C
3E78
3C78
3C78
ENDCHAR
STARTCHAR 1E85
ENCODING 7813
SWIDTH 771 0
DWIDTH 15 0
BBX 14 14 0 0
BITMAP
0CE0
0EE0
0CE0
0000
0000
E38C
739C
739C
76D8
36D8
36D8
3EF8
3CF0
1C70
ENDCHAR
STARTCHAR 1E8E
ENCODING 7822
SWIDTH 514 0
DWIDTH 10 0
BBX 10 16 0 0
BITMAP
0C00
1E00
0C00
0000
E1C0
6180
7380
3300
3F00
1E00
1E00
1E00
0C00
0C00
0C00
0C00
ENDCHAR
STARTCHAR 1E8F
ENCODING 7823
SWIDTH 514 0
DWIDTH 10 0
BBX 10 18 0 -4
BITMAP
0C00
0E00
0C00
0000
0000
E1C0
7180
7380
3300
3B00
3F00
1E00
1E00
0E00
0C00
1C00
7800
7000
ENDCHAR
STARTCHAR 1E92
ENCODING 7826
SWIDTH 514 0
DWIDTH 10 0
BBX 9 16 1 -4
BITMAP
FF80
FF00
0700
0E00
0C00
1C00
3800
3800
7000
6000
FF80
FF80
0000
1C00
1C00
1C00
ENDCHAR
STARTCHAR 1E93
ENCODING 7827
SWIDTH 462 0
DWIDTH 9 0
BBX 7 13 1 -4
BITMAP
FE
FE
1C
1C
38
70
70
FE
FE
00
38
38
38
ENDCHAR
STARTCHAR 1E94
ENCODING 7828
SWIDTH 514 0
DWIDTH 10 0
BBX 9 16 1 -4
BITMAP
FF80
FF00
0700
0E00
0C00
1C00
3800
3800
7000
6000
FF80
FF80
0000
0000
3E00
3E00
ENDCHAR
STARTCHAR 1E95
ENCODING 7829
SWIDTH 462 0
DWIDTH 9 0
BBX 7 13 1 -4
BITMAP
FE
FE
1C
1C
38
70
70
FE
FE
00
00
7C
7C
ENDCHAR
STARTCHAR 1E96
ENCODING 7830
SWIDTH 565 0
DWIDTH 11 0
BBX 9 18 1 -4
BITMAP
E000
E000
E000
E000
E000
EF00
FF00
F380
E380
E380
E380
E380
E380
E380
0000
0000
3E00
3E00
ENDCHAR
STARTCHAR 1E97
ENCODING 7831
SWIDTH 360 0
DWIDTH 7 0
BBX 7 17 0 0
BITMAP
CC
CE
CC
00
00
30
30
30
FE
FE
30
30
30
30
38
3E
1E
ENDCHAR
STARTCHAR 1E9E
ENCODING 7838
SWIDTH 668 0
DWIDTH 13 0
BBX 11 12 2 0
BITMAP
3E00
7F80
E380
E3C0
C700
C700
C7C0
C1E0
C0E0
C8E0
CFC0
DF80
ENDCHAR
STARTCHAR 1EA0
ENCODING 7840
SWIDTH 565 0
DWIDTH 11 0
BBX 11 16 0 -4
BITMAP
0E00
1F00
1B00
1B00
3B80
3380
3180
7FC0
7FC0
61C0
E0E0
E0E0
0000
0E00
0E00
0E00
ENDCHAR
STARTCHAR 1EA1
ENCODING 7841
SWIDTH 514 0
DWIDTH 10 0
BBX 8 13 1 -4
BITMAP
7C
FE
47
3F
7F
E7
E7
FF
73
00
18
38
18
ENDCHAR
STARTCHAR 1EA2
ENCODING 7842
SWIDTH 565 0
DWIDTH 11 0
BBX 11 17 0 0
BITMAP
0C00
0E00
0600
0E00
0000
0E00
1F00
1B00
1B00
3B80
3380
3180
7FC0
7FC0
61C0
E0E0
E0E0
ENDCHAR
STARTCHAR 1EA3
ENCODING 7843
SWIDTH 514 0
DWIDTH 10 0
BBX 8 15 1 0
BITMAP
18
1C
0C
1C
10
00
7C
FE
47
3F
7F
E7
E7
FF
73
ENDCHAR
STARTCHAR 1EA4
ENCODING 7844
SWIDTH 565 0
DWIDTH 11 0
BBX 11 17 0 0
BITMAP
0040
0EC0
1B80
3100
0000
0E00
1F00
1B00
1B00
3B80
3380
3180
7FC0
7FC0
61C0
E0E0
E0E0
ENDCHAR
STARTCHAR 1EA5
ENCODING 7845
SWIDTH 514 0
DWIDTH 10 0
BBX 9 15 1 0
BITMAP
0080
1D80
3F00
3600
6200
0000
7C00
FE00
4700
3F00
7F00
E700
E700
FF00
7300
ENDCHAR
STARTCHAR 1EA6
ENCODING 7846
SWIDTH 565 0
DWIDTH 11 0
BBX 11 17 0 0
BITMAP
4000
6E00
3B00
1100
0000
0E00
1F00
1B00
1B00
3B80
3380
3180
7FC0
7FC0
61C0
E0E0
E0E0
ENDCHAR
STARTCHAR 1EA7
ENCODING 7847
SWIDTH 514 0
DWIDTH 10 0
BBX 9 15 0 0
BITMAP
4000
CE00
7E00
1B00
3100
0000
3E00
7F00
2380
1F80
3F80
7380
7380
7F80
3980
ENDCHAR
STARTCHAR 1EA8
ENCODING 7848
SWIDTH 565 0
DWIDTH 11 0
BBX 11 18 0 0
BITMAP
01C0
00C0
0EC0
1B00
3100
0000
0E00
1F00
1B00
1B00
3B80
3380
3180
7FC0
7FC0
61C0
E0E0
E0E0
ENDCHAR
STARTCHAR 1EA9
ENCODING 7849
SWIDTH 514 0
DWIDTH 10 0
BBX 9 15 1 0
BITMAP
0380
1D80
3D00
3600
6200
0000
7C00
FE00
4700
3F00
7F00
E700
E700
FF00
7300
ENDCHAR
STARTCHAR 1EAA
ENCODING 7850
SWIDTH 565 0
DWIDTH 11 0
BBX 11 19 0 0
BITMAP
1D00
1F00
3700
0000
0E00
1B00
3100
0E00
1F00
1B00
1B00
3B80
3380
3180
7FC0
7FC0
61C0
E0E0
E0E0
ENDCHAR
STARTCHAR 1EAB
ENCODING 7851
SWIDTH 514 0
DWIDTH 10 0
BBX 8 18 1 0
BITMAP
32
3E
6C
00
1C
3C
36
62
00
7C
FE
47
3F
7F
E7
E7
FF
73
ENDCHAR
STARTCHAR 1EAC
ENCODING 7852
SWIDTH 565 0
DWIDTH 11 0
BBX 11 20 0 -4
BITMAP
1E00
1B00
3180
0000
0E00
1F00
1B00
1B00
3B80
3380
3180
7FC0
7FC0
61C0
E0E0
E0E0
0000
0E00
0E00
0E00
ENDCHAR
STARTCHAR 1EAD
ENCODING 7853
SWIDTH 514 0
DWIDTH 10 0
BBX 8 18 1 -4
BITMAP
3C
7E
63
00
00
7C
FE
47
3F
7F
E7
E7
FF
73
00
18
38
18
ENDCHAR
STARTCHAR 1EAE
ENCODING 7854
SWIDTH 565 0
DWIDTH 11 0
BBX 11 19 0 0
BITMAP
0200
0700
0600
0C00
3100
1F00
0000
0E00
1F00
1B00
1B00
3B80
3380
3180
7FC0
7FC0
61C0
E0E0
E0E0
ENDCHAR
STARTCHAR 1EAF
ENCODING 7855
SWIDTH 514 0
DWIDTH 10 0
BBX 8 18 1 0
BITMAP
04
0E
1C
08
62
7E
3C
00
00
7C
FE
47
3F
7F
E7
E7
FF
73
ENDCHAR
STARTCHAR 1EB0
ENCODING 7856
SWIDTH 565 0
DWIDTH 11 0
BBX 11 19 0 0
BITMAP
0800
1C00
0C00
0400
3100
1F00
0000
0E00
1F00
1B00
1B00
3B80
3380
3180
7FC0
7FC0
61C0
E0E0
E0E0
ENDCHAR
STARTCHAR 1EB1
ENCODING 7857
SWIDTH 514 0
DWIDTH 10 0
BBX 8 18 1 0
BITMAP
10
30
18
08
62
7E
3C
00
00
7C
FE
47
3F
7F
E7
E7
FF
73
ENDCHAR
STARTCHAR 1EB2
ENCODING 7858
SWIDTH 565 0
DWIDTH 11 0
BBX 11 18 0 0
BITMAP
0C00
0600
0400
3100
1F00
0000
0E00
1F00
1B00
1B00
3B80
3380
3180
7FC0
7FC0
61C0
E0E0
E0E0
ENDCHAR
STARTCHAR 1EB3
ENCODING 7859
SWIDTH 514 0
DWIDTH 10 0
BBX 8 18 1 0
BITMAP
18
1C
0C
18
62
7E
3C
00
00
7C
FE
47
3F
7F
E7
E7
FF
73
ENDCHAR
STARTCHAR 1EB4
ENCODING 7860
SWIDTH 565 0
DWIDTH 11 0
BBX 11 20 0 0
BITMAP
1D00
1F00
3700
0000
3100
1E00
0000
0000
0E00
1F00
1B00
1B00
3B80
3380
3180
7FC0
7FC0
61C0
E0E0
E0E0
ENDCHAR
STARTCHAR 1EB5
ENCODING 7861
SWIDTH 514 0
DWIDTH 10 0
BBX 8 17 1 0
BITMAP
32
7E
6C
00
66
3C
00
00
7C
FE
47
3F
7F
E7
E7
FF
73
ENDCHAR
STARTCHAR 1EB6
ENCODING 7862
SWIDTH 565 0
DWIDTH 11 0
BBX 11 20 0 -4
BITMAP
3100
1F00
1E00
0000
0E00
1F00
1B00
1B00
3B80
3380
3180
7FC0
7FC0
61C0
E0E0
E0E0
0000
0E00
0E00
0E00
ENDCHAR
STARTCHAR 1EB7
ENCODING 7863
SWIDTH 514 0
DWIDTH 10 0
BBX 8 18 1 -4
BITMAP
66
7E
3C
00
00
7C
FE
47
3F
7F
E7
E7
FF
73
00
18
38
18
ENDCHAR
STARTCHAR 1EB8
ENCODING 7864
SWIDTH 514 0
DWIDTH 10 0
BBX 8 16 1 -4
BITMAP
FF
FF
E0
E0
E0
FE
FE
E0
E0
E0
FF
FF
00
1C
1C
1C
ENDCHAR
STARTCHAR 1EB9
ENCODING 7865
SWIDTH 514 0
DWIDTH 10 0
BBX 8 13 1 -4
BITMAP
3C
7E
E3
FF
FF
E0
E2
7F
3E
00
18
1C
18
ENDCHAR
STARTCHAR 1EBA
ENCODING 7866
SWIDTH 514 0
DWIDTH 10 0
BBX 8 17 1 0
BITMAP
18
1C
0C
1C
00
FF
FF
E0
E0
E0
FE
FE
E0
E0
E0
FF
FF
ENDCHAR
STARTCHAR 1EBB
ENCODING 7867
SWIDTH 514 0
DWIDTH 10 0
BBX 8 15 1 0
BITMAP
18
3C
0C
1C
10
00
3C
7E
E3
FF
FF
E0
E2
7F
3E
ENDCHAR
STARTCHAR 1EBC
ENCODING 7868
SWIDTH 514 0
DWIDTH 10 0
BBX 8 16 1 0
BITMAP
3B
7F
6E
00
FF
FF
E0
E0
E0
FE
FE
E0
E0
E0
FF
FF
ENDCHAR
STARTCHAR 1EBD
ENCODING 7869
SWIDTH 514 0
DWIDTH 10 0
BBX 8 14 1 0
BITMAP
73
7F
4E
00
00
3C
7E
E3
FF
FF
E0
E2
7F
3E
ENDCHAR
STARTCHAR 1EBE
ENCODING 7870
SWIDTH 514 0
DWIDTH 10 0
BBX 9 17 1 0
BITMAP
0080
1D80
3700
2200
0000
FF00
FF00
E000
E000
E000
FE00
FE00
E000
E000
E000
FF00
FF00
ENDCHAR
STARTCHAR 1EBF
ENCODING 7871
SWIDTH 514 0
DWIDTH 10 0
BBX 9 15 1 0
BITMAP
0080
1D80
3F00
3600
6200
0000
3C00
7E00
E300
FF00
FF00
E000
E200
7F00
3E00
ENDCHAR
STARTCHAR 1EC0
ENCODING 7872
SWIDTH 514 0
DWIDTH 10 0
BBX 8 17 1 0
BITMAP
80
DC
76
22
00
FF
FF
E0
E0
E0
FE
FE
E0
E0
E0
FF
FF
ENDCHAR
STARTCHAR 1EC1
ENCODING 7873
SWIDTH 514 0
DWIDTH 10 0
BBX 9 15 0 0
BITMAP
C000
CE00
7E00
1B00
3100
0000
1E00
3F00
7180
7F80
7F80
7000
7100
3F80
1F00
ENDCHAR
STARTCHAR 1EC2
ENCODING 7874
SWIDTH 514 0
DWIDTH 10 0
BBX 9 18 1 0
BITMAP
0380
0180
1D80
3600
2200
0000
FF00
FF00
E000
E000
E000
FE00
FE00
E000
E000
E000
FF00
FF00
ENDCHAR
STARTCHAR 1EC3
ENCODING 7875
SWIDTH 514 0
DWIDTH 10 0
BBX 9 15 1 0
BITMAP
0300
1D80
3D00
3600
6200
0000
3C00
7E00
E300
FF00
FF00
E000
E200
7F00
3E00
ENDCHAR
STARTCHAR 1EC4
ENCODING 7876
SWIDTH 514 0
DWIDTH 10 0
BBX 8 19 1 0
BITMAP
3A
3E
26
00
1C
36
22
FF
FF
E0
E0
E0
FE
FE
E0
E0
E0
FF
FF
ENDCHAR
STARTCHAR 1EC5
ENCODING 7877
SWIDTH 514 0
DWIDTH 10 0
BBX 8 18 1 0
BITMAP
32
7E
6C
00
1C
3C
36
62
00
3C
7E
E3
FF
FF
E0
E2
7F
3E
ENDCHAR
STARTCHAR 1EC6
ENCODING 7878
SWIDTH 514 0
DWIDTH 10 0
BBX 8 20 1 -4
BITMAP
1C
36
63
00
FF
FF
E0
E0
E0
FE
FE
E0
E0
E0
FF
FF
00
1C
1C
1C
ENDCHAR
STARTCHAR 1EC7
ENCODING 7879
SWIDTH 514 0
DWIDTH 10 0
BBX 8 18 1 -4
BITMAP
3C
7E
63
00
00
3C
7E
E3
FF
FF
E0
E2
7F
3E
00
18
1C
18
ENDCHAR
STARTCHAR 1EC8
ENCODING 7880
SWIDTH 308 0
DWIDTH 6 0
BBX 4 17 1 0
BITMAP
E0
F0
30
60
00
E0
E0
E0
E0
E0
E0
E0
E0
E0
E0
E0
E0
ENDCHAR
STARTCHAR 1EC9
ENCODING 7881
SWIDTH 257 0
DWIDTH 5 0
BBX 3 15 1 0
BITMAP
C0
E0
60
60
80
00
E0
E0
E0
E0
E0
E0
E0
E0
E0
ENDCHAR
STARTCHAR 1ECA
ENCODING 7882
SWIDTH 308 0
DWIDTH 6 0
BBX 3 16 1 -4
BITMAP
E0
E0
E0
E0
E0
E0
E0
E0
E0
E0
E0
E0
00
60
E0
60
ENDCHAR
STARTCHAR 1ECB
ENCODING 7883
SWIDTH 257 0
DWIDTH 5 0
BBX 3 17 1 -4
BITMAP
E0
E0
E0
00
E0
E0
E0
E0
E0
E0
E0
E0
E0
00
E0
E0
E0
ENDCHAR
STARTCHAR 1ECC
ENCODING 7884
SWIDTH 668 0
DWIDTH 13 0
BBX 11 16 1 -4
BITMAP
1F00
7FC0
71C0
E0E0
E0E0
E0E0
E0E0
E0E0
E0E0
71C0
3F80
1F00
0000
0E00
0E00
0E00
ENDCHAR
STARTCHAR 1ECD
ENCODING 7885
SWIDTH 565 0
DWIDTH 11 0
BBX 9 13 1 -4
BITMAP
3C00
7F00
E700
E380
E380
E380
E700
7F00
3C00
0000
1800
1C00
1800
ENDCHAR
STARTCHAR 1ECE
ENCODING 7886
SWIDTH 668 0
DWIDTH 13 0
BBX 11 17 1 0
BITMAP
0C00
0E00
0600
0E00
0000
1F00
7FC0
71C0
E0E0
E0E0
E0E0
E0E0
E0E0
E0E0
71C0
3F80
1F00
ENDCHAR
STARTCHAR 1ECF
ENCODING 7887
SWIDTH 565 0
DWIDTH 11 0
BBX 9 15 1 0
BITMAP
1800
1C00
0C00
1C00
1000
0000
3C00
7F00
E700
E380
E380
E380
E700
7F00
3C00
ENDCHAR
STARTCHAR 1ED0
ENCODING 7888
SWIDTH 668 0
DWIDTH 13 0
BBX 11 17 1 0
BITMAP
0040
0EC0
1B80
1100
0000
1F00
7FC0
71C0
E0E0
E0E0
E0E0
E0E0
E0E0
E0E0
71C0
3F80
1F00
ENDCHAR
STARTCHAR 1ED1
ENCODING 7889
SWIDTH 565 0
DWIDTH 11 0
BBX 10 15 1 0
BITMAP
0080
1DC0
3D00
3600
6200
0000
3C00
7F00
E700
E380
E380
E380
E700
7F00
3C00
ENDCHAR
STARTCHAR 1ED2
ENCODING 7890
SWIDTH 668 0
DWIDTH 13 0
BBX 11 17 1 0
BITMAP
4000
6E00
3B00
1100
0000
1F00
7FC0
71C0
E0E0
E0E0
E0E0
E0E0
E0E0
E0E0
71C0
3F80
1F00
ENDCHAR
STARTCHAR 1ED3
ENCODING 7891
SWIDTH 565 0
DWIDTH 11 0
BBX 10 15 0 0
BITMAP
4000
CE00
7E00
1B00
3100
0000
1E00
3F80
7380
71C0
71C0
71C0
7380
3F80
1E00
ENDCHAR
STARTCHAR 1ED4
ENCODING 7892
SWIDTH 668 0
DWIDTH 13 0
BBX 11 18 1 0
BITMAP
01C0
00C0
0EC0
1B00
1100
0000
1F00
7FC0
71C0
E0E0
E0E0
E0E0
E0E0
E0E0
E0E0
71C0
3F80
1F00
ENDCHAR
STARTCHAR 1ED5
ENCODING 7893
SWIDTH 565 0
DWIDTH 11 0
BBX 9 15 1 0
BITMAP
0380
1D80
3D80
3600
6200
0000
3C00
7F00
E700
E380
E380
E380
E700
7F00
3C00
ENDCHAR
STARTCHAR 1ED6
ENCODING 7894
SWIDTH 668 0
DWIDTH 13 0
BBX 11 19 1 0
BITMAP
1D00
1F00
1300
0000
0E00
1B00
1100
1F00
7FC0
71C0
E0E0
E0E0
E0E0
E0E0
E0E0
E0E0
71C0
3F80
1F00
ENDCHAR
STARTCHAR 1ED7
ENCODING 7895
SWIDTH 565 0
DWIDTH 11 0
BBX 9 18 1 0
BITMAP
3A00
3E00
6C00
0000
1C00
3C00
3600
6200
0000
3C00
7F00
E700
E380
E380
E380
E700
7F00
3C00
ENDCHAR
STARTCHAR 1ED8
ENCODING 7896
SWIDTH 668 0
DWIDTH 13 0
BBX 11 20 1 -4
BITMAP
0E00
1B00
3180
0000
1F00
7FC0
71C0
E0E0
E0E0
E0E0
E0E0
E0E0
E0E0
71C0
3F80
1F00
0000
0E00
0E00
0E00
ENDCHAR
STARTCHAR 1ED9
ENCODING 7897
SWIDTH 565 0
DWIDTH 11 0
BBX 9 18 1 -4
BITMAP
3C00
7E00
6300
0000
0000
3C00
7F00
E700
E380
E380
E380
E700
7F00
3C00
0000
1800
1C00
1800
ENDCHAR
STARTCHAR 1EDA
ENCODING 7898
SWIDTH 668 0
DWIDTH 13 0
BBX 12 17 1 0
BITMAP
0100
0780
0F20
0470
0070
1FE0
7FC0
71C0
E0E0
E0E0
E0E0
E0E0
E0E0
E0E0
71C0
3F80
1F00
ENDCHAR
STARTCHAR 1EDB
ENCODING 7899
SWIDTH 565 0
DWIDTH 11 0
BBX 10 16 1 0
BITMAP
0200
0600
0F00
1DC0
09C0
01C0
3F80
7F00
E700
E380
E380
E380
E380
E700
7F00
3C00
ENDCHAR
STARTCHAR 1EDC
ENCODING 7900
SWIDTH 668 0
DWIDTH 13 0
BBX 12 17 1 0
BITMAP
1000
3C00
1E20
0470
0070
1FE0
7FC0
71C0
E0E0
E0E0
E0E0
E0E0
E0E0
E0E0
71C0
3F80
1F00
ENDCHAR
STARTCHAR 1EDD
ENCODING 7901
SWIDTH 565 0
DWIDTH 11 0
BBX 10 16 1 0
BITMAP
2000
7000
7800
39C0
09C0
01C0
3F80
7F00
E700
E380
E380
E380
E380
E700
7F00
3C00
ENDCHAR
STARTCHAR 1EDE
ENCODING 7902
SWIDTH 668 0
DWIDTH 13 0
BBX 12 17 1 0
BITMAP
0C00
0E00
0620
0E70
0070
1FE0
7FC0
71C0
E0E0
E0E0
E0E0
E0E0
E0E0
E0E0
71C0
3F80
1F00
ENDCHAR
STARTCHAR 1EDF
ENCODING 7903
SWIDTH 565 0
DWIDTH 11 0
BBX 10 15 1 0
BITMAP
1800
1C00
0DC0
1DC0
11C0
3F80
7F00
E700
E380
E380
E380
E380
E700
7F00
3C00
ENDCHAR
STARTCHAR 1EE0
ENCODING 7904
SWIDTH 668 0
DWIDTH 13 0
BBX 12 16 1 0
BITMAP
3980
3FA0
6770
0070
1FE0
7FC0
71C0
E0E0
E0E0
E0E0
E0E0
E0E0
E0E0
71C0
3F80
1F00
ENDCHAR
STARTCHAR 1EE1
ENCODING 7905
SWIDTH 565 0
DWIDTH 11 0
BBX 10 14 1 0
BITMAP
7600
FFC0
DFC0
01C0
3F80
7F00
E700
E380
E380
E380
E380
E700
7F00
3C00
ENDCHAR
STARTCHAR 1EE2
ENCODING 7906
SWIDTH 668 0
DWIDTH 13 0
BBX 12 19 1 -4
BITMAP
0020
0070
0070
1FE0
7FC0
71C0
E0E0
E0E0
E0E0
E0E0
E0E0
E0E0
71C0
3F80
1F00
0000
0E00
0E00
0E00
ENDCHAR
STARTCHAR 1EE3
ENCODING 7907
SWIDTH 565 0
DWIDTH 11 0
BBX 10 17 1 -4
BITMAP
01C0
01C0
01C0
3F80
7F00
E700
E380
E380
E380
E380
E700
7F00
3C00
0000
1800
1C00
1800
ENDCHAR
STARTCHAR 1EE4
ENCODING 7908
SWIDTH 668 0
DWIDTH 13 0
BBX 10 16 1 -4
BITMAP
E0C0
E0C0
E0C0
E0C0
E0C0
E0C0
E0C0
E0C0
61C0
71C0
3F80
1F00
0000
0C00
0E00
0C00
ENDCHAR
STARTCHAR 1EE5
ENCODING 7909
SWIDTH 565 0
DWIDTH 11 0
BBX 9 13 1 -4
BITMAP
E380
E380
E380
E380
E380
E380
E780
7F80
7B80
0000
0C00
1C00
0C00
ENDCHAR
STARTCHAR 1EE6
ENCODING 7910
SWIDTH 668 0
DWIDTH 13 0
BBX 10 17 1 0
BITMAP
0C00
0E00
0600
0E00
0000
E0C0
E0C0
E0C0
E0C0
E0C0
E0C0
E0C0
E0C0
61C0
71C0
3F80
1F00
ENDCHAR
STARTCHAR 1EE7
ENCODING 7911
SWIDTH 565 0
DWIDTH 11 0
BBX 9 15 1 0
BITMAP
1800
1C00
0C00
1C00
1000
0000
E380
E380
E380
E380
E380
E380
E780
7F80
7B80
ENDCHAR
STARTCHAR 1EE8
ENCODING 7912
SWIDTH 668 0
DWIDTH 13 0
BBX 13 17 1 0
BITMAP
0100
0700
0EB8
0438
0038
E0F0
E0C0
E0C0
E0C0
E0C0
E0C0
E0C0
E0C0
61C0
71C0
3F80
1F00
ENDCHAR
STARTCHAR 1EE9
ENCODING 7913
SWIDTH 565 0
DWIDTH 11 0
BBX 11 16 1 0
BITMAP
0400
0600
0F00
1C40
08C0
00E0
00C0
E380
E380
E380
E380
E380
E380
E780
7F80
7B80
ENDCHAR
STARTCHAR 1EEA
ENCODING 7914
SWIDTH 668 0
DWIDTH 13 0
BBX 13 17 1 0
BITMAP
1000
3800
1E38
0438
0038
E0F0
E0C0
E0C0
E0C0
E0C0
E0C0
E0C0
E0C0
61C0
71C0
3F80
1F00
ENDCHAR
STARTCHAR 1EEB
ENCODING 7915
SWIDTH 565 0
DWIDTH 11 0
BBX 11 16 1 0
BITMAP
2000
7000
7000
3840
10C0
00E0
00C0
E380
E380
E380
E380
E380
E380
E780
7F80
7B80
ENDCHAR
STARTCHAR 1EEC
ENCODING 7916
SWIDTH 668 0
DWIDTH 13 0
BBX 13 17 1 0
BITMAP
0C00
0E00
0638
0E38
0038
E0F0
E0C0
E0C0
E0C0
E0C0
E0C0
E0C0
E0C0
61C0
71C0
3F80
1F00
ENDCHAR
STARTCHAR 1EED
ENCODING 7917
SWIDTH 565 0
DWIDTH 11 0
BBX 11 15 1 0
BITMAP
1800
1C00
2C40
1CC0
10E0
00C0
E380
E380
E380
E380
E380
E380
E780
7F80
7B80
ENDCHAR
STARTCHAR 1EEE
ENCODING 7918
SWIDTH 668 0
DWIDTH 13 0
BBX 13 16 1 0
BITMAP
3980
3FB8
2738
0038
E0F0
E0C0
E0C0
E0C0
E0C0
E0C0
E0C0
E0C0
61C0
71C0
3F80
1F00
ENDCHAR
STARTCHAR 1EEF
ENCODING 7919
SWIDTH 565 0
DWIDTH 11 0
BBX 11 14 1 0
BITMAP
7300
7F40
4EC0
00E0
00C0
E380
E380
E380
E380
E380
E380
E780
7F80
7B80
ENDCHAR
STARTCHAR 1EF0
ENCODING 7920
SWIDTH 668 0
DWIDTH 13 0
BBX 13 19 1 -4
BITMAP
0038
0038
0038
E0F0
E0C0
E0C0
E0C0
E0C0
E0C0
E0C0
E0C0
61C0
71C0
3F80
1F00
0000
0C00
0E00
0C00
ENDCHAR
STARTCHAR 1EF1
ENCODING 7921
SWIDTH 565 0
DWIDTH 11 0
BBX 11 17 1 -4
BITMAP
0040
00C0
00E0
00C0
E380
E380
E380
E380
E380
E380
E780
7F80
7B80
0000
1C00
1C00
1C00
ENDCHAR
STARTCHAR 1EF2
ENCODING 7922
SWIDTH 514 0
DWIDTH 10 0
BBX 10 17 0 0
BITMAP
1000
3800
1C00
0C00
0000
E1C0
6180
7380
3300
3F00
1E00
1E00
1E00
0C00
0C00
0C00
0C00
ENDCHAR
STARTCHAR 1EF3
ENCODING 7923
SWIDTH 514 0
DWIDTH 10 0
BBX 10 20 0 -4
BITMAP
1000
3800
7800
1C00
0800
0000
0000
E1C0
7180
7380
3300
3B00
3F00
1E00
1E00
0E00
0C00
1C00
7800
7000
ENDCHAR
STARTCHAR 1EF4
ENCODING 7924
SWIDTH 514 0
DWIDTH 10 0
BBX 10 16 0 -4
BITMAP
E1C0
6180
7380
3300
3F00
1E00
1E00
1E00
0C00
0C00
0C00
0C00
0000
0C00
1E00
0C00
ENDCHAR
STARTCHAR 1EF5
ENCODING 7925
SWIDTH 514 0
DWIDTH 10 0
BBX 10 13 0 -4
BITMAP
E1C0
7180
7380
3300
3B00
3F00
1E00
1E00
0E00
0C00
1DC0
79C0
71C0
ENDCHAR
STARTCHAR 1EF6
ENCODING 7926
SWIDTH 514 0
DWIDTH 10 0
BBX 10 17 0 0
BITMAP
0C00
1E00
0600
0C00
0000
E1C0
6180
7380
3300
3F00
1E00
1E00
1E00
0C00
0C00
0C00
0C00
ENDCHAR
STARTCHAR 1EF7
ENCODING 7927
SWIDTH 514 0
DWIDTH 10 0
BBX 10 19 0 -4
BITMAP
1C00
1E00
0600
0E00
0800
0000
E1C0
7180
7380
3300
3B00
3F00
1E00
1E00
0E00
0C00
1C00
7800
7000
ENDCHAR
STARTCHAR 1EF8
ENCODING 7928
SWIDTH 514 0
DWIDTH 10 0
BBX 10 16 0 0
BITMAP
3980
7F80
6700
0000
E1C0
6180
7380
3300
3F00
1E00
1E00
1E00
0C00
0C00
0C00
0C00
ENDCHAR
STARTCHAR 1EF9
ENCODING 7929
SWIDTH 514 0
DWIDTH 10 0
BBX 10 18 0 -4
BITMAP
3980
3F80
6700
0000
0000
E1C0
7180
7380
3300
3B00
3F00
1E00
1E00
0E00
0C00
1C00
7800
7000
ENDCHAR
STARTCHAR 1F00
ENCODING 7936
SWIDTH 565 0
DWIDTH 11 0
BBX 10 15 1 0
BITMAP
1800
1C00
0C00
0C00
1000
0000
39C0
7D80
E780
E380
E380
E300
E700
FFC0
39C0
ENDCHAR
STARTCHAR 1F01
ENCODING 7937
SWIDTH 565 0
DWIDTH 11 0
BBX 10 15 1 0
BITMAP
0C00
1C00
1800
1C00
0800
0000
39C0
7D80
E780
E380
E380
E300
E700
FFC0
39C0
ENDCHAR
STARTCHAR 1F02
ENCODING 7938
SWIDTH 565 0
DWIDTH 11 0
BBX 10 15 1 0
BITMAP
6600
7600
3600
3200
0000
0000
39C0
7D80
E780
E380
E380
E300
E700
FFC0
39C0
ENDCHAR
STARTCHAR 1F03
ENCODING 7939
SWIDTH 565 0
DWIDTH 11 0
BBX 10 15 1 0
BITMAP
3E00
7600
6600
6200
0000
0000
39C0
7D80
E780
E380
E380
E300
E700
FFC0
39C0
ENDCHAR
STARTCHAR 1F04
ENCODING 7940
SWIDTH 565 0
DWIDTH 11 0
BBX 10 15 1 0
BITMAP
6700
7600
3600
3600
0000
0000
39C0
7D80
E780
E380
E380
E300
E700
FFC0
39C0
ENDCHAR
STARTCHAR 1F05
ENCODING 7941
SWIDTH 565 0
DWIDTH 11 0
BBX 10 15 1 0
BITMAP
3700
7600
6600
7600
0000
0000
39C0
7D80
E780
E380
E380
E300
E700
FFC0
39C0
ENDCHAR
STARTCHAR 1F06
ENCODING 7942
SWIDTH 565 0
DWIDTH 11 0
BBX 10 16 1 0
BITMAP
3F00
3E00
1800
1C00
0C00
0800
0000
39C0
7D80
E780
E380
E380
E300
E700
FFC0
39C0
ENDCHAR
STARTCHAR 1F07
ENCODING 7943
SWIDTH 565 0
DWIDTH 11 0
BBX 10 16 1 0
BITMAP
3F00
3E00
0C00
1C00
1800
0800
0000
39C0
7D80
E780
E380
E380
E300
E700
FFC0
39C0
ENDCHAR
STARTCHAR 1F08
ENCODING 7944
SWIDTH 617 0
DWIDTH 12 0
BBX 13 12 0 0
BITMAP
C780
E780
6780
6FC0
4CC0
0CC0
1CE0
1FE0
1FE0
3870
3870
7078
ENDCHAR
STARTCHAR 1F09
ENCODING 7945
SWIDTH 617 0
DWIDTH 12 0
BBX 12 12 0 0
BITMAP
6780
E780
CD80
CDC0
6DC0
1CC0
18C0
1FE0
3FE0
3860
3070
7070
ENDCHAR
STARTCHAR 1F0A
ENCODING 7946
SWIDTH 822 0
DWIDTH 16 0
BBX 16 12 0 0
BITMAP
CCF0
ECF0
6CF8
C5D8
0198
019C
039C
03FC
03FE
070E
070E
0707
ENDCHAR
STARTCHAR 1F0B
ENCODING 7947
SWIDTH 822 0
DWIDTH 16 0
BBX 16 12 0 0
BITMAP
7CF0
ECF0
CCF8
CDF8
4198
019C
039C
03FC
03FE
070E
070E
0707
ENDCHAR
STARTCHAR 1F0C
ENCODING 7948
SWIDTH 771 0
DWIDTH 15 0
BBX 16 12 0 0
BITMAP
CCF0
ECF0
6CF0
CDF8
0198
0198
039C
03FC
03FC
070E
070E
0E0F
ENDCHAR
STARTCHAR 1F0D
ENCODING 7949
SWIDTH 771 0
DWIDTH 15 0
BBX 16 12 0 0
BITMAP
6CF0
ECF0
CDF0
CDF8
4198
0198
039C
03FC
03FC
070E
070E
0E0F
ENDCHAR
STARTCHAR 1F0E
ENCODING 7950
SWIDTH 668 0
DWIDTH 13 0
BBX 13 12 0 0
BITMAP
FB80
F7C0
76C0
36C0
4EE0
0EE0
0C60
1FF0
1FF0
1870
3838
3838
ENDCHAR
STARTCHAR 1F0F
ENCODING 7951
SWIDTH 668 0
DWIDTH 13 0
BBX 13 12 0 0
BITMAP
FB80
F7C0
76C0
46C0
2EE0
0EE0
0C60
1FF0
1FF0
1870
3838
3838
ENDCHAR
STARTCHAR 1F10
ENCODING 7952
SWIDTH 462 0
DWIDTH 9 0
BBX 8 15 1 0
BITMAP
38
3C
0C
1C
10
00
7E
FE
E4
78
F8
E0
E2
FE
7F
ENDCHAR
STARTCHAR 1F11
ENCODING 7953
SWIDTH 462 0
DWIDTH 9 0
BBX 8 15 1 0
BITMAP
1C
3C
30
38
08
00
7E
FE
E4
78
F8
E0
E2
FE
7F
ENDCHAR
STARTCHAR 1F12
ENCODING 7954
SWIDTH 462 0
DWIDTH 9 0
BBX 8 15 1 0
BITMAP
CC
EC
26
66
00
00
7E
FE
E4
78
F8
E0
E2
FE
7F
ENDCHAR
STARTCHAR 1F13
ENCODING 7955
SWIDTH 462 0
DWIDTH 9 0
BBX 8 15 1 0
BITMAP
6C
EC
C6
66
00
00
7E
FE
E4
78
F8
E0
E2
FE
7F
ENDCHAR
STARTCHAR 1F14
ENCODING 7956
SWIDTH 462 0
DWIDTH 9 0
BBX 8 15 1 0
BITMAP
C6
E6
2C
6C
00
00
7E
FE
E4
78
F8
E0
E2
FE
7F
ENDCHAR
STARTCHAR 1F15
ENCODING 7957
SWIDTH 462 0
DWIDTH 9 0
BBX 8 15 1 0
BITMAP
76
7E
CC
6C
00
00
7E
FE
E4
78
F8
E0
E2
FE
7F
ENDCHAR
STARTCHAR 1F18
ENCODING 7960
SWIDTH 720 0
DWIDTH 14 0
BBX 13 12 0 0
BITMAP
C7F0
E7F0
6600
6600
C600
07F0
07F0
0600
0600
0600
07F8
07F8
ENDCHAR
STARTCHAR 1F19
ENCODING 7961
SWIDTH 720 0
DWIDTH 14 0
BBX 13 12 0 0
BITMAP
67F0
E7F0
C600
C600
6600
07F0
07F0
0600
0600
0600
07F8
07F8
ENDCHAR
STARTCHAR 1F1A
ENCODING 7962
SWIDTH 874 0
DWIDTH 17 0
BBX 16 12 0 0
BITMAP
CCFE
ECFE
6CC0
C4C0
00C0
00FE
00FE
00C0
00C0
00C0
00FF
00FF
ENDCHAR
STARTCHAR 1F1B
ENCODING 7963
SWIDTH 874 0
DWIDTH 17 0
BBX 16 12 0 0
BITMAP
7CFE
ECFE
CCC0
CCC0
40C0
00FE
00FE
00C0
00C0
00C0
00FF
00FF
ENDCHAR
STARTCHAR 1F1C
ENCODING 7964
SWIDTH 822 0
DWIDTH 16 0
BBX 15 12 0 0
BITMAP
CDFE
EDFE
6DC0
CDC0
01C0
01FC
01FC
01C0
01C0
01C0
01FE
01FE
ENDCHAR
STARTCHAR 1F1D
ENCODING 7965
SWIDTH 822 0
DWIDTH 16 0
BBX 15 12 0 0
BITMAP
6DFE
EDFE
CDC0
CDC0
41C0
01FC
01FC
01C0
01C0
01C0
01FE
01FE
ENDCHAR
STARTCHAR 1F20
ENCODING 7968
SWIDTH 565 0
DWIDTH 11 0
BBX 9 18 1 -3
BITMAP
1800
1C00
0600
0C00
0800
0000
EF00
FF00
F300
E380
E380
E380
E380
E380
E380
0380
0380
0380
ENDCHAR
STARTCHAR 1F21
ENCODING 7969
SWIDTH 565 0
DWIDTH 11 0
BBX 9 18 1 -3
BITMAP
0C00
1C00
1A00
1C00
0400
0000
EF00
FF00
F300
E380
E380
E380
E380
E380
E380
0380
0380
0380
ENDCHAR
STARTCHAR 1F22
ENCODING 7970
SWIDTH 565 0
DWIDTH 11 0
BBX 9 18 1 -3
BITMAP
6600
7600
3600
3300
0000
0000
EF00
FF00
F300
E380
E380
E380
E380
E380
E380
0380
0380
0380
ENDCHAR
STARTCHAR 1F23
ENCODING 7971
SWIDTH 565 0
DWIDTH 11 0
BBX 9 18 1 -3
BITMAP
3600
7600
6600
7300
0000
0000
EF00
FF00
F300
E380
E380
E380
E380
E380
E380
0380
0380
0380
ENDCHAR
STARTCHAR 1F24
ENCODING 7972
SWIDTH 565 0
DWIDTH 11 0
BBX 9 18 1 -3
BITMAP
6300
7700
3600
3600
0000
0000
EF00
FF00
F300
E380
E380
E380
E380
E380
E380
0380
0380
0380
ENDCHAR
STARTCHAR 1F25
ENCODING 7973
SWIDTH 565 0
DWIDTH 11 0
BBX 9 18 1 -3
BITMAP
3300
7600
6600
3600
0000
0000
EF00
FF00
F300
E380
E380
E380
E380
E380
E380
0380
0380
0380
ENDCHAR
STARTCHAR 1F26
ENCODING 7974
SWIDTH 565 0
DWIDTH 11 0
BBX 9 19 1 -3
BITMAP
3F00
3E00
1C00
1C00
0400
0800
0000
EF00
FF00
F300
E380
E380
E380
E380
E380
E380
0380
0380
0380
ENDCHAR
STARTCHAR 1F27
ENCODING 7975
SWIDTH 565 0
DWIDTH 11 0
BBX 9 19 1 -3
BITMAP
3F00
3E00
0C00
1C00
1800
0400
0000
EF00
FF00
F300
E380
E380
E380
E380
E380
E380
0380
0380
0380
ENDCHAR
STARTCHAR 1F28
ENCODING 7976
SWIDTH 822 0
DWIDTH 16 0
BBX 14 12 0 0
BITMAP
C60C
E60C
660C
660C
C60C
07FC
07FC
060C
060C
060C
060C
060C
ENDCHAR
STARTCHAR 1F29
ENCODING 7977
SWIDTH 822 0
DWIDTH 16 0
BBX 14 12 0 0
BITMAP
660C
E60C
C60C
C60C
660C
07FC
07FC
060C
060C
060C
060C
060C
ENDCHAR
STARTCHAR 1F2A
ENCODING 7978
SWIDTH 977 0
DWIDTH 19 0
BBX 18 12 0 0
BITMAP
CCC1C0
ECC1C0
6CC1C0
C4C1C0
00C1C0
00FFC0
00FFC0
00C1C0
00C1C0
00C1C0
00C1C0
00C1C0
ENDCHAR
STARTCHAR 1F2B
ENCODING 7979
SWIDTH 977 0
DWIDTH 19 0
BBX 18 12 0 0
BITMAP
7CC1C0
ECC1C0
CCC1C0
CCC1C0
40C1C0
00FFC0
00FFC0
00C1C0
00C1C0
00C1C0
00C1C0
00C1C0
ENDCHAR
STARTCHAR 1F2C
ENCODING 7980
SWIDTH 977 0
DWIDTH 19 0
BBX 17 12 0 0
BITMAP
CDC180
EDC180
6DC180
CDC180
01C180
01FF80
01FF80
01C180
01C180
01C180
01C180
01C180
ENDCHAR
STARTCHAR 1F2D
ENCODING 7981
SWIDTH 977 0
DWIDTH 19 0
BBX 17 12 0 0
BITMAP
6DC180
EDC180
CDC180
CDC180
41C180
01FF80
01FF80
01C180
01C180
01C180
01C180
01C180
ENDCHAR
STARTCHAR 1F2E
ENCODING 7982
SWIDTH 874 0
DWIDTH 17 0
BBX 16 12 0 0
BITMAP
FB07
F307
7307
3307
4307
03FF
03FF
0307
0307
0307
0307
0307
ENDCHAR
STARTCHAR 1F2F
ENCODING 7983
SWIDTH 874 0
DWIDTH 17 0
BBX 16 12 0 0
BITMAP
FB07
F307
7307
4307
2307
03FF
03FF
0307
0307
0307
0307
0307
ENDCHAR
STARTCHAR 1F30
ENCODING 7984
SWIDTH 308 0
DWIDTH 6 0
BBX 5 15 1 0
BITMAP
C0
E0
60
60
80
00
E0
E0
E0
E0
E0
E0
E0
F0
78
ENDCHAR
STARTCHAR 1F31
ENCODING 7985
SWIDTH 308 0
DWIDTH 6 0
BBX 5 15 1 0
BITMAP
60
E0
C0
E0
40
00
E0
E0
E0
E0
E0
E0
E0
F0
78
ENDCHAR
STARTCHAR 1F32
ENCODING 7986
SWIDTH 308 0
DWIDTH 6 0
BBX 7 15 -1 0
BITMAP
CC
EC
6C
64
00
00
38
38
38
38
38
38
38
3C
1E
ENDCHAR
STARTCHAR 1F33
ENCODING 7987
SWIDTH 308 0
DWIDTH 6 0
BBX 7 15 -1 0
BITMAP
6C
EC
CC
C4
00
00
38
38
38
38
38
38
38
3C
1E
ENDCHAR
STARTCHAR 1F34
ENCODING 7988
SWIDTH 308 0
DWIDTH 6 0
BBX 7 15 -1 0
BITMAP
CE
EC
6C
6C
00
00
38
38
38
38
38
38
38
3C
1E
ENDCHAR
STARTCHAR 1F35
ENCODING 7989
SWIDTH 308 0
DWIDTH 6 0
BBX 7 15 -1 0
BITMAP
6E
EC
CC
6C
00
00
38
38
38
38
38
38
38
3C
1E
ENDCHAR
STARTCHAR 1F36
ENCODING 7990
SWIDTH 308 0
DWIDTH 6 0
BBX 6 16 0 0
BITMAP
FC
F8
60
70
30
20
00
70
70
70
70
70
70
70
78
3C
ENDCHAR
STARTCHAR 1F37
ENCODING 7991
SWIDTH 308 0
DWIDTH 6 0
BBX 6 16 0 0
BITMAP
FC
F8
30
70
60
20
00
70
70
70
70
70
70
70
78
3C
ENDCHAR
STARTCHAR 1F38
ENCODING 7992
SWIDTH 462 0
DWIDTH 9 0
BBX 7 12 0 0
BITMAP
C6
E6
66
66
C6
06
06
06
06
06
06
06
ENDCHAR
STARTCHAR 1F39
ENCODING 7993
SWIDTH 462 0
DWIDTH 9 0
BBX 7 12 0 0
BITMAP
66
E6
C6
C6
66
06
06
06
06
06
06
06
ENDCHAR
STARTCHAR 1F3A
ENCODING 7994
SWIDTH 617 0
DWIDTH 12 0
BBX 10 12 0 0
BITMAP
CCC0
ECC0
6CC0
C4C0
00C0
00C0
00C0
00C0
00C0
00C0
00C0
00C0
ENDCHAR
STARTCHAR 1F3B
ENCODING 7995
SWIDTH 617 0
DWIDTH 12 0
BBX 10 12 0 0
BITMAP
7CC0
ECC0
CCC0
CCC0
40C0
00C0
00C0
00C0
00C0
00C0
00C0
00C0
ENDCHAR
STARTCHAR 1F3C
ENCODING 7996
SWIDTH 617 0
DWIDTH 12 0
BBX 10 12 0 0
BITMAP
CDC0
EDC0
6DC0
CDC0
01C0
01C0
01C0
01C0
01C0
01C0
01C0
01C0
ENDCHAR
STARTCHAR 1F3D
ENCODING 7997
SWIDTH 617 0
DWIDTH 12 0
BBX 10 12 0 0
BITMAP
6DC0
EDC0
CDC0
CDC0
41C0
01C0
01C0
01C0
01C0
01C0
01C0
01C0
ENDCHAR
STARTCHAR 1F3E
ENCODING 7998
SWIDTH 514 0
DWIDTH 10 0
BBX 8 12 0 0
BITMAP
FB
F3
73
33
43
03
03
03
03
03
03
03
ENDCHAR
STARTCHAR 1F3F
ENCODING 7999
SWIDTH 514 0
DWIDTH 10 0
BBX 8 12 0 0
BITMAP
FB
F3
73
43
23
03
03
03
03
03
03
03
ENDCHAR
STARTCHAR 1F40
ENCODING 8000
SWIDTH 565 0
DWIDTH 11 0
BBX 9 15 1 0
BITMAP
1800
1C00
0C00
1C00
1000
0000
3C00
7F00
E700
E380
E380
E380
E700
7F00
3C00
ENDCHAR
STARTCHAR 1F41
ENCODING 8001
SWIDTH 565 0
DWIDTH 11 0
BBX 9 15 1 0
BITMAP
0C00
1C00
3800
1800
0800
0000
3C00
7F00
E700
E380
E380
E380
E700
7F00
3C00
ENDCHAR
STARTCHAR 1F42
ENCODING 8002
SWIDTH 565 0
DWIDTH 11 0
BBX 9 15 1 0
BITMAP
6E00
7600
3600
6600
0000
0000
3C00
7F00
E700
E380
E380
E380
E700
7F00
3C00
ENDCHAR
STARTCHAR 1F43
ENCODING 8003
SWIDTH 565 0
DWIDTH 11 0
BBX 9 15 1 0
BITMAP
3E00
7600
4600
6600
0000
0000
3C00
7F00
E700
E380
E380
E380
E700
7F00
3C00
ENDCHAR
STARTCHAR 1F44
ENCODING 8004
SWIDTH 565 0
DWIDTH 11 0
BBX 9 15 1 0
BITMAP
6600
7600
3600
6400
0800
0000
3C00
7F00
E700
E380
E380
E380
E700
7F00
3C00
ENDCHAR
STARTCHAR 1F45
ENCODING 8005
SWIDTH 565 0
DWIDTH 11 0
BBX 9 15 1 0
BITMAP
3600
7600
6600
6400
0800
0000
3C00
7F00
E700
E380
E380
E380
E700
7F00
3C00
ENDCHAR
STARTCHAR 1F48
ENCODING 8008
SWIDTH 822 0
DWIDTH 16 0
BBX 15 12 0 0
BITMAP
C1F0
E7F8
6F1C
6E1C
CE0E
0C0E
0C0E
0E0E
0E1C
0F1C
07F8
01F0
ENDCHAR
STARTCHAR 1F49
ENCODING 8009
SWIDTH 771 0
DWIDTH 15 0
BBX 14 12 0 0
BITMAP
63E0
E7F8
CE3C
CE1C
7C1C
1C0C
1C0C
1C1C
0E1C
0E3C
07F8
03E0
ENDCHAR
STARTCHAR 1F4A
ENCODING 8010
SWIDTH 977 0
DWIDTH 19 0
BBX 18 12 0 0
BITMAP
CC3E00
ECFF00
6CE380
C5C1C0
01C1C0
01C1C0
01C1C0
01C1C0
01C1C0
00E380
00FF00
003E00
ENDCHAR
STARTCHAR 1F4B
ENCODING 8011
SWIDTH 977 0
DWIDTH 19 0
BBX 18 12 0 0
BITMAP
7C3E00
ECFF00
CCE380
CDC1C0
41C1C0
01C1C0
01C1C0
01C1C0
01C1C0
00E380
00FF00
003E00
ENDCHAR
STARTCHAR 1F4C
ENCODING 8012
SWIDTH 977 0
DWIDTH 19 0
BBX 18 12 0 0
BITMAP
CC7E00
ECFF00
6DC780
CDC380
038180
0381C0
0381C0
038180
01C380
01E780
00FF00
007C00
ENDCHAR
STARTCHAR 1F4D
ENCODING 8013
SWIDTH 925 0
DWIDTH 18 0
BBX 18 12 0 0
BITMAP
6C7E00
ECFF00
CDC780
CDC380
438180
0381C0
0381C0
038180
01C380
01C780
00FF00
007C00
ENDCHAR
STARTCHAR 1F50
ENCODING 8016
SWIDTH 514 0
DWIDTH 10 0
BBX 8 15 1 0
BITMAP
38
3C
0C
1C
10
00
E7
E7
E7
E7
E7
E7
E7
7E
3C
ENDCHAR
STARTCHAR 1F51
ENCODING 8017
SWIDTH 514 0
DWIDTH 10 0
BBX 8 15 1 0
BITMAP
1C
3C
30
38
08
00
E7
E7
E7
E7
E7
E7
E7
7E
3C
ENDCHAR
STARTCHAR 1F52
ENCODING 8018
SWIDTH 514 0
DWIDTH 10 0
BBX 8 15 1 0
BITMAP
CC
EC
26
66
00
00
E7
E7
E7
E7
E7
E7
E7
7E
3C
ENDCHAR
STARTCHAR 1F53
ENCODING 8019
SWIDTH 514 0
DWIDTH 10 0
BBX 8 15 1 0
BITMAP
6C
EC
C6
66
00
00
E7
E7
E7
E7
E7
E7
E7
7E
3C
ENDCHAR
STARTCHAR 1F54
ENCODING 8020
SWIDTH 514 0
DWIDTH 10 0
BBX 8 15 1 0
BITMAP
C6
E6
2C
6C
00
00
E7
E7
E7
E7
E7
E7
E7
7E
3C
ENDCHAR
STARTCHAR 1F55
ENCODING 8021
SWIDTH 514 0
DWIDTH 10 0
BBX 8 15 1 0
BITMAP
76
76
CC
6C
00
00
E7
E7
E7
E7
E7
E7
E7
7E
3C
ENDCHAR
STARTCHAR 1F56
ENCODING 8022
SWIDTH 514 0
DWIDTH 10 0
BBX 8 16 1 0
BITMAP
3E
7C
18
18
2C
10
00
E7
E7
E7
E7
E7
E7
E7
7E
3C
ENDCHAR
STARTCHAR 1F57
ENCODING 8023
SWIDTH 514 0
DWIDTH 10 0
BBX 8 16 1 0
BITMAP
3E
7C
18
18
34
08
00
E7
E7
E7
E7
E7
E7
E7
7E
3C
ENDCHAR
STARTCHAR 1F59
ENCODING 8025
SWIDTH 720 0
DWIDTH 14 0
BBX 14 12 0 0
BITMAP
6E1C
EE38
C738
C730
63F0
03E0
01E0
01C0
01C0
01C0
01C0
01C0
ENDCHAR
STARTCHAR 1F5B
ENCODING 8027
SWIDTH 874 0
DWIDTH 17 0
BBX 17 12 0 0
BITMAP
7DC380
ECE380
CCE700
CC7700
407600
003E00
003C00
001C00
001C00
001C00
001C00
001C00
ENDCHAR
STARTCHAR 1F5D
ENCODING 8029
SWIDTH 874 0
DWIDTH 17 0
BBX 17 12 0 0
BITMAP
6DC380
ECE380
CCE700
CC6700
407600
003E00
003C00
001C00
001C00
001C00
001C00
001C00
ENDCHAR
STARTCHAR 1F5F
ENCODING 8031
SWIDTH 771 0
DWIDTH 15 0
BBX 15 12 0 0
BITMAP
FF0E
F38E
739C
419C
21F8
00F8
00F0
0070
0070
0070
0070
0070
ENDCHAR
STARTCHAR 1F60
ENCODING 8032
SWIDTH 720 0
DWIDTH 14 0
BBX 12 15 1 0
BITMAP
0600
0F00
0300
0700
0400
0000
7060
E0F0
E070
C730
C630
C630
E770
7FF0
39E0
ENDCHAR
STARTCHAR 1F61
ENCODING 8033
SWIDTH 720 0
DWIDTH 14 0
BBX 12 15 1 0
BITMAP
0700
0F00
0C00
0600
0200
0000
7060
E0F0
E070
C730
C630
C630
E770
7FF0
39E0
ENDCHAR
STARTCHAR 1F62
ENCODING 8034
SWIDTH 720 0
DWIDTH 14 0
BBX 12 15 1 0
BITMAP
1B00
3B80
0D80
1980
0000
0000
7060
E0F0
E070
C730
C630
C630
E770
7FF0
39E0
ENDCHAR
STARTCHAR 1F63
ENCODING 8035
SWIDTH 720 0
DWIDTH 14 0
BBX 12 15 1 0
BITMAP
1B00
1F80
3180
1980
0000
0000
7060
E0F0
E070
C730
C630
C630
E770
7FF0
39E0
ENDCHAR
STARTCHAR 1F64
ENCODING 8036
SWIDTH 720 0
DWIDTH 14 0
BBX 12 15 1 0
BITMAP
1980
3980
0D00
1B00
0000
0000
7060
E0F0
E070
C730
C630
C630
E770
7FF0
39E0
ENDCHAR
STARTCHAR 1F65
ENCODING 8037
SWIDTH 720 0
DWIDTH 14 0
BBX 12 15 1 0
BITMAP
0D80
1D80
1300
1B00
0000
0000
7060
E0F0
E070
C730
C630
C630
E770
7FF0
39E0
ENDCHAR
STARTCHAR 1F66
ENCODING 8038
SWIDTH 720 0
DWIDTH 14 0
BBX 12 16 1 0
BITMAP
0F80
1F80
0600
0700
0300
0400
0000
7060
E0F0
E070
C730
C630
C630
E770
7FF0
39E0
ENDCHAR
STARTCHAR 1F67
ENCODING 8039
SWIDTH 720 0
DWIDTH 14 0
BBX 12 16 1 0
BITMAP
0F80
1F80
0600
0700
0400
0200
0000
7060
E0F0
E070
C730
C630
C630
E770
7FF0
39E0
ENDCHAR
STARTCHAR 1F68
ENCODING 8040
SWIDTH 822 0
DWIDTH 16 0
BBX 15 12 0 0
BITMAP
C1F0
E7F8
671C
6E0E
CE0E
0E0E
0E0E
0E0E
060C
071C
0FBE
0FBE
ENDCHAR
STARTCHAR 1F69
ENCODING 8041
SWIDTH 822 0
DWIDTH 16 0
BBX 15 12 0 0
BITMAP
61F0
E7F8
CF1C
CE1C
6C0E
0C0E
1C0E
0E0C
0E1C
0738
1F3E
1F3E
ENDCHAR
STARTCHAR 1F6A
ENCODING 8042
SWIDTH 977 0
DWIDTH 19 0
BBX 19 12 0 0
BITMAP
CC3E00
EC7F80
6CE380
C5C1C0
01C1C0
01C1C0
01C1C0
01C1C0
00E1C0
00E380
01F7E0
01F7E0
ENDCHAR
STARTCHAR 1F6B
ENCODING 8043
SWIDTH 977 0
DWIDTH 19 0
BBX 19 12 0 0
BITMAP
7C3E00
EC7F80
CCE380
CDC1C0
41C1C0
01C1C0
01C1C0
01C1C0
00E180
00E380
01F7E0
01F7E0
ENDCHAR
STARTCHAR 1F6C
ENCODING 8044
SWIDTH 977 0
DWIDTH 19 0
BBX 18 12 0 0
BITMAP
CC3E00
ECFF00
6CE380
CDC1C0
01C1C0
01C1C0
01C1C0
01C1C0
00C380
00E380
03F7C0
03F7C0
ENDCHAR
STARTCHAR 1F6D
ENCODING 8045
SWIDTH 977 0
DWIDTH 19 0
BBX 18 12 0 0
BITMAP
6C3E00
ECFF00
CCE380
CDC1C0
41C1C0
01C1C0
01C1C0
01C1C0
00C380
00E380
03F7C0
03F7C0
ENDCHAR
STARTCHAR 1F6E
ENCODING 8046
SWIDTH 874 0
DWIDTH 17 0
BBX 16 12 0 0
BITMAP
F9F0
F3FC
771E
370E
4E06
0E07
0E06
060E
070E
039C
0F9F
0F9F
ENDCHAR
STARTCHAR 1F6F
ENCODING 8047
SWIDTH 874 0
DWIDTH 17 0
BBX 16 12 0 0
BITMAP
F9F0
F3FC
771E
470E
2E06
0E07
0E06
060E
070E
039C
0F9F
0F9F
ENDCHAR
STARTCHAR 1F70
ENCODING 8048
SWIDTH 565 0
DWIDTH 11 0
BBX 10 16 1 0
BITMAP
2000
7000
3800
1C00
0800
0000
0000
39C0
7D80
E780
E380
E380
E300
E700
FFC0
39C0
ENDCHAR
STARTCHAR 1F71
ENCODING 8049
SWIDTH 565 0
DWIDTH 11 0
BBX 10 16 1 0
BITMAP
0200
0700
0F00
1C00
0800
0000
0000
39C0
7D80
E780
E380
E380
E300
E700
FFC0
39C0
ENDCHAR
STARTCHAR 1F72
ENCODING 8050
SWIDTH 462 0
DWIDTH 9 0
BBX 8 16 1 0
BITMAP
20
60
F0
38
10
00
00
7E
FE
E4
78
F8
E0
E2
FE
7F
ENDCHAR
STARTCHAR 1F73
ENCODING 8051
SWIDTH 462 0
DWIDTH 9 0
BBX 8 16 1 0
BITMAP
04
0E
0F
1C
08
00
00
7E
FE
E4
78
F8
E0
E2
FE
7F
ENDCHAR
STARTCHAR 1F74
ENCODING 8052
SWIDTH 565 0
DWIDTH 11 0
BBX 9 19 1 -3
BITMAP
2000
3000
7800
1C00
0800
0000
0000
EF00
FF00
F300
E380
E380
E380
E380
E380
E380
0380
0380
0380
ENDCHAR
STARTCHAR 1F75
ENCODING 8053
SWIDTH 565 0
DWIDTH 11 0
BBX 9 19 1 -3
BITMAP
0200
0700
0700
0E00
0400
0000
0000
EF00
FF00
F300
E380
E380
E380
E380
E380
E380
0380
0380
0380
ENDCHAR
STARTCHAR 1F76
ENCODING 8054
SWIDTH 308 0
DWIDTH 6 0
BBX 7 16 -1 0
BITMAP
40
E0
70
38
10
00
00
38
38
38
38
38
38
38
3C
1E
ENDCHAR
STARTCHAR 1F77
ENCODING 8055
SWIDTH 308 0
DWIDTH 6 0
BBX 5 16 1 0
BITMAP
10
38
78
60
C0
00
00
E0
E0
E0
E0
E0
E0
E0
F0
78
ENDCHAR
STARTCHAR 1F78
ENCODING 8056
SWIDTH 565 0
DWIDTH 11 0
BBX 9 16 1 0
BITMAP
2000
7000
7800
3800
0800
0000
0000
3C00
7F00
E700
E380
E380
E380
E700
7F00
3C00
ENDCHAR
STARTCHAR 1F79
ENCODING 8057
SWIDTH 565 0
DWIDTH 11 0
BBX 9 16 1 0
BITMAP
0200
0700
0E00
1C00
0800
0000
0000
3C00
7F00
E700
E380
E380
E380
E700
7F00
3C00
ENDCHAR
STARTCHAR 1F7A
ENCODING 8058
SWIDTH 514 0
DWIDTH 10 0
BBX 8 16 1 0
BITMAP
20
60
F0
38
10
00
00
E7
E7
E7
E7
E7
E7
E7
7E
3C
ENDCHAR
STARTCHAR 1F7B
ENCODING 8059
SWIDTH 514 0
DWIDTH 10 0
BBX 8 16 1 0
BITMAP
04
06
0F
1C
08
00
00
E7
E7
E7
E7
E7
E7
E7
7E
3C
ENDCHAR
STARTCHAR 1F7C
ENCODING 8060
SWIDTH 720 0
DWIDTH 14 0
BBX 12 16 1 0
BITMAP
0800
1C00
3C00
0E00
0400
0000
0000
7060
E0F0
E070
C730
C630
C630
E770
7FF0
39E0
ENDCHAR
STARTCHAR 1F7D
ENCODING 8061
SWIDTH 720 0
DWIDTH 14 0
BBX 12 16 1 0
BITMAP
0100
0180
03C0
0700
0200
0000
0000
7060
E0F0
E070
C730
C630
C630
E770
7FF0
39E0
ENDCHAR
STARTCHAR 1F80
ENCODING 8064
SWIDTH 565 0
DWIDTH 11 0
BBX 10 19 1 -4
BITMAP
1800
1C00
0C00
0C00
1000
0000
39C0
7D80
E780
E380
E380
E300
E700
FFC0
39C0
0000
0000
0C00
0E00
ENDCHAR
STARTCHAR 1F81
ENCODING 8065
SWIDTH 565 0
DWIDTH 11 0
BBX 10 19 1 -4
BITMAP
0C00
1C00
1800
1C00
0800
0000
39C0
7D80
E780
E380
E380
E300
E700
FFC0
39C0
0000
0000
0C00
0E00
ENDCHAR
STARTCHAR 1F82
ENCODING 8066
SWIDTH 565 0
DWIDTH 11 0
BBX 10 19 1 -4
BITMAP
6600
7600
3600
3200
0000
0000
39C0
7D80
E780
E380
E380
E300
E700
FFC0
39C0
0000
0000
0C00
0E00
ENDCHAR
STARTCHAR 1F83
ENCODING 8067
SWIDTH 565 0
DWIDTH 11 0
BBX 10 19 1 -4
BITMAP
3E00
7600
6600
6200
0000
0000
39C0
7D80
E780
E380
E380
E300
E700
FFC0
39C0
0000
0000
0C00
0E00
ENDCHAR
STARTCHAR 1F84
ENCODING 8068
SWIDTH 565 0
DWIDTH 11 0
BBX 10 19 1 -4
BITMAP
6700
7600
3600
3600
0000
0000
39C0
7D80
E780
E380
E380
E300
E700
FFC0
39C0
0000
0000
0C00
0E00
ENDCHAR
STARTCHAR 1F85
ENCODING 8069
SWIDTH 565 0
DWIDTH 11 0
BBX 10 19 1 -4
BITMAP
3700
7600
6600
7600
0000
0000
39C0
7D80
E780
E380
E380
E300
E700
FFC0
39C0
0000
0000
0C00
0E00
ENDCHAR
STARTCHAR 1F86
ENCODING 8070
SWIDTH 565 0
DWIDTH 11 0
BBX 10 20 1 -4
BITMAP
3F00
3E00
1800
1C00
0C00
0800
0000
39C0
7D80
E780
E380
E380
E300
E700
FFC0
39C0
0000
0000
0C00
0E00
ENDCHAR
STARTCHAR 1F87
ENCODING 8071
SWIDTH 565 0
DWIDTH 11 0
BBX 10 20 1 -4
BITMAP
3F00
3E00
0C00
1C00
1800
0800
0000
39C0
7D80
E780
E380
E380
E300
E700
FFC0
39C0
0000
0000
0C00
0E00
ENDCHAR
STARTCHAR 1F88
ENCODING 8072
SWIDTH 925 0
DWIDTH 18 0
BBX 18 12 0 0
BITMAP
C78000
E78000
678000
6FC000
4CC300
0CC300
1CE300
1FE300
1FE300
387300
3873C0
7079C0
ENDCHAR
STARTCHAR 1F89
ENCODING 8073
SWIDTH 925 0
DWIDTH 18 0
BBX 18 12 0 0
BITMAP
678000
E78000
CD8000
CDC000
6DC700
1CC700
18C700
1FE700
3FE700
386700
307380
7073C0
ENDCHAR
STARTCHAR 1F8A
ENCODING 8074
SWIDTH 1080 0
DWIDTH 21 0
BBX 21 12 0 0
BITMAP
CCF000
ECF000
6CF800
C5D800
019870
019C70
039C60
03FC60
03FE60
070E60
070E78
070738
ENDCHAR
STARTCHAR 1F8B
ENCODING 8075
SWIDTH 1080 0
DWIDTH 21 0
BBX 21 12 0 0
BITMAP
7CF000
ECF000
CCF800
CDF800
419870
019C70
039C60
03FC60
03FE60
070E60
070E78
070738
ENDCHAR
STARTCHAR 1F8C
ENCODING 8076
SWIDTH 1080 0
DWIDTH 21 0
BBX 21 12 0 0
BITMAP
CCF000
ECF000
6CF000
CDF800
019860
019860
039C60
03FC60
03FC60
070E60
070E78
0E0F38
ENDCHAR
STARTCHAR 1F8D
ENCODING 8077
SWIDTH 1080 0
DWIDTH 21 0
BBX 21 12 0 0
BITMAP
6CF000
ECF000
CDF000
CDF800
419860
019860
039C60
03FC60
03FC60
070E60
070E78
0E0F38
ENDCHAR
STARTCHAR 1F8E
ENCODING 8078
SWIDTH 925 0
DWIDTH 18 0
BBX 18 12 0 0
BITMAP
FB8000
F7C000
76C000
36C000
4EE380
0EE380
0C6380
1FF380
1FF380
187380
383BC0
3839C0
ENDCHAR
STARTCHAR 1F8F
ENCODING 8079
SWIDTH 925 0
DWIDTH 18 0
BBX 18 12 0 0
BITMAP
FB8000
F7C000
76C000
46C000
2EE380
0EE380
0C6380
1FF380
1FF380
187380
383BC0
3839C0
ENDCHAR
STARTCHAR 1F90
ENCODING 8080
SWIDTH 565 0
DWIDTH 11 0
BBX 9 19 1 -4
BITMAP
1800
1C00
0600
0C00
0800
0000
EF00
FF00
F300
E380
E380
E380
E380
E380
E380
0380
0380
6380
7000
ENDCHAR
STARTCHAR 1F91
ENCODING 8081
SWIDTH 565 0
DWIDTH 11 0
BBX 9 19 1 -4
BITMAP
0C00
1C00
1A00
1C00
0400
0000
EF00
FF00
F300
E380
E380
E380
E380
E380
E380
0380
0380
6380
7000
ENDCHAR
STARTCHAR 1F92
ENCODING 8082
SWIDTH 565 0
DWIDTH 11 0
BBX 9 19 1 -4
BITMAP
6600
7600
3600
3300
0000
0000
EF00
FF00
F300
E380
E380
E380
E380
E380
E380
0380
0380
6380
7000
ENDCHAR
STARTCHAR 1F93
ENCODING 8083
SWIDTH 565 0
DWIDTH 11 0
BBX 9 19 1 -4
BITMAP
3600
7600
6600
7300
0000
0000
EF00
FF00
F300
E380
E380
E380
E380
E380
E380
0380
0380
6380
7000
ENDCHAR
STARTCHAR 1F94
ENCODING 8084
SWIDTH 565 0
DWIDTH 11 0
BBX 9 19 1 -4
BITMAP
6300
7700
3600
3600
0000
0000
EF00
FF00
F300
E380
E380
E380
E380
E380
E380
0380
0380
6380
7000
ENDCHAR
STARTCHAR 1F95
ENCODING 8085
SWIDTH 565 0
DWIDTH 11 0
BBX 9 19 1 -4
BITMAP
3300
7600
6600
3600
0000
0000
EF00
FF00
F300
E380
E380
E380
E380
E380
E380
0380
0380
6380
7000
ENDCHAR
STARTCHAR 1F96
ENCODING 8086
SWIDTH 565 0
DWIDTH 11 0
BBX 9 20 1 -4
BITMAP
3F00
3E00
1C00
1C00
0400
0800
0000
EF00
FF00
F300
E380
E380
E380
E380
E380
E380
0380
0380
6380
7000
ENDCHAR
STARTCHAR 1F97
ENCODING 8087
SWIDTH 565 0
DWIDTH 11 0
BBX 9 20 1 -4
BITMAP
3F00
3E00
0C00
1C00
1800
0400
0000
EF00
FF00
F300
E380
E380
E380
E380
E380
E380
0380
0380
6380
7000
ENDCHAR
STARTCHAR 1F98
ENCODING 8088
SWIDTH 1080 0
DWIDTH 21 0
BBX 21 12 0 0
BITMAP
C60C00
E60C00
660C00
660C00
C60C70
07FC70
07FC70
060C70
060C70
060C70
060C78
060C38
ENDCHAR
STARTCHAR 1F99
ENCODING 8089
SWIDTH 1080 0
DWIDTH 21 0
BBX 21 12 0 0
BITMAP
660C00
E60C00
C60C00
C60C00
660C70
07FC70
07FC70
060C70
060C70
060C70
060C78
060C38
ENDCHAR
STARTCHAR 1F9A
ENCODING 8090
SWIDTH 1285 0
DWIDTH 25 0
BBX 25 12 0 0
BITMAP
CCC1C000
ECC1C000
6CC1C000
C4C1C000
00C1CE00
00FFCE00
00FFCE00
00C1CE00
00C1CE00
00C1CE00
00C1CF00
00C1C780
ENDCHAR
STARTCHAR 1F9B
ENCODING 8091
SWIDTH 1285 0
DWIDTH 25 0
BBX 25 12 0 0
BITMAP
7CC1C000
ECC1C000
CCC1C000
CCC1C000
40C1CE00
00FFCE00
00FFCE00
00C1CE00
00C1CE00
00C1CE00
00C1CF00
00C1C780
ENDCHAR
STARTCHAR 1F9C
ENCODING 8092
SWIDTH 1234 0
DWIDTH 24 0
BBX 24 12 0 0
BITMAP
CDC180
EDC180
6DC180
CDC180
01C18E
01FF8E
01FF8E
01C18E
01C18E
01C18E
01C18F
01C187
ENDCHAR
STARTCHAR 1F9D
ENCODING 8093
SWIDTH 1234 0
DWIDTH 24 0
BBX 24 12 0 0
BITMAP
6DC180
EDC180
CDC180
CDC180
41C18E
01FF8E
01FF8E
01C18E
01C18E
01C18E
01C18F
01C187
ENDCHAR
STARTCHAR 1F9E
ENCODING 8094
SWIDTH 1182 0
DWIDTH 23 0
BBX 23 12 0 0
BITMAP
FB0700
F30700
730700
330700
430738
03FF38
03FF38
030738
030738
030738
03073C
03071E
ENDCHAR
STARTCHAR 1F9F
ENCODING 8095
SWIDTH 1182 0
DWIDTH 23 0
BBX 23 12 0 0
BITMAP
FB0700
F30700
730700
430700
230738
03FF38
03FF38
030738
030738
030738
03073C
03071E
ENDCHAR
STARTCHAR 1FA0
ENCODING 8096
SWIDTH 720 0
DWIDTH 14 0
BBX 12 19 1 -4
BITMAP
0600
0F00
0300
0700
0400
0000
7060
E0F0
E070
C730
C630
C630
E770
7FF0
39E0
0000
0000
0600
0700
ENDCHAR
STARTCHAR 1FA1
ENCODING 8097
SWIDTH 720 0
DWIDTH 14 0
BBX 12 19 1 -4
BITMAP
0700
0F00
0C00
0600
0200
0000
7060
E0F0
E070
C730
C630
C630
E770
7FF0
39E0
0000
0000
0600
0700
ENDCHAR
STARTCHAR 1FA2
ENCODING 8098
SWIDTH 720 0
DWIDTH 14 0
BBX 12 19 1 -4
BITMAP
1B00
3B80
0D80
1980
0000
0000
7060
E0F0
E070
C730
C630
C630
E770
7FF0
39E0
0000
0000
0600
0700
ENDCHAR
STARTCHAR 1FA3
ENCODING 8099
SWIDTH 720 0
DWIDTH 14 0
BBX 12 19 1 -4
BITMAP
1B00
1F80
3180
1980
0000
0000
7060
E0F0
E070
C730
C630
C630
E770
7FF0
39E0
0000
0000
0600
0700
ENDCHAR
STARTCHAR 1FA4
ENCODING 8100
SWIDTH 720 0
DWIDTH 14 0
BBX 12 19 1 -4
BITMAP
1980
3980
0D00
1B00
0000
0000
7060
E0F0
E070
C730
C630
C630
E770
7FF0
39E0
0000
0000
0600
0700
ENDCHAR
STARTCHAR 1FA5
ENCODING 8101
SWIDTH 720 0
DWIDTH 14 0
BBX 12 19 1 -4
BITMAP
0D80
1D80
1300
1B00
0000
0000
7060
E0F0
E070
C730
C630
C630
E770
7FF0
39E0
0000
0000
0600
0700
ENDCHAR
STARTCHAR 1FA6
ENCODING 8102
SWIDTH 720 0
DWIDTH 14 0
BBX 12 20 1 -4
BITMAP
0F80
1F80
0600
0700
0300
0400
0000
7060
E0F0
E070
C730
C630
C630
E770
7FF0
39E0
0000
0000
0600
0700
ENDCHAR
STARTCHAR 1FA7
ENCODING 8103
SWIDTH 720 0
DWIDTH 14 0
BBX 12 20 1 -4
BITMAP
0F80
1F80
0600
0700
0400
0200
0000
7060
E0F0
E070
C730
C630
C630
E770
7FF0
39E0
0000
0000
0600
0700
ENDCHAR
STARTCHAR 1FA8
ENCODING 8104
SWIDTH 1131 0
DWIDTH 22 0
BBX 22 12 0 0
BITMAP
C1F000
E7F800
671C00
6E0E00
CE0E70
0E0E70
0E0E70
0E0E70
060C70
071C70
0FBE3C
0FBE3C
ENDCHAR
STARTCHAR 1FA9
ENCODING 8105
SWIDTH 1080 0
DWIDTH 21 0
BBX 21 12 0 0
BITMAP
61F000
E7F800
CF1C00
CE1C00
6C0E70
0C0E70
1C0E70
0E0C70
0E1C70
073870
1F3E78
1F3E38
ENDCHAR
STARTCHAR 1FAA
ENCODING 8106
SWIDTH 1285 0
DWIDTH 25 0
BBX 25 12 0 0
BITMAP
CC3E0000
EC7F8000
6CE38000
C5C1C000
01C1CE00
01C1CE00
01C1CE00
01C1CE00
00E1CE00
00E38600
01F7E780
01F7E780
ENDCHAR
STARTCHAR 1FAB
ENCODING 8107
SWIDTH 1285 0
DWIDTH 25 0
BBX 25 12 0 0
BITMAP
7C3E0000
EC7F8000
CCE38000
CDC1C000
41C1CE00
01C1CE00
01C1CE00
01C1CE00
00E18E00
00E38600
01F7E780
01F7E780
ENDCHAR
STARTCHAR 1FAC
ENCODING 8108
SWIDTH 1285 0
DWIDTH 25 0
BBX 25 12 0 0
BITMAP
CC3E0000
ECFF0000
6CE38000
CDC1C000
01C1CE00
01C1CE00
01C1CE00
01C1CE00
00C38E00
00E38E00
03F7C700
03F7C780
ENDCHAR
STARTCHAR 1FAD
ENCODING 8109
SWIDTH 1285 0
DWIDTH 25 0
BBX 25 12 0 0
BITMAP
6C3E0000
ECFF0000
CCE38000
CDC1C000
41C1CE00
01C1CE00
01C1CE00
01C1CE00
00C38E00
00E38E00
03F7C700
03F7C780
ENDCHAR
STARTCHAR 1FAE
ENCODING 8110
SWIDTH 1131 0
DWIDTH 22 0
BBX 22 12 0 0
BITMAP
F9F000
F3FC00
771E00
370E00
4E0638
0E0738
0E0638
060E38
070E30
039C38
0F9F3C
0F9F1C
ENDCHAR
STARTCHAR 1FAF
ENCODING 8111
SWIDTH 1131 0
DWIDTH 22 0
BBX 22 12 0 0
BITMAP
F9F000
F3FC00
771E00
470E00
2E0638
0E0738
0E0638
060E38
070E30
039C38
0F9F3C
0F9F1C
ENDCHAR
STARTCHAR 1FB0
ENCODING 8112
SWIDTH 565 0
DWIDTH 11 0
BBX 10 14 1 0
BITMAP
6300
3E00
1E00
0000
0000
39C0
7D80
E780
E380
E380
E300
E700
FFC0
39C0
ENDCHAR
STARTCHAR 1FB1
ENCODING 8113
SWIDTH 565 0
DWIDTH 11 0
BBX 10 13 1 0
BITMAP
3E00
3E00
0000
0000
39C0
7D80
E780
E380
E380
E300
E700
FFC0
39C0
ENDCHAR
STARTCHAR 1FB2
ENCODING 8114
SWIDTH 565 0
DWIDTH 11 0
BBX 10 20 1 -4
BITMAP
2000
7000
3800
1C00
0800
0000
0000
39C0
7D80
E780
E380
E380
E300
E700
FFC0
39C0
0000
0000
0C00
0E00
ENDCHAR
STARTCHAR 1FB3
ENCODING 8115
SWIDTH 565 0
DWIDTH 11 0
BBX 10 13 1 -4
BITMAP
39C0
7D80
E780
E380
E380
E300
E700
FFC0
39C0
0000
0000
0C00
0E00
ENDCHAR
STARTCHAR 1FB4
ENCODING 8116
SWIDTH 565 0
DWIDTH 11 0
BBX 10 20 1 -4
BITMAP
0200
0700
0F00
1C00
0800
0000
0000
39C0
7D80
E780
E380
E380
E300
E700
FFC0
39C0
0000
0000
0C00
0E00
ENDCHAR
STARTCHAR 1FB6
ENCODING 8118
SWIDTH 565 0
DWIDTH 11 0
BBX 10 14 1 0
BITMAP
3B00
7F00
6F00
0000
0000
39C0
7D80
E780
E380
E380
E300
E700
FFC0
39C0
ENDCHAR
STARTCHAR 1FB7
ENCODING 8119
SWIDTH 565 0
DWIDTH 11 0
BBX 10 18 1 -4
BITMAP
3B00
7F00
6F00
0000
0000
39C0
7D80
E780
E380
E380
E300
E700
FFC0
39C0
0000
0000
0C00
0E00
ENDCHAR
STARTCHAR 1FB8
ENCODING 8120
SWIDTH 565 0
DWIDTH 11 0
BBX 11 16 0 0
BITMAP
3100
1F00
1E00
0000
0E00
1F00
1B00
1B00
3B80
3380
3180
7FC0
7FC0
61C0
E0E0
E0E0
ENDCHAR
STARTCHAR 1FB9
ENCODING 8121
SWIDTH 565 0
DWIDTH 11 0
BBX 11 16 0 0
BITMAP
3F00
3F00
0000
0000
0E00
1F00
1B00
1B00
3B80
3380
3180
7FC0
7FC0
61C0
E0E0
E0E0
ENDCHAR
STARTCHAR 1FBA
ENCODING 8122
SWIDTH 617 0
DWIDTH 12 0
BBX 12 12 0 0
BITMAP
C700
CF80
CF80
6D80
1DC0
19C0
18C0
3FC0
3FE0
30E0
7060
7070
ENDCHAR
STARTCHAR 1FBB
ENCODING 8123
SWIDTH 617 0
DWIDTH 12 0
BBX 12 12 0 0
BITMAP
E700
CF80
CF80
CD80
1DC0
19C0
18C0
3FC0
3FE0
30E0
7060
7070
ENDCHAR
STARTCHAR 1FBC
ENCODING 8124
SWIDTH 822 0
DWIDTH 16 0
BBX 16 12 0 0
BITMAP
0E00
1F00
1B00
1B00
3B8E
338E
318E
7FCE
7FCE
61CE
E0EF
E0E7
ENDCHAR
STARTCHAR 1FBD
ENCODING 8125
SWIDTH 565 0
DWIDTH 11 0
BBX 3 5 4 10
BITMAP
C0
E0
60
E0
80
ENDCHAR
STARTCHAR 1FBE
ENCODING 8126
SWIDTH 308 0
DWIDTH 6 0
BBX 5 8 1 0
BITMAP
E0
E0
E0
E0
E0
E0
F0
78
ENDCHAR
STARTCHAR 1FBF
ENCODING 8127
SWIDTH 565 0
DWIDTH 11 0
BBX 3 5 4 10
BITMAP
C0
E0
60
E0
80
ENDCHAR
STARTCHAR 1FC0
ENCODING 8128
SWIDTH 565 0
DWIDTH 11 0
BBX 7 3 2 11
BITMAP
66
FE
DC
ENDCHAR
STARTCHAR 1FC1
ENCODING 8129
SWIDTH 565 0
DWIDTH 11 0
BBX 7 5 2 11
BITMAP
64
FC
DC
CC
CE
ENDCHAR
STARTCHAR 1FC2
ENCODING 8130
SWIDTH 565 0
DWIDTH 11 0
BBX 9 20 1 -4
BITMAP
2000
3000
7800
1C00
0800
0000
0000
EF00
FF00
F300
E380
E380
E380
E380
E380
E380
0380
0380
6380
7000
ENDCHAR
STARTCHAR 1FC3
ENCODING 8131
SWIDTH 565 0
DWIDTH 11 0
BBX 9 13 1 -4
BITMAP
EF00
FF00
F300
E380
E380
E380
E380
E380
E380
0380
0380
6380
7000
ENDCHAR
STARTCHAR 1FC4
ENCODING 8132
SWIDTH 565 0
DWIDTH 11 0
BBX 9 20 1 -4
BITMAP
0200
0700
0700
0E00
0400
0000
0000
EF00
FF00
F300
E380
E380
E380
E380
E380
E380
0380
0380
6380
7000
ENDCHAR
STARTCHAR 1FC6
ENCODING 8134
SWIDTH 565 0
DWIDTH 11 0
BBX 9 17 1 -3
BITMAP
3900
7F00
6F00
0000
0000
EF00
FF00
F300
E380
E380
E380
E380
E380
E380
0380
0380
0380
ENDCHAR
STARTCHAR 1FC7
ENCODING 8135
SWIDTH 565 0
DWIDTH 11 0
BBX 9 18 1 -4
BITMAP
3900
7F00
6F00
0000
0000
EF00
FF00
F300
E380
E380
E380
E380
E380
E380
0380
0380
6380
7000
ENDCHAR
STARTCHAR 1FC8
ENCODING 8136
SWIDTH 668 0
DWIDTH 13 0
BBX 12 12 0 0
BITMAP
CFE0
CFE0
CE00
4E00
0E00
0FE0
0FE0
0E00
0E00
0E00
0FF0
0FF0
ENDCHAR
STARTCHAR 1FC9
ENCODING 8137
SWIDTH 668 0
DWIDTH 13 0
BBX 12 12 0 0
BITMAP
EFE0
CFE0
CE00
CE00
0E00
0FE0
0FE0
0E00
0E00
0E00
0FF0
0FF0
ENDCHAR
STARTCHAR 1FCA
ENCODING 8138
SWIDTH 771 0
DWIDTH 15 0
BBX 14 12 0 0
BITMAP
CE1C
CE1C
CE1C
4E1C
0E1C
0FFC
0FFC
0E1C
0E1C
0E1C
0E1C
0E1C
ENDCHAR
STARTCHAR 1FCB
ENCODING 8139
SWIDTH 771 0
DWIDTH 15 0
BBX 14 12 0 0
BITMAP
EE1C
CE1C
CE1C
CE1C
0E1C
0FFC
0FFC
0E1C
0E1C
0E1C
0E1C
0E1C
ENDCHAR
STARTCHAR 1FCC
ENCODING 8140
SWIDTH 925 0
DWIDTH 18 0
BBX 17 12 1 0
BITMAP
E0C000
E0C000
E0C000
E0C000
E0C700
FFC700
FFC700
E0C700
E0C700
E0C700
E0C780
E0C380
ENDCHAR
STARTCHAR 1FCD
ENCODING 8141
SWIDTH 565 0
DWIDTH 11 0
BBX 6 4 2 11
BITMAP
DC
EC
6C
CC
ENDCHAR
STARTCHAR 1FCE
ENCODING 8142
SWIDTH 565 0
DWIDTH 11 0
BBX 6 4 2 11
BITMAP
CC
EC
6C
D8
ENDCHAR
STARTCHAR 1FCF
ENCODING 8143
SWIDTH 565 0
DWIDTH 11 0
BBX 6 6 2 10
BITMAP
7C
FC
30
38
18
30
ENDCHAR
STARTCHAR 1FD0
ENCODING 8144
SWIDTH 308 0
DWIDTH 6 0
BBX 7 14 -1 0
BITMAP
C6
7C
3C
00
00
38
38
38
38
38
38
38
3C
1E
ENDCHAR
STARTCHAR 1FD1
ENCODING 8145
SWIDTH 308 0
DWIDTH 6 0
BBX 6 13 0 0
BITMAP
F8
F8
00
00
70
70
70
70
70
70
70
78
3C
ENDCHAR
STARTCHAR 1FD2
ENCODING 8146
SWIDTH 308 0
DWIDTH 6 0
BBX 7 15 -1 0
BITMAP
30
30
D6
DE
00
00
38
38
38
38
38
38
38
3C
1E
ENDCHAR
STARTCHAR 1FD3
ENCODING 8147
SWIDTH 308 0
DWIDTH 6 0
BBX 7 15 -1 0
BITMAP
18
18
D6
D6
00
00
38
38
38
38
38
38
38
3C
1E
ENDCHAR
STARTCHAR 1FD6
ENCODING 8150
SWIDTH 308 0
DWIDTH 6 0
BBX 7 14 -1 0
BITMAP
76
FE
DE
00
00
38
38
38
38
38
38
38
3C
1E
ENDCHAR
STARTCHAR 1FD7
ENCODING 8151
SWIDTH 308 0
DWIDTH 6 0
BBX 7 16 -1 0
BITMAP
76
7C
5C
66
E6
00
00
38
38
38
38
38
38
38
3C
1E
ENDCHAR
STARTCHAR 1FD8
ENCODING 8152
SWIDTH 308 0
DWIDTH 6 0
BBX 6 16 0 0
BITMAP
CC
FC
78
00
70
70
70
70
70
70
70
70
70
70
70
70
ENDCHAR
STARTCHAR 1FD9
ENCODING 8153
SWIDTH 308 0
DWIDTH 6 0
BBX 6 16 0 0
BITMAP
FC
FC
00
00
70
70
70
70
70
70
70
70
70
70
70
70
ENDCHAR
STARTCHAR 1FDA
ENCODING 8154
SWIDTH 411 0
DWIDTH 8 0
BBX 7 12 0 0
BITMAP
CE
CE
CE
4E
0E
0E
0E
0E
0E
0E
0E
0E
ENDCHAR
STARTCHAR 1FDB
ENCODING 8155
SWIDTH 411 0
DWIDTH 8 0
BBX 7 12 0 0
BITMAP
EE
CE
CE
CE
0E
0E
0E
0E
0E
0E
0E
0E
ENDCHAR
STARTCHAR 1FDD
ENCODING 8157
SWIDTH 565 0
DWIDTH 11 0
BBX 6 4 2 11
BITMAP
7C
EC
8C
CC
ENDCHAR
STARTCHAR 1FDE
ENCODING 8158
SWIDTH 565 0
DWIDTH 11 0
BBX 6 4 2 11
BITMAP
6C
EC
CC
D8
ENDCHAR
STARTCHAR 1FDF
ENCODING 8159
SWIDTH 565 0
DWIDTH 11 0
BBX 6 6 2 10
BITMAP
7C
FC
18
38
30
10
ENDCHAR
STARTCHAR 1FE0
ENCODING 8160
SWIDTH 514 0
DWIDTH 10 0
BBX 8 14 1 0
BITMAP
66
7E
3C
00
00
E7
E7
E7
E7
E7
E7
E7
7E
3C
ENDCHAR
STARTCHAR 1FE1
ENCODING 8161
SWIDTH 514 0
DWIDTH 10 0
BBX 8 13 1 0
BITMAP
7E
7E
00
00
E7
E7
E7
E7
E7
E7
E7
7E
3C
ENDCHAR
STARTCHAR 1FE2
ENCODING 8162
SWIDTH 514 0
DWIDTH 10 0
BBX 8 15 1 0
BITMAP
30
18
5A
FF
00
00
E7
E7
E7
E7
E7
E7
E7
7E
3C
ENDCHAR
STARTCHAR 1FE3
ENCODING 8163
SWIDTH 514 0
DWIDTH 10 0
BBX 8 15 1 0
BITMAP
0C
18
5A
FF
00
00
E7
E7
E7
E7
E7
E7
E7
7E
3C
ENDCHAR
STARTCHAR 1FE4
ENCODING 8164
SWIDTH 565 0
DWIDTH 11 0
BBX 9 18 1 -3
BITMAP
1800
1C00
0E00
0C00
1000
0000
3E00
7F00
6380
E380
E380
E380
E380
FF00
FE00
E000
E000
E000
ENDCHAR
STARTCHAR 1FE5
ENCODING 8165
SWIDTH 565 0
DWIDTH 11 0
BBX 9 18 1 -3
BITMAP
0C00
1C00
1800
1C00
0400
0000
3E00
7F00
6380
E380
E380
E380
E380
FF00
FE00
E000
E000
E000
ENDCHAR
STARTCHAR 1FE6
ENCODING 8166
SWIDTH 514 0
DWIDTH 10 0
BBX 8 14 1 0
BITMAP
73
7E
CE
00
00
E7
E7
E7
E7
E7
E7
E7
7E
3C
ENDCHAR
STARTCHAR 1FE7
ENCODING 8167
SWIDTH 514 0
DWIDTH 10 0
BBX 8 16 1 0
BITMAP
32
7E
4C
66
66
00
00
E7
E7
E7
E7
E7
E7
E7
7E
3C
ENDCHAR
STARTCHAR 1FE8
ENCODING 8168
SWIDTH 514 0
DWIDTH 10 0
BBX 10 16 0 0
BITMAP
3300
3F00
1E00
0000
E1C0
6180
7380
3300
3F00
1E00
1E00
1E00
0C00
0C00
0C00
0C00
ENDCHAR
STARTCHAR 1FE9
ENCODING 8169
SWIDTH 514 0
DWIDTH 10 0
BBX 10 16 0 0
BITMAP
3F00
3F00
0000
0000
E1C0
6180
7380
3300
3F00
1E00
1E00
1E00
0C00
0C00
0C00
0C00
ENDCHAR
STARTCHAR 1FEA
ENCODING 8170
SWIDTH 668 0
DWIDTH 13 0
BBX 14 12 0 0
BITMAP
DC3C
CE38
CE30
4770
0760
03E0
03C0
01C0
01C0
01C0
01C0
01C0
ENDCHAR
STARTCHAR 1FEB
ENCODING 8171
SWIDTH 668 0
DWIDTH 13 0
BBX 14 12 0 0
BITMAP
FC3C
CE38
CE30
C770
0760
03E0
03C0
01C0
01C0
01C0
01C0
01C0
ENDCHAR
STARTCHAR 1FEC
ENCODING 8172
SWIDTH 720 0
DWIDTH 14 0
BBX 14 12 0 0
BITMAP
67F0
E7F8
C63C
C61C
661C
0638
07F8
07E0
0600
0600
0600
0600
ENDCHAR
STARTCHAR 1FED
ENCODING 8173
SWIDTH 565 0
DWIDTH 11 0
BBX 7 4 2 11
BITMAP
30
30
F6
D6
ENDCHAR
STARTCHAR 1FEE
ENCODING 8174
SWIDTH 565 0
DWIDTH 11 0
BBX 7 4 2 11
BITMAP
18
10
D6
F6
ENDCHAR
STARTCHAR 1FEF
ENCODING 8175
SWIDTH 565 0
DWIDTH 11 0
BBX 3 5 3 11
BITMAP
20
E0
60
60
60
ENDCHAR
STARTCHAR 1FF2
ENCODING 8178
SWIDTH 720 0
DWIDTH 14 0
BBX 12 20 1 -4
BITMAP
0800
1C00
3C00
0E00
0400
0000
0000
7060
E0F0
E070
C730
C630
C630
E770
7FF0
39E0
0000
0000
0600
0700
ENDCHAR
STARTCHAR 1FF3
ENCODING 8179
SWIDTH 720 0
DWIDTH 14 0
BBX 12 13 1 -4
BITMAP
7060
E0F0
E070
C730
C630
C630
E770
7FF0
39E0
0000
0000
0600
0700
ENDCHAR
STARTCHAR 1FF4
ENCODING 8180
SWIDTH 720 0
DWIDTH 14 0
BBX 12 20 1 -4
BITMAP
0100
0180
03C0
0700
0200
0000
0000
7060
E0F0
E070
C730
C630
C630
E770
7FF0
39E0
0000
0000
0600
0700
ENDCHAR
STARTCHAR 1FF6
ENCODING 8182
SWIDTH 720 0
DWIDTH 14 0
BBX 12 14 1 0
BITMAP
1CC0
1FC0
1380
2000
0000
7060
E0F0
E070
C730
C630
C630
E770
7FF0
39E0
ENDCHAR
STARTCHAR 1FF7
ENCODING 8183
SWIDTH 720 0
DWIDTH 14 0
BBX 12 18 1 -4
BITMAP
1CC0
1FC0
1380
2000
0000
7060
E0F0
E070
C730
C630
C630
E770
7FF0
39E0
0000
0000
0600
0700
ENDCHAR
STARTCHAR 1FF8
ENCODING 8184
SWIDTH 771 0
DWIDTH 15 0
BBX 14 12 0 0
BITMAP
C3E0
CFF8
CE38
5C1C
1C1C
1C1C
1C1C
1C1C
1C1C
0E38
07F0
03E0
ENDCHAR
STARTCHAR 1FF9
ENCODING 8185
SWIDTH 771 0
DWIDTH 15 0
BBX 14 12 0 0
BITMAP
E3E0
CFF0
DE38
DC18
1C1C
1C1C
1C1C
1C1C
1C38
0E38
0FF0
03E0
ENDCHAR
STARTCHAR 1FFA
ENCODING 8186
SWIDTH 771 0
DWIDTH 15 0
BBX 15 12 0 0
BITMAP
C3E0
C7F8
CE38
5C1C
1C1C
1C1C
1C1C
1C1C
0E1C
0E38
1F3E
1F3E
ENDCHAR
STARTCHAR 1FFB
ENCODING 8187
SWIDTH 771 0
DWIDTH 15 0
BBX 14 12 0 0
BITMAP
E3E0
C7F8
CE38
DC1C
1C1C
1C1C
1C1C
1C1C
0C18
0E38
1F7C
1F7C
ENDCHAR
STARTCHAR 1FFC
ENCODING 8188
SWIDTH 977 0
DWIDTH 19 0
BBX 18 12 1 0
BITMAP
1F0000
3FC000
71E000
E0E000
E0E300
E06300
E0E300
E0E300
70E300
31C300
F9F3C0
F9F1C0
ENDCHAR
STARTCHAR 1FFD
ENCODING 8189
SWIDTH 565 0
DWIDTH 11 0
BBX 4 5 4 11
BITMAP
80
70
60
E0
C0
ENDCHAR
STARTCHAR 1FFE
ENCODING 8190
SWIDTH 565 0
DWIDTH 11 0
BBX 4 5 3 10
BITMAP
30
70
E0
60
20
ENDCHAR
STARTCHAR 2007
ENCODING 8199
SWIDTH 514 0
DWIDTH 10 0
BBX 0 0 0 0
BITMAP
ENDCHAR
STARTCHAR 2012
ENCODING 8210
SWIDTH 514 0
DWIDTH 10 0
BBX 8 2 1 4
BITMAP
FF
FF
ENDCHAR
STARTCHAR 2013
ENCODING 8211
SWIDTH 462 0
DWIDTH 9 0
BBX 7 2 1 4
BITMAP
FE
FE
ENDCHAR
STARTCHAR 2014
ENCODING 8212
SWIDTH 771 0
DWIDTH 15 0
BBX 13 2 1 4
BITMAP
FFF8
FFF8
ENDCHAR
STARTCHAR 2015
ENCODING 8213
SWIDTH 771 0
DWIDTH 15 0
BBX 13 2 1 4
BITMAP
FFF8
FFF8
ENDCHAR
STARTCHAR 2016
ENCODING 8214
SWIDTH 462 0
DWIDTH 9 0
BBX 5 19 2 -5
BITMAP
98
98
98
98
98
98
98
98
98
98
98
98
98
98
98
98
98
98
98
ENDCHAR
STARTCHAR 2018
ENCODING 8216
SWIDTH 308 0
DWIDTH 6 0
BBX 3 6 1 7
BITMAP
20
60
C0
C0
E0
E0
ENDCHAR
STARTCHAR 2019
ENCODING 8217
SWIDTH 308 0
DWIDTH 6 0
BBX 4 6 1 7
BITMAP
60
F0
30
20
E0
80
ENDCHAR
STARTCHAR 201A
ENCODING 8218
SWIDTH 308 0
DWIDTH 6 0
BBX 4 6 1 -3
BITMAP
60
F0
30
20
E0
80
ENDCHAR
STARTCHAR 201C
ENCODING 8220
SWIDTH 514 0
DWIDTH 10 0
BBX 8 6 1 7
BITMAP
22
63
C6
C4
E7
E7
ENDCHAR
STARTCHAR 201D
ENCODING 8221
SWIDTH 514 0
DWIDTH 10 0
BBX 8 6 1 7
BITMAP
67
F7
31
23
E6
84
ENDCHAR
STARTCHAR 201E
ENCODING 8222
SWIDTH 514 0
DWIDTH 10 0
BBX 8 6 1 -3
BITMAP
67
F7
31
23
E6
84
ENDCHAR
STARTCHAR 2020
ENCODING 8224
SWIDTH 514 0
DWIDTH 10 0
BBX 8 15 1 -1
BITMAP
18
18
18
FF
FF
18
18
18
18
18
18
18
18
18
18
ENDCHAR
STARTCHAR 2021
ENCODING 8225
SWIDTH 514 0
DWIDTH 10 0
BBX 8 15 1 -1
BITMAP
18
18
18
FF
FF
18
18
18
18
18
FF
FF
18
18
18
ENDCHAR
STARTCHAR 2022
ENCODING 8226
SWIDTH 360 0
DWIDTH 7 0
BBX 5 5 1 2
BITMAP
70
F8
F8
F8
70
ENDCHAR
STARTCHAR 2026
ENCODING 8230
SWIDTH 977 0
DWIDTH 19 0
BBX 16 4 1 0
BITMAP
61C3
F1C7
F1C7
61C3
ENDCHAR
STARTCHAR 202F
ENCODING 8239
SWIDTH 102 0
DWIDTH 2 0
BBX 0 0 0 0
BITMAP
ENDCHAR
STARTCHAR 2030
ENCODING 8240
SWIDTH 1234 0
DWIDTH 24 0
BBX 23 12 0 0
BITMAP
383000
7C2000
666000
C64000
66DC1C
7CBE3E
39B366
033366
033366
063366
043E3E
0C1C1C
ENDCHAR
STARTCHAR 2032
ENCODING 8242
SWIDTH 308 0
DWIDTH 6 0
BBX 3 6 2 7
BITMAP
E0
C0
C0
C0
C0
C0
ENDCHAR
STARTCHAR 2033
ENCODING 8243
SWIDTH 514 0
DWIDTH 10 0
BBX 7 6 2 7
BITMAP
EE
CE
CE
CE
CC
CC
ENDCHAR
STARTCHAR 2035
ENCODING 8245
SWIDTH 308 0
DWIDTH 6 0
BBX 3 6 1 7
BITMAP
E0
E0
E0
60
60
60
ENDCHAR
STARTCHAR 2039
ENCODING 8249
SWIDTH 308 0
DWIDTH 6 0
BBX 4 7 1 1
BITMAP
20
70
C0
80
C0
60
30
ENDCHAR
STARTCHAR 203A
ENCODING 8250
SWIDTH 308 0
DWIDTH 6 0
BBX 4 7 1 1
BITMAP
C0
60
70
30
70
60
C0
ENDCHAR
STARTCHAR 203C
ENCODING 8252
SWIDTH 617 0
DWIDTH 12 0
BBX 8 13 2 0
BITMAP
E7
E7
E7
C7
C7
C7
C6
C6
00
C7
E7
E7
C7
ENDCHAR
STARTCHAR 203D
ENCODING 8253
SWIDTH 462 0
DWIDTH 9 0
BBX 8 13 0 0
BITMAP
3E
7F
E7
1B
1B
1E
1C
18
00
18
1C
3C
18
ENDCHAR
STARTCHAR 203E
ENCODING 8254
SWIDTH 514 0
DWIDTH 10 0
BBX 9 2 0 10
BITMAP
FF80
FF80
ENDCHAR
STARTCHAR 203F
ENCODING 8255
SWIDTH 0 0
DWIDTH 0 0
BBX 18 4 -9 -4
BITMAP
400080
F807C0
3FFF00
07F800
ENDCHAR
STARTCHAR 2044
ENCODING 8260
SWIDTH 102 0
DWIDTH 2 0
BBX 8 13 -3 0
BITMAP
03
02
06
04
0C
08
18
10
30
20
60
40
C0
ENDCHAR
STARTCHAR 2047
ENCODING 8263
SWIDTH 874 0
DWIDTH 17 0
BBX 15 13 1 0
BITMAP
7C78
FEFC
4E4E
0E0E
0E1C
1C38
3838
3030
0000
3030
3878
7878
3030
ENDCHAR
STARTCHAR 2048
ENCODING 8264
SWIDTH 720 0
DWIDTH 14 0
BBX 12 13 1 0
BITMAP
7C60
FE60
4E60
0E60
0E60
1C60
3860
3060
0000
3060
38F0
78F0
3060
ENDCHAR
STARTCHAR 2049
ENCODING 8265
SWIDTH 720 0
DWIDTH 14 0
BBX 11 13 2 0
BITMAP
E3C0
EFE0
E460
C060
C0E0
C1C0
C180
C380
0000
C380
E380
E380
C380
ENDCHAR
STARTCHAR 2070
ENCODING 8304
SWIDTH 360 0
DWIDTH 7 0
BBX 7 8 0 7
BITMAP
38
7C
6C
46
C6
6C
7C
38
ENDCHAR
STARTCHAR 2071
ENCODING 8305
SWIDTH 205 0
DWIDTH 4 0
BBX 2 9 1 7
BITMAP
C0
C0
00
C0
C0
C0
C0
C0
C0
ENDCHAR
STARTCHAR 2074
ENCODING 8308
SWIDTH 360 0
DWIDTH 7 0
BBX 6 7 1 7
BITMAP
38
78
58
D8
FC
18
18
ENDCHAR
STARTCHAR 2075
ENCODING 8309
SWIDTH 360 0
DWIDTH 7 0
BBX 5 7 1 7
BITMAP
78
F8
F8
18
98
F8
70
ENDCHAR
STARTCHAR 2076
ENCODING 8310
SWIDTH 360 0
DWIDTH 7 0
BBX 5 8 1 7
BITMAP
78
F8
C0
F8
C8
C8
F8
70
ENDCHAR
STARTCHAR 2077
ENCODING 8311
SWIDTH 360 0
DWIDTH 7 0
BBX 6 7 1 7
BITMAP
FC
F8
10
30
30
70
60
ENDCHAR
STARTCHAR 2078
ENCODING 8312
SWIDTH 360 0
DWIDTH 7 0
BBX 5 8 1 7
BITMAP
70
D8
D8
D8
70
D8
D8
78
ENDCHAR
STARTCHAR 2079
ENCODING 8313
SWIDTH 360 0
DWIDTH 7 0
BBX 5 8 1 7
BITMAP
70
F8
D8
C8
F8
98
F8
F0
ENDCHAR
STARTCHAR 207D
ENCODING 8317
SWIDTH 257 0
DWIDTH 5 0
BBX 3 11 1 5
BITMAP
20
60
60
C0
C0
C0
C0
C0
60
60
20
ENDCHAR
STARTCHAR 207E
ENCODING 8318
SWIDTH 257 0
DWIDTH 5 0
BBX 3 11 1 5
BITMAP
80
C0
C0
60
60
60
60
60
C0
C0
80
ENDCHAR
STARTCHAR 207F
ENCODING 8319
SWIDTH 360 0
DWIDTH 7 0
BBX 6 7 1 7
BITMAP
B8
F8
CC
CC
CC
CC
CC
ENDCHAR
STARTCHAR 2080
ENCODING 8320
SWIDTH 360 0
DWIDTH 7 0
BBX 7 8 0 -4
BITMAP
38
7C
6C
46
C6
6C
7C
38
ENDCHAR
STARTCHAR 2081
ENCODING 8321
SWIDTH 360 0
DWIDTH 7 0
BBX 4 7 1 -4
BITMAP
30
F0
30
30
30
30
30
ENDCHAR
STARTCHAR 2082
ENCODING 8322
SWIDTH 360 0
DWIDTH 7 0
BBX 5 8 1 -4
BITMAP
70
F8
98
18
10
30
F8
F8
ENDCHAR
STARTCHAR 2083
ENCODING 8323
SWIDTH 360 0
DWIDTH 7 0
BBX 5 8 1 -4
BITMAP
70
F8
98
38
38
98
F8
70
ENDCHAR
STARTCHAR 2084
ENCODING 8324
SWIDTH 360 0
DWIDTH 7 0
BBX 6 7 1 -4
BITMAP
38
78
58
D8
FC
18
18
ENDCHAR
STARTCHAR 2085
ENCODING 8325
SWIDTH 360 0
DWIDTH 7 0
BBX 5 7 1 -4
BITMAP
78
F8
F8
18
98
F8
70
ENDCHAR
STARTCHAR 2086
ENCODING 8326
SWIDTH 360 0
DWIDTH 7 0
BBX 5 8 1 -4
BITMAP
78
F8
C0
F8
C8
C8
F8
70
ENDCHAR
STARTCHAR 2087
ENCODING 8327
SWIDTH 360 0
DWIDTH 7 0
BBX 6 7 1 -4
BITMAP
FC
F8
10
30
30
70
60
ENDCHAR
STARTCHAR 2088
ENCODING 8328
SWIDTH 360 0
DWIDTH 7 0
BBX 5 8 1 -4
BITMAP
70
D8
D8
D8
70
D8
D8
78
ENDCHAR
STARTCHAR 2089
ENCODING 8329
SWIDTH 360 0
DWIDTH 7 0
BBX 5 8 1 -4
BITMAP
70
F8
D8
C8
F8
98
F8
F0
ENDCHAR
STARTCHAR 208D
ENCODING 8333
SWIDTH 257 0
DWIDTH 5 0
BBX 3 11 1 -6
BITMAP
20
60
60
C0
C0
C0
C0
C0
60
60
20
ENDCHAR
STARTCHAR 208E
ENCODING 8334
SWIDTH 257 0
DWIDTH 5 0
BBX 3 11 1 -6
BITMAP
80
C0
C0
60
60
60
60
60
C0
C0
80
ENDCHAR
STARTCHAR 2094
ENCODING 8340
SWIDTH 360 0
DWIDTH 7 0
BBX 6 7 0 7
BITMAP
78
7C
0C
FC
CC
7C
38
ENDCHAR
STARTCHAR 20A1
ENCODING 8353
SWIDTH 514 0
DWIDTH 10 0
BBX 9 16 1 -2
BITMAP
0600
0A00
1F00
3F80
7B00
EA00
EC00
EC00
EC00
F400
F400
7500
7F80
1E00
1400
1800
ENDCHAR
STARTCHAR 20A4
ENCODING 8356
SWIDTH 514 0
DWIDTH 10 0
BBX 8 12 1 0
BITMAP
1E
3F
72
70
70
FE
30
FE
30
70
7F
FF
ENDCHAR
STARTCHAR 20A6
ENCODING 8358
SWIDTH 514 0
DWIDTH 10 0
BBX 10 12 0 0
BITMAP
7180
7980
7980
7980
FFC0
6D80
FFC0
6780
6780
6780
6380
6380
ENDCHAR
STARTCHAR 20A7
ENCODING 8359
SWIDTH 514 0
DWIDTH 10 0
BBX 10 12 0 0
BITMAP
7E00
7F00
7380
FFC0
FFC0
7380
7F00
7E00
7000
7000
7000
7000
ENDCHAR
STARTCHAR 20A9
ENCODING 8361
SWIDTH 514 0
DWIDTH 10 0
BBX 10 12 0 0
BITMAP
E0C0
ECC0
EDC0
6D80
6F80
FFC0
FFC0
7F80
7F80
7B80
7380
7380
ENDCHAR
STARTCHAR 20AB
ENCODING 8363
SWIDTH 514 0
DWIDTH 10 0
BBX 9 12 1 0
BITMAP
0600
3F80
0600
7E00
7E00
E600
E600
E600
7E00
7E00
0000
FF00
ENDCHAR
STARTCHAR 20AC
ENCODING 8364
SWIDTH 514 0
DWIDTH 10 0
BBX 10 12 0 0
BITMAP
0F80
1FC0
3900
3800
3000
FF00
7000
FF00
3000
3880
1FC0
0F00
ENDCHAR
STARTCHAR 20AE
ENCODING 8366
SWIDTH 514 0
DWIDTH 10 0
BBX 8 12 1 0
BITMAP
FF
FF
18
1B
1E
3C
FB
DE
3C
F8
D8
18
ENDCHAR
STARTCHAR 20B1
ENCODING 8369
SWIDTH 514 0
DWIDTH 10 0
BBX 10 12 0 0
BITMAP
7E00
7F00
7380
FFC0
7380
FFC0
7700
7F00
7C00
7000
7000
7000
ENDCHAR
STARTCHAR 20B2
ENCODING 8370
SWIDTH 514 0
DWIDTH 10 0
BBX 8 16 1 -2
BITMAP
0C
0C
3E
7F
72
E0
E0
E7
E7
E3
E3
F3
7F
3E
0C
0C
ENDCHAR
STARTCHAR 20B4
ENCODING 8372
SWIDTH 514 0
DWIDTH 10 0
BBX 10 12 0 0
BITMAP
1E00
7F00
2300
0300
0700
FFC0
1E00
FFC0
7000
7100
3F80
1F00
ENDCHAR
STARTCHAR 20B5
ENCODING 8373
SWIDTH 514 0
DWIDTH 10 0
BBX 9 16 1 -2
BITMAP
0C00
0C00
1F00
3F80
7E00
EC00
EC00
EC00
EC00
EC00
EC00
7D00
7F80
1E00
0C00
0C00
ENDCHAR
STARTCHAR 20B8
ENCODING 8376
SWIDTH 514 0
DWIDTH 10 0
BBX 8 12 1 0
BITMAP
FF
00
FF
FF
18
18
18
18
18
18
18
18
ENDCHAR
STARTCHAR 20B9
ENCODING 8377
SWIDTH 514 0
DWIDTH 10 0
BBX 8 12 1 0
BITMAP
FF
FC
1C
FF
1C
FC
F0
38
38
1C
0E
0F
ENDCHAR
STARTCHAR 20BA
ENCODING 8378
SWIDTH 514 0
DWIDTH 10 0
BBX 9 12 0 0
BITMAP
3A00
3E00
3C00
7A00
FE00
BC00
7880
F980
3980
3B80
3F00
3C00
ENDCHAR
STARTCHAR 20BD
ENCODING 8381
SWIDTH 514 0
DWIDTH 10 0
BBX 9 12 0 0
BITMAP
7E00
7F00
7380
7380
7700
FE00
7000
FF00
7000
7000
7000
7000
ENDCHAR
STARTCHAR 2113
ENCODING 8467
SWIDTH 462 0
DWIDTH 9 0
BBX 9 14 0 0
BITMAP
0E00
1F00
3B80
3B80
3B80
3B00
3F00
3E00
3C00
7800
F800
7900
1F80
0F00
ENDCHAR
STARTCHAR 2116
ENCODING 8470
SWIDTH 925 0
DWIDTH 18 0
BBX 17 12 1 0
BITMAP
71CF00
71DF80
799980
799980
799980
6D9F80
6D8F00
678000
679F00
679F00
E38000
C38000
ENDCHAR
STARTCHAR 2117
ENCODING 8471
SWIDTH 720 0
DWIDTH 14 0
BBX 12 13 1 0
BITMAP
0F80
3FC0
7060
CF30
CF90
8DD0
8DD0
8F90
CF10
CC30
7C60
3FC0
0F80
ENDCHAR
STARTCHAR 2120
ENCODING 8480
SWIDTH 668 0
DWIDTH 13 0
BBX 13 6 0 7
BITMAP
7338
7BB8
73F8
7BD8
FBD8
7318
ENDCHAR
STARTCHAR 2122
ENCODING 8482
SWIDTH 668 0
DWIDTH 13 0
BBX 13 6 0 7
BITMAP
FB38
FBB8
33B8
33D8
33D8
3318
ENDCHAR
STARTCHAR 2126
ENCODING 8486
SWIDTH 720 0
DWIDTH 14 0
BBX 12 12 1 0
BITMAP
1F00
3FC0
71E0
E0E0
E0E0
E060
E0E0
E0E0
70E0
31C0
F9F0
F9F0
ENDCHAR
STARTCHAR 212E
ENCODING 8494
SWIDTH 771 0
DWIDTH 15 0
BBX 13 12 1 0
BITMAP
0F80
3060
4010
C018
C018
FFF8
C000
C000
C000
6000
3070
0F80
ENDCHAR
STARTCHAR 2150
ENCODING 8528
SWIDTH 822 0
DWIDTH 16 0
BBX 14 13 1 0
BITMAP
0040
70C0
F080
3180
3300
3300
367C
367C
0C08
0C18
1810
1030
3030
ENDCHAR
STARTCHAR 2151
ENCODING 8529
SWIDTH 822 0
DWIDTH 16 0
BBX 14 13 1 0
BITMAP
0060
70C0
F080
3180
3100
3338
327C
36CC
044C
0C7C
088C
187C
3078
ENDCHAR
STARTCHAR 2152
ENCODING 8530
SWIDTH 1131 0
DWIDTH 22 0
BBX 20 13 1 0
BITMAP
006000
70C000
F08000
318000
310000
3300E0
3239F0
367BB0
041B30
0C1B30
081BB0
1819F0
3018E0
ENDCHAR
STARTCHAR 2153
ENCODING 8531
SWIDTH 822 0
DWIDTH 16 0
BBX 14 13 1 0
BITMAP
0040
70C0
F080
3180
3300
3338
367C
364C
0C38
0C3C
184C
10FC
3038
ENDCHAR
STARTCHAR 2154
ENCODING 8532
SWIDTH 822 0
DWIDTH 16 0
BBX 14 13 1 0
BITMAP
7060
F860
98C0
18C0
1180
31B8
FB7C
FB4C
061C
041C
0C4C
08FC
1838
ENDCHAR
STARTCHAR 2155
ENCODING 8533
SWIDTH 822 0
DWIDTH 16 0
BBX 14 13 1 0
BITMAP
0040
70C0
F080
3180
3300
3300
367C
367C
0C78
0C0C
184C
10FC
3038
ENDCHAR
STARTCHAR 2156
ENCODING 8534
SWIDTH 822 0
DWIDTH 16 0
BBX 14 13 1 0
BITMAP
7060
F860
98C0
18C0
1180
3180
FB3C
FB7C
067C
040C
0C4C
08FC
1838
ENDCHAR
STARTCHAR 2157
ENCODING 8535
SWIDTH 822 0
DWIDTH 16 0
BBX 14 13 1 0
BITMAP
7060
F840
98C0
3880
3980
9900
FB3C
727C
067C
040C
0C4C
08FC
1838
ENDCHAR
STARTCHAR 2158
ENCODING 8536
SWIDTH 874 0
DWIDTH 17 0
BBX 15 13 1 0
BITMAP
0030
3820
7860
5840
D8C0
FC80
19BE
193E
033C
0206
0626
0C7E
0C1C
ENDCHAR
STARTCHAR 2159
ENCODING 8537
SWIDTH 822 0
DWIDTH 16 0
BBX 14 13 1 0
BITMAP
0060
70C0
F080
3180
3100
3338
327C
36E0
04F8
0CCC
08CC
187C
3038
ENDCHAR
STARTCHAR 215A
ENCODING 8538
SWIDTH 822 0
DWIDTH 16 0
BBX 14 13 1 0
BITMAP
0060
7840
F8C0
F880
1980
993C
FB7C
7260
0658
04EC
0C6C
087C
1838
ENDCHAR
STARTCHAR 215B
ENCODING 8539
SWIDTH 822 0
DWIDTH 16 0
BBX 14 13 1 0
BITMAP
0060
70C0
F080
3180
3100
3338
326C
366C
046C
0C38
084C
18CC
3078
ENDCHAR
STARTCHAR 215C
ENCODING 8540
SWIDTH 822 0
DWIDTH 16 0
BBX 14 13 1 0
BITMAP
7060
F840
98C0
3880
3980
9938
FB6C
726C
066C
0438
0C6C
086C
183C
ENDCHAR
STARTCHAR 215D
ENCODING 8541
SWIDTH 822 0
DWIDTH 16 0
BBX 14 13 1 0
BITMAP
0060
7840
F8C0
F880
1980
9938
FB6C
726C
066C
0438
0C6C
086C
183C
ENDCHAR
STARTCHAR 215E
ENCODING 8542
SWIDTH 822 0
DWIDTH 16 0
BBX 14 13 1 0
BITMAP
00C0
F880
F980
1100
3300
6238
666C
644C
0C6C
0838
184C
10CC
3078
ENDCHAR
STARTCHAR 2189
ENCODING 8585
SWIDTH 822 0
DWIDTH 16 0
BBX 15 13 0 0
BITMAP
3830
7C20
6C60
4640
C6C0
6C9C
7DBE
3926
030E
020E
0626
047E
0C1C
ENDCHAR
STARTCHAR 2190
ENCODING 8592
SWIDTH 617 0
DWIDTH 12 0
BBX 11 10 0 0
BITMAP
0400
0E00
1C00
3800
7FE0
FFE0
3800
1C00
0E00
0400
ENDCHAR
STARTCHAR 2191
ENCODING 8593
SWIDTH 617 0
DWIDTH 12 0
BBX 10 11 1 -1
BITMAP
0800
1C00
1E00
3F00
6F80
CDC0
4C80
0C00
0C00
0C00
0C00
ENDCHAR
STARTCHAR 2192
ENCODING 8594
SWIDTH 617 0
DWIDTH 12 0
BBX 10 10 1 0
BITMAP
0400
0E00
0700
0380
FFC0
FFC0
0380
0700
0E00
0400
ENDCHAR
STARTCHAR 2193
ENCODING 8595
SWIDTH 617 0
DWIDTH 12 0
BBX 10 11 1 -1
BITMAP
0C00
0C00
0C00
0C00
4C80
CDC0
6F80
3F00
1E00
1C00
0800
ENDCHAR
STARTCHAR 2202
ENCODING 8706
SWIDTH 565 0
DWIDTH 11 0
BBX 9 12 1 0
BITMAP
3E00
7F00
2380
0380
3F80
7F80
E380
E380
C300
E700
7E00
3C00
ENDCHAR
STARTCHAR 2206
ENCODING 8710
SWIDTH 617 0
DWIDTH 12 0
BBX 11 12 1 0
BITMAP
1E00
1E00
3F00
3F00
3300
7380
7380
6180
E1C0
E1C0
FFE0
FFE0
ENDCHAR
STARTCHAR 220F
ENCODING 8719
SWIDTH 668 0
DWIDTH 13 0
BBX 10 14 2 -2
BITMAP
FFC0
FFC0
C1C0
C1C0
C1C0
C1C0
C1C0
C1C0
C1C0
C1C0
C1C0
C1C0
C1C0
C1C0
ENDCHAR
STARTCHAR 2211
ENCODING 8721
SWIDTH 514 0
DWIDTH 10 0
BBX 10 14 0 -2
BITMAP
7FC0
7FC0
7000
3800
1C00
1C00
0E00
0E00
1C00
1C00
3800
7000
FFC0
FFC0
ENDCHAR
STARTCHAR 2212
ENCODING 8722
SWIDTH 514 0
DWIDTH 10 0
BBX 8 2 1 5
BITMAP
FF
FF
ENDCHAR
STARTCHAR 2215
ENCODING 8725
SWIDTH 102 0
DWIDTH 2 0
BBX 8 13 -3 0
BITMAP
03
02
06
04
0C
08
18
10
30
20
60
40
C0
ENDCHAR
STARTCHAR 2219
ENCODING 8729
SWIDTH 514 0
DWIDTH 10 0
BBX 4 4 3 5
BITMAP
60
F0
F0
60
ENDCHAR
STARTCHAR 221A
ENCODING 8730
SWIDTH 565 0
DWIDTH 11 0
BBX 10 16 1 -1
BITMAP
00C0
00C0
00C0
0080
0180
0180
0180
6100
E300
B300
3300
3200
1E00
1E00
0E00
0C00
ENDCHAR
STARTCHAR 221E
ENCODING 8734
SWIDTH 771 0
DWIDTH 15 0
BBX 14 8 1 2
BITMAP
78F0
FDF8
CF9C
C70C
C70C
CF98
FFF8
79F0
ENDCHAR
STARTCHAR 222B
ENCODING 8747
SWIDTH 360 0
DWIDTH 7 0
BBX 6 18 1 -3
BITMAP
1C
3C
70
70
70
70
70
70
30
30
30
30
30
30
30
30
F0
E0
ENDCHAR
STARTCHAR 2248
ENCODING 8776
SWIDTH 514 0
DWIDTH 10 0
BBX 8 7 1 3
BITMAP
71
FF
8E
00
71
FF
8E
ENDCHAR
STARTCHAR 2260
ENCODING 8800
SWIDTH 514 0
DWIDTH 10 0
BBX 8 10 1 1
BITMAP
03
06
FF
FF
18
18
FF
FF
60
C0
ENDCHAR
STARTCHAR 2264
ENCODING 8804
SWIDTH 514 0
DWIDTH 10 0
BBX 8 11 1 0
BITMAP
01
07
7F
F8
E0
FE
1F
01
00
FF
FF
ENDCHAR
STARTCHAR 2265
ENCODING 8805
SWIDTH 514 0
DWIDTH 10 0
BBX 8 11 1 0
BITMAP
80
E0
FE
1F
07
7F
F8
C0
00
FF
FF
ENDCHAR
STARTCHAR 231C
ENCODING 8988
SWIDTH 360 0
DWIDTH 7 0
BBX 4 14 2 -1
BITMAP
F0
F0
C0
C0
C0
C0
C0
C0
C0
C0
C0
C0
C0
C0
ENDCHAR
STARTCHAR 231D
ENCODING 8989
SWIDTH 360 0
DWIDTH 7 0
BBX 4 14 1 -1
BITMAP
F0
F0
30
30
30
30
30
30
30
30
30
30
30
30
ENDCHAR
STARTCHAR 231E
ENCODING 8990
SWIDTH 360 0
DWIDTH 7 0
BBX 4 14 2 -1
BITMAP
C0
C0
C0
C0
C0
C0
C0
C0
C0
C0
C0
C0
F0
F0
ENDCHAR
STARTCHAR 231F
ENCODING 8991
SWIDTH 360 0
DWIDTH 7 0
BBX 4 14 1 -1
BITMAP
30
30
30
30
30
30
30
30
30
30
30
30
F0
F0
ENDCHAR
STARTCHAR 25A0
ENCODING 9632
SWIDTH 874 0
DWIDTH 17 0
BBX 15 15 1 -1
BITMAP
FFFE
FFFE
FFFE
FFFE
FFFE
FFFE
FFFE
FFFE
FFFE
FFFE
FFFE
FFFE
FFFE
FFFE
FFFE
ENDCHAR
STARTCHAR 25B2
ENCODING 9650
SWIDTH 874 0
DWIDTH 17 0
BBX 15 15 1 -1
BITMAP
0100
0100
0380
0380
07C0
07C0
0FE0
0FE0
1FF0
1FF0
3FF8
3FF8
7FFC
7FFC
FFFE
ENDCHAR
STARTCHAR 25B3
ENCODING 9651
SWIDTH 874 0
DWIDTH 17 0
BBX 15 15 1 -1
BITMAP
0100
0300
0380
0780
06C0
0CC0
0C60
0860
1830
1830
3018
3018
600C
7FFC
FFFE
ENDCHAR
STARTCHAR 25B6
ENCODING 9654
SWIDTH 874 0
DWIDTH 17 0
BBX 15 15 1 -1
BITMAP
8000
E000
F800
FE00
FF80
FFE0
FFF8
FFFE
FFF8
FFE0
FF80
FE00
F800
E000
8000
ENDCHAR
STARTCHAR 25B7
ENCODING 9655
SWIDTH 874 0
DWIDTH 17 0
BBX 15 15 1 -1
BITMAP
8000
E000
F800
FE00
CF80
C1E0
C078
C01E
C078
C1E0
C780
DE00
F800
E000
8000
ENDCHAR
STARTCHAR 25BC
ENCODING 9660
SWIDTH 874 0
DWIDTH 17 0
BBX 15 15 1 -1
BITMAP
FFFE
7FFC
7FFC
3FF8
3FF8
1FF0
1FF0
0FE0
0FE0
07C0
07C0
0380
0380
0100
0100
ENDCHAR
STARTCHAR 25BD
ENCODING 9661
SWIDTH 874 0
DWIDTH 17 0
BBX 15 15 1 -1
BITMAP
FFFE
7FFC
600C
3018
3018
1830
1830
0860
0C60
0CC0
06C0
0780
0380
0300
0100
ENDCHAR
STARTCHAR 25C0
ENCODING 9664
SWIDTH 874 0
DWIDTH 17 0
BBX 16 15 0 -1
BITMAP
0001
0007
001F
007F
03FF
0FFF
3FFF
FFFF
1FFF
07FF
01FF
007F
001F
0007
0001
ENDCHAR
STARTCHAR 25C1
ENCODING 9665
SWIDTH 874 0
DWIDTH 17 0
BBX 16 15 0 -1
BITMAP
0001
0007
001F
007B
03E3
0F83
3E03
F803
1C03
0703
01E3
007B
001F
0007
0001
ENDCHAR
STARTCHAR 25C6
ENCODING 9670
SWIDTH 874 0
DWIDTH 17 0
BBX 16 16 0 -2
BITMAP
0080
01C0
03E0
07F0
0FF8
1FFC
3FFE
7FFF
FFFF
3FFE
1FFC
0FF8
07F0
03E0
01C0
0080
ENDCHAR
STARTCHAR 25C9
ENCODING 9673
SWIDTH 874 0
DWIDTH 17 0
BBX 15 16 1 -2
BITMAP
07C0
1FF0
3838
639C
CFCC
CFE6
DFE6
9FF6
9FF6
DFE6
CFE6
C78C
601C
3838
1FF0
07C0
ENDCHAR
STARTCHAR 25CA
ENCODING 9674
SWIDTH 514 0
DWIDTH 10 0
BBX 8 12 1 0
BITMAP
1C
3C
3E
66
67
E3
E3
67
66
3E
3C
1C
ENDCHAR
STARTCHAR 25CC
ENCODING 9676
SWIDTH 565 0
DWIDTH 11 0
BBX 9 10 1 0
BITMAP
0800
2A00
2200
C180
C180
8080
C180
C180
2A00
2A00
ENDCHAR
STARTCHAR 2610
ENCODING 9744
SWIDTH 771 0
DWIDTH 15 0
BBX 13 13 1 0
BITMAP
7FF8
FFF8
C018
C018
C018
C018
C018
C018
C018
C018
C018
FFF8
FFF0
ENDCHAR
STARTCHAR 2611
ENCODING 9745
SWIDTH 771 0
DWIDTH 15 0
BBX 14 16 1 0
BITMAP
0008
000C
001C
7FF8
FFF8
C078
C078
D0D8
D9D8
DD98
CD98
C718
C718
C018
FFF8
FFF0
ENDCHAR
STARTCHAR 266A
ENCODING 9834
SWIDTH 514 0
DWIDTH 10 0
BBX 10 14 0 0
BITMAP
0400
0600
0780
07C0
04C0
04C0
04C0
04C0
0400
0400
3C00
7C00
FC00
7800
ENDCHAR
STARTCHAR 2713
ENCODING 10003
SWIDTH 617 0
DWIDTH 12 0
BBX 12 13 0 0
BITMAP
0020
0070
00E0
00C0
01C0
0180
4300
E300
6600
3600
3400
1C00
1C00
ENDCHAR
STARTCHAR 2752
ENCODING 10066
SWIDTH 874 0
DWIDTH 17 0
BBX 15 16 1 -2
BITMAP
7FFE
FFFE
8006
8006
8006
8006
8006
8006
8006
8006
8006
8006
8006
8006
FFFE
FFFC
ENDCHAR
STARTCHAR 27E6
ENCODING 10214
SWIDTH 411 0
DWIDTH 8 0
BBX 5 17 2 -3
BITMAP
F8
F8
B0
B0
B0
B0
B0
B0
B0
B0
B0
B0
B0
B0
B0
F8
F8
ENDCHAR
STARTCHAR 27E7
ENCODING 10215
SWIDTH 411 0
DWIDTH 8 0
BBX 6 17 1 -3
BITMAP
FC
FC
2C
2C
2C
2C
2C
2C
2C
2C
2C
2C
2C
2C
2C
FC
FC
ENDCHAR
STARTCHAR 2E22
ENCODING 11810
SWIDTH 360 0
DWIDTH 7 0
BBX 4 9 2 5
BITMAP
F0
F0
C0
C0
C0
C0
C0
C0
C0
ENDCHAR
STARTCHAR 2E23
ENCODING 11811
SWIDTH 360 0
DWIDTH 7 0
BBX 4 9 1 5
BITMAP
F0
F0
30
30
30
30
30
30
30
ENDCHAR
STARTCHAR 2E24
ENCODING 11812
SWIDTH 360 0
DWIDTH 7 0
BBX 4 9 2 -3
BITMAP
C0
C0
C0
C0
C0
C0
C0
F0
F0
ENDCHAR
STARTCHAR 2E25
ENCODING 11813
SWIDTH 360 0
DWIDTH 7 0
BBX 4 9 1 -3
BITMAP
30
30
30
30
30
30
30
F0
F0
ENDCHAR
STARTCHAR 2E3A
ENCODING 11834
SWIDTH 1491 0
DWIDTH 29 0
BBX 27 2 1 4
BITMAP
FFFFFFE0
FFFFFFE0
ENDCHAR
STARTCHAR 2E3B
ENCODING 11835
SWIDTH 2160 0
DWIDTH 42 0
BBX 40 2 1 4
BITMAP
FFFFFFFFFF
FFFFFFFFFF
ENDCHAR
STARTCHAR FB00
ENCODING 64256
SWIDTH 617 0
DWIDTH 12 0
BBX 13 14 0 0
BITMAP
1E78
3EF8
38E0
38E0
38E0
FFF0
FFF0
38E0
38E0
38E0
38E0
38E0
38E0
38E0
ENDCHAR
STARTCHAR FB01
ENCODING 64257
SWIDTH 617 0
DWIDTH 12 0
BBX 11 14 0 0
BITMAP
1E00
3EE0
38E0
38E0
3800
FCE0
FCE0
38E0
38E0
38E0
38E0
38E0
38E0
38E0
ENDCHAR
STARTCHAR FB02
ENCODING 64258
SWIDTH 617 0
DWIDTH 12 0
BBX 12 14 0 0
BITMAP
1EE0
3EE0
38E0
38E0
38E0
FCE0
FCE0
38E0
38E0
38E0
38E0
38E0
38E0
3870
ENDCHAR
STARTCHAR FB03
ENCODING 64259
SWIDTH 925 0
DWIDTH 18 0
BBX 17 14 0 0
BITMAP
1E7800
3EFB00
38E780
38E300
38E000
FFF380
FFF380
38E380
38E380
38E380
38E380
38E380
38E380
38E380
ENDCHAR
STARTCHAR FB04
ENCODING 64260
SWIDTH 925 0
DWIDTH 18 0
BBX 18 14 0 0
BITMAP
1E7B80
3EFB80
38E380
38E380
38E380
FFF380
FFF380
38E380
38E380
38E380
38E380
38E380
38E380
38E1C0
ENDCHAR
STARTCHAR FEFF
ENCODING 65279
SWIDTH 0 0
DWIDTH 0 0
BBX 0 0 0 0
BITMAP
ENDCHAR
ENDFONT
